<svg width="52" height="63" viewBox="0 0 52 63" fill="none" xmlns="http://www.w3.org/2000/svg">
<path d="M5.7127 37.5012C3.52421 33.9173 2.37036 29.7976 2.37895 25.5983C2.37895 12.8408 12.8265 2.50122 25.7123 2.50122C38.5981 2.50122 49.0456 12.8408 49.0456 25.5983C49.0542 29.7976 47.9004 33.9173 45.7119 37.5012" stroke="#17478B" stroke-width="4" stroke-linecap="round"/>
<path d="M34.4646 52.0845L34.0854 53.9716C33.6771 56.0336 33.47 57.0632 33.0063 57.8799C32.2917 59.1386 31.1346 60.0867 29.76 60.5399C28.8704 60.8345 27.8146 60.8345 25.7146 60.8345C23.6146 60.8345 22.5588 60.8345 21.6692 60.5428C20.2941 60.0889 19.137 59.1397 18.4229 57.8799C17.9592 57.0632 17.7521 56.0336 17.3438 53.9716L16.9646 52.0845M12.2484 46.537C11.98 45.732 11.8459 45.3266 11.8604 44.9999C11.8769 44.6621 11.991 44.3364 12.1887 44.062C12.3864 43.7877 12.6594 43.5765 12.9746 43.4541C13.2779 43.3345 13.7038 43.3345 14.5496 43.3345H36.8796C37.7284 43.3345 38.1513 43.3345 38.4546 43.4511C38.7703 43.5738 39.0435 43.7854 39.2413 44.0603C39.4391 44.3352 39.5528 44.6616 39.5688 44.9999C39.5834 45.3266 39.4492 45.7291 39.1809 46.537C38.685 48.0274 38.4371 48.7741 38.055 49.3778C37.2559 50.6396 36.0032 51.5468 34.555 51.9124C33.8609 52.0845 33.0792 52.0845 31.5129 52.0845H19.9163C18.35 52.0845 17.5654 52.0845 16.8742 51.9095C15.4266 51.5446 14.1739 50.6385 13.3742 49.3778C12.9921 48.7741 12.7442 48.0274 12.2484 46.537Z" stroke="#17478B" stroke-width="4"/>
<path d="M14.7734 25.1055L21.3359 31.668V43.3346M36.6484 25.1055L30.0859 31.668V43.3346M14.7734 27.293C15.3536 27.293 15.91 27.0625 16.3202 26.6523C16.7305 26.242 16.9609 25.6856 16.9609 25.1055C16.9609 24.5253 16.7305 23.9689 16.3202 23.5587C15.91 23.1484 15.3536 22.918 14.7734 22.918C14.1933 22.918 13.6369 23.1484 13.2266 23.5587C12.8164 23.9689 12.5859 24.5253 12.5859 25.1055C12.5859 25.6856 12.8164 26.242 13.2266 26.6523C13.6369 27.0625 14.1933 27.293 14.7734 27.293ZM36.6484 27.293C36.0683 27.293 35.5119 27.0625 35.1016 26.6523C34.6914 26.242 34.4609 25.6856 34.4609 25.1055C34.4609 24.5253 34.6914 23.9689 35.1016 23.5587C35.5119 23.1484 36.0683 22.918 36.6484 22.918C37.2286 22.918 37.785 23.1484 38.1952 23.5587C38.6055 23.9689 38.8359 24.5253 38.8359 25.1055C38.8359 25.6856 38.6055 26.242 38.1952 26.6523C37.785 27.0625 37.2286 27.293 36.6484 27.293Z" stroke="#17478B" stroke-width="4" stroke-linecap="round" stroke-linejoin="round"/>
</svg>
