<svg width="99" height="101" viewBox="0 0 99 101" fill="none" xmlns="http://www.w3.org/2000/svg">
<g clip-path="url(#clip0_10642_78998)">
<path d="M65.0915 34.3786C65.0915 40.2618 64.0597 45.538 61.9859 50.2258C61.6661 50.9492 61.0123 51.4001 60.2231 51.4428C59.4339 51.4847 58.7351 51.1056 58.3398 50.4208L52.7566 40.7418C52.5163 40.3253 52.4346 39.8959 52.5045 39.4201C52.7396 37.8251 52.8579 36.1455 52.8579 34.3786C52.8579 29.6277 52.0234 25.5296 50.3839 22.0687C48.745 18.6085 46.4376 15.9371 43.4477 14.0402C40.4728 12.1429 36.9363 11.2018 32.8381 11.2018C28.7551 11.2018 25.219 12.1429 22.2135 14.0402C19.2084 15.9371 16.8859 18.6085 15.2471 22.0687C13.6075 25.5296 12.7878 29.6277 12.7878 34.3786C12.7878 39.0992 13.6075 43.2121 15.2471 46.7032C16.8859 50.194 19.2084 52.8805 22.2135 54.7774C25.219 56.6751 28.7551 57.6159 32.8381 57.6159C34.4358 57.6159 35.9472 57.4704 37.374 57.1797C38.2497 57.0013 39.1038 57.3846 39.5529 58.1571L43.3108 64.6265C43.6416 65.195 43.6843 65.825 43.4344 66.4335C43.1842 67.0413 42.7114 67.4589 42.0768 67.6312C39.1621 68.4219 36.0387 68.8176 32.7017 68.8176C26.3725 68.8176 20.7867 67.3606 15.9448 64.4462C11.0881 61.5322 7.30857 57.4946 4.60735 52.334C1.89024 47.1734 0.539062 41.2086 0.539062 34.4391C0.539062 27.6699 1.90536 21.6896 4.6527 16.5135C7.38454 11.3382 11.1788 7.28542 16.0208 4.3714C20.8476 1.45701 26.433 0 32.7773 0C39.1677 0 44.7833 1.45701 49.6253 4.3714C54.4514 7.28542 58.2464 11.3231 60.9782 16.4837C63.7256 21.6442 65.0915 27.6091 65.0915 34.3786Z" fill="white"/>
<path fill-rule="evenodd" clip-rule="evenodd" d="M36.5215 48.9483L36.4973 49.0541C36.2479 50.1456 35.1616 50.8361 34.0675 50.5988L28.5981 49.4124C28.0433 49.2922 27.6086 48.9891 27.304 48.5098C26.9994 48.031 26.9094 47.5086 27.036 46.9553L30.5347 31.6528L30.6595 31.68L30.5672 31.5209H40.6907C41.4515 31.5209 42.1043 31.9033 42.4765 32.5663L60.8416 65.2977C61.26 66.0438 62.0488 66.438 62.8966 66.3254C63.7447 66.2128 64.4031 65.6262 64.6121 64.7969L76.3445 18.3231C76.577 17.4017 77.3793 16.7769 78.3295 16.7769H86.4514C87.4699 16.7769 88.3211 17.5075 88.4753 18.5144L98.0379 80.9892C98.1312 81.6003 97.9702 82.1639 97.5673 82.6329C97.1644 83.102 96.6323 83.3465 96.0139 83.3465H88.8608C87.8316 83.3465 86.9729 82.5981 86.8323 81.5784L82.6816 51.4397C82.5463 50.4567 81.75 49.7253 80.759 49.6743C79.7676 49.6233 78.9002 50.2684 78.6644 51.2326L71.1873 81.7855C70.9602 82.7138 70.154 83.3465 69.1986 83.3465H61.2536C60.4954 83.3465 59.8446 82.967 59.4716 82.3067L40.2999 48.3972C39.8755 47.6462 39.075 47.2543 38.2219 47.3786C37.3685 47.5033 36.7139 48.1081 36.5215 48.9483Z" fill="white"/>
<path d="M2.94906 91.2435H-0.0761406V90.2266H7.1818V91.2435H4.1566V99.3022H2.94906V91.2435ZM8.18874 90.2266H14.4552V91.2435H9.39628V94.1288H14.112V95.1457H9.39628V98.2853H14.4934V99.3022H8.18874V90.2266ZM22.3402 92.9594C22.2046 92.3154 21.9038 91.8324 21.4377 91.5104C20.9801 91.1884 20.4335 91.0274 19.798 91.0274C19.2557 91.0274 18.7896 91.1291 18.3998 91.3324C18.0185 91.5358 17.7007 91.8112 17.4465 92.1586C17.2007 92.4976 17.0185 92.8874 16.8999 93.328C16.7813 93.7687 16.7219 94.2263 16.7219 94.7008C16.7219 95.2177 16.7813 95.7092 16.8999 96.1753C17.0185 96.6329 17.2007 97.0354 17.4465 97.3828C17.7007 97.7218 18.0227 97.993 18.4125 98.1963C18.8023 98.3997 19.2684 98.5014 19.8107 98.5014C20.209 98.5014 20.5606 98.4378 20.8657 98.3107C21.1792 98.1751 21.4462 97.993 21.6665 97.7642C21.8953 97.5269 22.0732 97.2473 22.2004 96.9252C22.3275 96.6032 22.4037 96.2558 22.4292 95.8829H23.6367C23.5181 97.0269 23.124 97.9167 22.4546 98.5522C21.7851 99.1878 20.8699 99.5056 19.709 99.5056C19.0057 99.5056 18.3913 99.3869 17.8659 99.1497C17.3405 98.9039 16.9041 98.5692 16.5567 98.1455C16.2093 97.7218 15.9466 97.2218 15.7686 96.6456C15.5991 96.0694 15.5144 95.4508 15.5144 94.7898C15.5144 94.1288 15.6076 93.5102 15.7941 92.934C15.9805 92.3493 16.2516 91.8409 16.6076 91.4087C16.9719 90.9765 17.421 90.6376 17.9549 90.3918C18.4972 90.1376 19.1158 90.0105 19.8107 90.0105C20.2852 90.0105 20.7344 90.0741 21.1581 90.2012C21.5818 90.3283 21.9589 90.5147 22.2893 90.7604C22.6198 91.0062 22.8952 91.3155 23.1155 91.6883C23.3359 92.0527 23.4799 92.4764 23.5477 92.9594H22.3402ZM25.1325 90.2266H26.3401V94.1288H31.1194V90.2266H32.3269V99.3022H31.1194V95.1457H26.3401V99.3022H25.1325V90.2266ZM34.293 90.2266H35.5768L40.3561 97.5862H40.3816V90.2266H41.5255V99.3022H40.2036L35.4624 92.0188H35.437V99.3022H34.293V90.2266ZM44.1781 94.7644C44.1781 95.222 44.2374 95.6753 44.356 96.1245C44.4746 96.5651 44.6611 96.9634 44.9153 97.3193C45.1695 97.6752 45.4958 97.9633 45.894 98.1836C46.2923 98.3955 46.7668 98.5014 47.3177 98.5014C47.8685 98.5014 48.343 98.3955 48.7413 98.1836C49.1396 97.9633 49.4658 97.6752 49.72 97.3193C49.9742 96.9634 50.1607 96.5651 50.2793 96.1245C50.3979 95.6753 50.4573 95.222 50.4573 94.7644C50.4573 94.3068 50.3979 93.8577 50.2793 93.417C50.1607 92.9679 49.9742 92.5654 49.72 92.2095C49.4658 91.8536 49.1396 91.5697 48.7413 91.3579C48.343 91.1375 47.8685 91.0274 47.3177 91.0274C46.7668 91.0274 46.2923 91.1375 45.894 91.3579C45.4958 91.5697 45.1695 91.8536 44.9153 92.2095C44.6611 92.5654 44.4746 92.9679 44.356 93.417C44.2374 93.8577 44.1781 94.3068 44.1781 94.7644ZM42.9705 94.7644C42.9705 94.1458 43.0595 93.5526 43.2374 92.9849C43.4239 92.4086 43.6993 91.9002 44.0637 91.4595C44.428 91.0189 44.8814 90.6672 45.4237 90.4045C45.9661 90.1418 46.5974 90.0105 47.3177 90.0105C48.0379 90.0105 48.6692 90.1418 49.2116 90.4045C49.7539 90.6672 50.2073 91.0189 50.5717 91.4595C50.936 91.9002 51.2072 92.4086 51.3852 92.9849C51.5716 93.5526 51.6648 94.1458 51.6648 94.7644C51.6648 95.383 51.5716 95.9804 51.3852 96.5566C51.2072 97.1244 50.936 97.6286 50.5717 98.0692C50.2073 98.5099 49.7539 98.8615 49.2116 99.1242C48.6692 99.3785 48.0379 99.5056 47.3177 99.5056C46.5974 99.5056 45.9661 99.3785 45.4237 99.1242C44.8814 98.8615 44.428 98.5099 44.0637 98.0692C43.6993 97.6286 43.4239 97.1244 43.2374 96.5566C43.0595 95.9804 42.9705 95.383 42.9705 94.7644ZM53.1363 90.2266H54.3438V98.2853H59.1485V99.3022H53.1363V90.2266ZM60.8984 94.7644C60.8984 95.222 60.9577 95.6753 61.0763 96.1245C61.195 96.5651 61.3814 96.9634 61.6356 97.3193C61.8898 97.6752 62.2161 97.9633 62.6144 98.1836C63.0126 98.3955 63.4872 98.5014 64.038 98.5014C64.5888 98.5014 65.0633 98.3955 65.4616 98.1836C65.8599 97.9633 66.1861 97.6752 66.4404 97.3193C66.6946 96.9634 66.881 96.5651 66.9996 96.1245C67.1183 95.6753 67.1776 95.222 67.1776 94.7644C67.1776 94.3068 67.1183 93.8577 66.9996 93.417C66.881 92.9679 66.6946 92.5654 66.4404 92.2095C66.1861 91.8536 65.8599 91.5697 65.4616 91.3579C65.0633 91.1375 64.5888 91.0274 64.038 91.0274C63.4872 91.0274 63.0126 91.1375 62.6144 91.3579C62.2161 91.5697 61.8898 91.8536 61.6356 92.2095C61.3814 92.5654 61.195 92.9679 61.0763 93.417C60.9577 93.8577 60.8984 94.3068 60.8984 94.7644ZM59.6908 94.7644C59.6908 94.1458 59.7798 93.5526 59.9578 92.9849C60.1442 92.4086 60.4196 91.9002 60.784 91.4595C61.1484 91.0189 61.6017 90.6672 62.1441 90.4045C62.6864 90.1418 63.3177 90.0105 64.038 90.0105C64.7583 90.0105 65.3896 90.1418 65.9319 90.4045C66.4742 90.6672 66.9276 91.0189 67.292 91.4595C67.6564 91.9002 67.9275 92.4086 68.1055 92.9849C68.2919 93.5526 68.3851 94.1458 68.3851 94.7644C68.3851 95.383 68.2919 95.9804 68.1055 96.5566C67.9275 97.1244 67.6564 97.6286 67.292 98.0692C66.9276 98.5099 66.4742 98.8615 65.9319 99.1242C65.3896 99.3785 64.7583 99.5056 64.038 99.5056C63.3177 99.5056 62.6864 99.3785 62.1441 99.1242C61.6017 98.8615 61.1484 98.5099 60.784 98.0692C60.4196 97.6286 60.1442 97.1244 59.9578 96.5566C59.7798 95.9804 59.6908 95.383 59.6908 94.7644ZM76.6442 98.1709C76.2883 98.6455 75.8477 98.9886 75.3223 99.2005C74.7969 99.4039 74.2673 99.5056 73.7334 99.5056C73.0555 99.5056 72.4496 99.3827 71.9158 99.1369C71.3819 98.8827 70.9286 98.5438 70.5557 98.1201C70.1829 97.6964 69.899 97.2091 69.7041 96.6583C69.5092 96.1075 69.4117 95.5355 69.4117 94.9423C69.4117 94.2814 69.5007 93.6543 69.6787 93.0611C69.8651 92.4595 70.1363 91.9341 70.4922 91.485C70.8565 91.0358 71.3057 90.6799 71.8395 90.4172C72.3818 90.1461 73.0132 90.0105 73.7334 90.0105C74.2249 90.0105 74.6868 90.0698 75.1189 90.1884C75.5596 90.2986 75.9494 90.4766 76.2883 90.7223C76.6358 90.9681 76.9239 91.2816 77.1527 91.6629C77.39 92.0358 77.551 92.4891 77.6357 93.023H76.4282C76.3688 92.6756 76.2587 92.379 76.0977 92.1332C75.9367 91.879 75.7375 91.6714 75.5003 91.5104C75.263 91.3494 74.9918 91.2307 74.6868 91.1545C74.3902 91.0697 74.0724 91.0274 73.7334 91.0274C73.1826 91.0274 72.7081 91.1375 72.3098 91.3579C71.92 91.5782 71.598 91.8705 71.3438 92.2349C71.098 92.5908 70.9159 93.0018 70.7972 93.4679C70.6786 93.9255 70.6193 94.3958 70.6193 94.8788C70.6193 95.3533 70.6871 95.8109 70.8226 96.2516C70.9582 96.6837 71.1574 97.0693 71.4201 97.4083C71.6827 97.7387 72.0048 98.0057 72.3861 98.209C72.7759 98.4039 73.225 98.5014 73.7334 98.5014C74.208 98.5014 74.6274 98.4251 74.9918 98.2726C75.3562 98.1201 75.6613 97.9125 75.907 97.6498C76.1612 97.3786 76.3519 97.0651 76.479 96.7092C76.6061 96.3448 76.6612 95.955 76.6442 95.5398H73.7462V94.5229H77.7247V99.3022H76.962L76.6442 98.1709ZM79.5524 90.2266H80.7599V99.3022H79.5524V90.2266ZM82.791 90.2266H89.0575V91.2435H83.9985V94.1288H88.7143V95.1457H83.9985V98.2853H89.0956V99.3022H82.791V90.2266ZM95.8111 92.8832C95.7433 92.2307 95.5061 91.7604 95.0993 91.4723C94.701 91.1757 94.1884 91.0274 93.5613 91.0274C93.3071 91.0274 93.0571 91.0528 92.8114 91.1036C92.5656 91.1545 92.3453 91.2392 92.1504 91.3579C91.964 91.4765 91.8114 91.6375 91.6928 91.8409C91.5826 92.0358 91.5276 92.2815 91.5276 92.5781C91.5276 92.8577 91.6081 93.0865 91.7691 93.2645C91.9385 93.434 92.1589 93.5738 92.43 93.684C92.7097 93.7941 93.0232 93.8873 93.3706 93.9636C93.7181 94.0314 94.0697 94.1077 94.4256 94.1924C94.79 94.2771 95.1459 94.3788 95.4934 94.4975C95.8408 94.6076 96.1501 94.7601 96.4213 94.955C96.7009 95.1499 96.9212 95.3957 97.0822 95.6923C97.2517 95.9889 97.3364 96.3617 97.3364 96.8108C97.3364 97.2939 97.2263 97.7091 97.006 98.0565C96.7941 98.3955 96.5187 98.6751 96.1798 98.8954C95.8408 99.1073 95.4595 99.2598 95.0358 99.353C94.6205 99.4547 94.2053 99.5056 93.7901 99.5056C93.2817 99.5056 92.7986 99.442 92.3411 99.3149C91.8919 99.1878 91.4937 98.9971 91.1462 98.7429C90.8073 98.4802 90.5361 98.1497 90.3327 97.7515C90.1378 97.3447 90.0404 96.8659 90.0404 96.3151H91.1844C91.1844 96.6964 91.2564 97.0269 91.4004 97.3066C91.553 97.5777 91.7479 97.8023 91.9851 97.9802C92.2309 98.1582 92.5148 98.2895 92.8368 98.3743C93.1588 98.459 93.4893 98.5014 93.8282 98.5014C94.0994 98.5014 94.3706 98.476 94.6417 98.4251C94.9214 98.3743 95.1714 98.2895 95.3917 98.1709C95.612 98.0438 95.7899 97.8743 95.9255 97.6625C96.0611 97.4506 96.1289 97.1795 96.1289 96.849C96.1289 96.5354 96.0442 96.2812 95.8747 96.0863C95.7137 95.8914 95.4934 95.7347 95.2137 95.616C94.9426 95.4889 94.6333 95.3872 94.2858 95.311C93.9384 95.2347 93.5825 95.1584 93.2181 95.0822C92.8622 94.9974 92.5105 94.9042 92.1631 94.8025C91.8157 94.6924 91.5021 94.5525 91.2225 94.3831C90.9513 94.2051 90.731 93.9805 90.5615 93.7094C90.4005 93.4297 90.32 93.0823 90.32 92.6671C90.32 92.2095 90.4132 91.8154 90.5997 91.485C90.7861 91.146 91.0318 90.8706 91.3369 90.6588C91.6504 90.4384 92.0021 90.2774 92.3919 90.1757C92.7902 90.0656 93.1969 90.0105 93.6121 90.0105C94.0782 90.0105 94.5104 90.0656 94.9087 90.1757C95.3069 90.2859 95.6544 90.4596 95.951 90.6969C96.256 90.9342 96.4933 91.235 96.6628 91.5994C96.8407 91.9553 96.9382 92.3832 96.9551 92.8832H95.8111Z" fill="white"/>
</g>
<defs>
<clipPath id="clip0_10642_78998">
<rect width="98.5996" height="100.229" fill="white"/>
</clipPath>
</defs>
</svg>
