<svg width="71" height="71" viewBox="0 0 71 71" fill="none" xmlns="http://www.w3.org/2000/svg">
<g clip-path="url(#clip0_10582_73936)">
<path d="M35.3362 70.6681L34.5487 70.3618C25.7552 67.0481 18.1846 61.1257 12.8518 53.3883C7.51886 45.6509 4.67845 36.4683 4.71122 27.0712V12.5681L35.3362 0.799316L65.9612 12.5681V27.0712C65.9895 36.4646 63.147 45.6424 57.8144 53.3754C52.4818 61.1085 44.9137 67.0275 36.1237 70.3399L35.3362 70.6681ZM9.08622 15.5868V27.0712C9.06334 35.4347 11.5536 43.6122 16.2342 50.5434C20.9148 57.4745 27.5698 62.8396 35.3362 65.9431C43.1027 62.8396 49.7576 57.4745 54.4382 50.5434C59.1188 43.6122 61.6091 35.4347 61.5862 27.0712V15.5868L35.3362 5.48057L9.08622 15.5868Z" fill="#009028"/>
<path d="M24.3985 39.6711H28.7735V50.9805H24.3985V39.6711ZM28.7735 22.9367V15.9805H24.3985V22.9367C22.9389 23.4527 21.7088 24.4681 20.9255 25.8034C20.1422 27.1387 19.8562 28.7079 20.118 30.2336C20.3797 31.7594 21.1725 33.1435 22.3561 34.1413C23.5397 35.1391 25.0379 35.6864 26.586 35.6864C28.134 35.6864 29.6322 35.1391 30.8158 34.1413C31.9994 33.1435 32.7922 31.7594 33.0539 30.2336C33.3157 28.7079 33.0297 27.1387 32.2464 25.8034C31.4631 24.4681 30.233 23.4527 28.7735 22.9367ZM26.586 31.293C26.0058 31.293 25.4494 31.0625 25.0392 30.6523C24.6289 30.242 24.3985 29.6856 24.3985 29.1055C24.3985 28.5253 24.6289 27.9689 25.0392 27.5587C25.4494 27.1484 26.0058 26.918 26.586 26.918C27.1661 26.918 27.7225 27.1484 28.1327 27.5587C28.543 27.9689 28.7735 28.5253 28.7735 29.1055C28.7735 29.6856 28.543 30.242 28.1327 30.6523C27.7225 31.0625 27.1661 31.293 26.586 31.293ZM41.8985 15.9805H46.2735V27.2898H41.8985V15.9805ZM50.6485 37.8555C50.6518 36.6516 50.324 35.47 49.7008 34.4399C49.0776 33.4099 48.183 32.5711 47.115 32.0154C46.0471 31.4597 44.8468 31.2085 43.6456 31.2893C42.4444 31.3701 41.2886 31.7798 40.3047 32.4735C39.3207 33.1672 38.5465 34.1181 38.0669 35.2224C37.5872 36.3266 37.4205 37.5415 37.5851 38.7341C37.7496 39.9267 38.2391 41.051 38.9999 41.9841C39.7606 42.9171 40.7634 43.6229 41.8985 44.0242V50.9805H46.2735V44.0242C47.55 43.5729 48.6556 42.7378 49.4389 41.6334C50.2222 40.529 50.6446 39.2094 50.6485 37.8555ZM44.086 40.043C43.5058 40.043 42.9494 39.8125 42.5392 39.4023C42.1289 38.992 41.8985 38.4356 41.8985 37.8555C41.8985 37.2753 42.1289 36.7189 42.5392 36.3087C42.9494 35.8984 43.5058 35.668 44.086 35.668C44.6661 35.668 45.2225 35.8984 45.6327 36.3087C46.043 36.7189 46.2735 37.2753 46.2735 37.8555C46.2735 38.4356 46.043 38.992 45.6327 39.4023C45.2225 39.8125 44.6661 40.043 44.086 40.043Z" fill="#009028"/>
</g>
<defs>
<clipPath id="clip0_10582_73936">
<rect width="70" height="70" fill="white" transform="translate(0.710938 0.667969)"/>
</clipPath>
</defs>
</svg>
