<svg width="301" height="301" viewBox="0 0 301 301" fill="none" xmlns="http://www.w3.org/2000/svg">
<g clip-path="url(#clip0_10642_78888)">
<path d="M177.847 134.211C177.847 144.427 176.056 153.588 172.457 161.729C171.902 162.985 170.767 163.768 169.397 163.842C168.026 163.915 166.814 163.256 166.128 162.067L156.438 145.26C156.021 144.537 155.878 143.791 156 142.965C156.408 140.196 156.614 137.279 156.614 134.211C156.614 125.961 155.165 118.845 152.32 112.835C149.475 106.826 145.47 102.188 140.28 98.8934C135.117 95.5996 128.978 93.9653 121.866 93.9653C114.779 93.9653 108.641 95.5996 103.424 98.8934C98.208 102.188 94.1777 106.826 91.3334 112.835C88.4879 118.845 87.0649 125.961 87.0649 134.211C87.0649 142.408 88.4879 149.55 91.3334 155.612C94.1777 161.673 98.2086 166.338 103.424 169.633C108.641 172.928 114.779 174.561 121.866 174.561C124.638 174.561 127.262 174.309 129.738 173.804C131.258 173.494 132.741 174.16 133.52 175.501L140.043 186.735C140.617 187.722 140.691 188.816 140.257 189.872C139.823 190.928 139.002 191.653 137.901 191.952C132.842 193.325 127.421 194.012 121.629 194.012C110.642 194.012 100.948 191.482 92.5435 186.422C84.1136 181.361 77.5535 174.35 72.8651 165.389C68.1497 156.428 65.8047 146.071 65.8047 134.315C65.8047 122.561 68.1756 112.176 72.9445 103.189C77.6864 94.2018 84.2717 87.1647 92.6758 82.1042C101.053 77.0438 110.748 74.5142 121.76 74.5142C132.852 74.5142 142.598 77.0438 151.002 82.1042C159.379 87.1647 165.967 94.1759 170.708 103.137C175.476 112.098 177.847 122.456 177.847 134.211Z" fill="white"/>
<path fill-rule="evenodd" clip-rule="evenodd" d="M128.26 159.511L128.218 159.694C127.785 161.59 125.899 162.789 124 162.377L114.507 160.317C113.543 160.108 112.789 159.582 112.26 158.75C111.731 157.918 111.576 157.012 111.796 156.05L117.868 129.478L118.085 129.526L117.924 129.249H135.495C136.816 129.249 137.948 129.913 138.594 131.065L170.471 187.902C171.197 189.197 172.567 189.882 174.038 189.687C175.51 189.491 176.653 188.473 177.016 187.032L197.38 106.332C197.783 104.733 199.176 103.647 200.826 103.647H214.922C216.691 103.647 218.168 104.916 218.435 106.665L235.033 215.15C235.195 216.211 234.916 217.189 234.216 218.003C233.518 218.818 232.593 219.243 231.52 219.243H219.104C217.317 219.243 215.828 217.943 215.583 216.173L208.379 163.838C208.145 162.131 206.762 160.861 205.042 160.772C203.321 160.684 201.816 161.804 201.406 163.479L188.429 216.533C188.035 218.144 186.635 219.244 184.977 219.244H171.187C169.871 219.244 168.741 218.584 168.093 217.438L134.818 158.555C134.082 157.251 132.692 156.57 131.211 156.786C129.73 157.003 128.594 158.053 128.26 159.512L128.26 159.511Z" fill="white"/>
<path d="M16.9155 162.211H14.3768V161.358H20.4675V162.211H17.9288V168.974H16.9155V162.211Z" fill="white"/>
<path d="M13.914 151.608H19.1727V152.462H14.9274V154.883H18.8847V155.736H14.9274V158.371H19.2047V159.224H13.914V151.608Z" fill="white"/>
<path d="M18.3898 143.48C18.276 142.94 18.0236 142.534 17.6324 142.264C17.2484 141.994 16.7898 141.859 16.2565 141.859C15.8013 141.859 15.4102 141.944 15.0831 142.115C14.7631 142.285 14.4965 142.517 14.2831 142.808C14.0769 143.093 13.924 143.42 13.8245 143.789C13.7249 144.159 13.6751 144.543 13.6751 144.941C13.6751 145.375 13.7249 145.788 13.8245 146.179C13.924 146.563 14.0769 146.901 14.2831 147.192C14.4965 147.477 14.7667 147.704 15.0938 147.875C15.4209 148.045 15.812 148.131 16.2671 148.131C16.6013 148.131 16.8964 148.077 17.1524 147.971C17.4156 147.857 17.6396 147.704 17.8244 147.512C18.0164 147.313 18.1658 147.078 18.2724 146.808C18.3791 146.538 18.4431 146.246 18.4644 145.933H19.4778C19.3782 146.893 19.0476 147.64 18.4858 148.173C17.924 148.707 17.156 148.973 16.1818 148.973C15.5916 148.973 15.076 148.874 14.6351 148.675C14.1942 148.469 13.828 148.188 13.5365 147.832C13.2449 147.477 13.0245 147.057 12.8751 146.573C12.7329 146.09 12.6618 145.571 12.6618 145.016C12.6618 144.461 12.74 143.942 12.8965 143.459C13.0529 142.968 13.2805 142.541 13.5791 142.179C13.8849 141.816 14.2618 141.532 14.7098 141.325C15.1649 141.112 15.684 141.005 16.2671 141.005C16.6653 141.005 17.0422 141.059 17.3978 141.165C17.7533 141.272 18.0698 141.429 18.3471 141.635C18.6244 141.841 18.8556 142.101 19.0404 142.413C19.2253 142.719 19.3462 143.075 19.4031 143.48H18.3898Z" fill="white"/>
<path d="M13.3632 129.222H14.3766V132.496H18.3872V129.222H19.4006V136.838H18.3872V133.35H14.3766V136.838H13.3632V129.222Z" fill="white"/>
<path d="M14.4502 117.301H15.5276L19.5382 123.477H19.5596V117.301H20.5196V124.917H19.4102L15.4316 118.805H15.4102V124.917H14.4502V117.301Z" fill="white"/>
<path d="M17.1648 109.319C17.1648 109.703 17.2145 110.083 17.3141 110.46C17.4136 110.83 17.5701 111.164 17.7834 111.463C17.9968 111.761 18.2705 112.003 18.6048 112.188C18.939 112.366 19.3372 112.455 19.7994 112.455C20.2616 112.455 20.6599 112.366 20.9941 112.188C21.3283 112.003 21.6021 111.761 21.8154 111.463C22.0287 111.164 22.1852 110.83 22.2847 110.46C22.3843 110.083 22.4341 109.703 22.4341 109.319C22.4341 108.935 22.3843 108.558 22.2847 108.188C22.1852 107.811 22.0287 107.473 21.8154 107.175C21.6021 106.876 21.3283 106.638 20.9941 106.46C20.6599 106.275 20.2616 106.183 19.7994 106.183C19.3372 106.183 18.939 106.275 18.6048 106.46C18.2705 106.638 17.9968 106.876 17.7834 107.175C17.5701 107.473 17.4136 107.811 17.3141 108.188C17.2145 108.558 17.1648 108.935 17.1648 109.319ZM16.1514 109.319C16.1514 108.8 16.2261 108.302 16.3754 107.825C16.5319 107.342 16.763 106.915 17.0688 106.545C17.3745 106.176 17.755 105.881 18.2101 105.66C18.6652 105.44 19.195 105.329 19.7994 105.329C20.4039 105.329 20.9336 105.44 21.3887 105.66C21.8439 105.881 22.2243 106.176 22.5301 106.545C22.8359 106.915 23.0634 107.342 23.2127 107.825C23.3692 108.302 23.4474 108.8 23.4474 109.319C23.4474 109.838 23.3692 110.339 23.2127 110.823C23.0634 111.299 22.8359 111.722 22.5301 112.092C22.2243 112.462 21.8439 112.757 21.3887 112.977C20.9336 113.191 20.4039 113.297 19.7994 113.297C19.195 113.297 18.6652 113.191 18.2101 112.977C17.755 112.757 17.3745 112.462 17.0688 112.092C16.763 111.722 16.5319 111.299 16.3754 110.823C16.2261 110.339 16.1514 109.838 16.1514 109.319Z" fill="white"/>
<path d="M19.9336 93.3525H20.9469V100.115H24.9789V100.969H19.9336V93.3525Z" fill="white"/>
<path d="M23.9382 88.2779C23.9382 88.6619 23.988 89.0424 24.0875 89.4193C24.1871 89.7891 24.3435 90.1233 24.5569 90.4219C24.7702 90.7206 25.044 90.9624 25.3782 91.1473C25.7124 91.3251 26.1106 91.4139 26.5729 91.4139C27.0351 91.4139 27.4333 91.3251 27.7675 91.1473C28.1017 90.9624 28.3755 90.7206 28.5889 90.4219C28.8022 90.1233 28.9586 89.7891 29.0582 89.4193C29.1577 89.0424 29.2075 88.6619 29.2075 88.2779C29.2075 87.8939 29.1577 87.5171 29.0582 87.1473C28.9586 86.7704 28.8022 86.4326 28.5889 86.1339C28.3755 85.8353 28.1017 85.5971 27.7675 85.4193C27.4333 85.2344 27.0351 85.142 26.5729 85.142C26.1106 85.142 25.7124 85.2344 25.3782 85.4193C25.044 85.5971 24.7702 85.8353 24.5569 86.1339C24.3435 86.4326 24.1871 86.7704 24.0875 87.1473C23.988 87.5171 23.9382 87.8939 23.9382 88.2779ZM22.9249 88.2779C22.9249 87.7588 22.9995 87.2611 23.1489 86.7846C23.3053 86.3011 23.5364 85.8744 23.8422 85.5046C24.148 85.1348 24.5284 84.8397 24.9835 84.6193C25.4386 84.3988 25.9684 84.2886 26.5729 84.2886C27.1773 84.2886 27.7071 84.3988 28.1622 84.6193C28.6173 84.8397 28.9977 85.1348 29.3035 85.5046C29.6093 85.8744 29.8368 86.3011 29.9862 86.7846C30.1426 87.2611 30.2208 87.7588 30.2208 88.2779C30.2208 88.7971 30.1426 89.2984 29.9862 89.7819C29.8368 90.2584 29.6093 90.6815 29.3035 91.0513C28.9977 91.421 28.6173 91.7162 28.1622 91.9366C27.7071 92.1499 27.1773 92.2566 26.5729 92.2566C25.9684 92.2566 25.4386 92.1499 24.9835 91.9366C24.5284 91.7162 24.148 91.421 23.8422 91.0513C23.5364 90.6815 23.3053 90.2584 23.1489 89.7819C22.9995 89.2984 22.9249 88.7971 22.9249 88.2779Z" fill="white"/>
<path d="M34.3288 79.6926C34.0301 80.0909 33.6603 80.3789 33.2194 80.5566C32.7785 80.7273 32.3341 80.8126 31.8861 80.8126C31.3172 80.8126 30.8088 80.7095 30.3608 80.5033C29.9128 80.29 29.5323 80.0055 29.2194 79.65C28.9066 79.2944 28.6683 78.8855 28.5048 78.4233C28.3412 77.9611 28.2594 77.4811 28.2594 76.9833C28.2594 76.4286 28.3341 75.9024 28.4834 75.4046C28.6399 74.8998 28.8674 74.4589 29.1661 74.082C29.4719 73.7051 29.8488 73.4064 30.2968 73.186C30.7519 72.9584 31.2817 72.8447 31.8861 72.8447C32.2985 72.8447 32.6861 72.8944 33.0488 72.994C33.4185 73.0864 33.7457 73.2358 34.0301 73.442C34.3217 73.6482 34.5634 73.9113 34.7554 74.2313C34.9545 74.5442 35.0897 74.9246 35.1608 75.3726H34.1474C34.0977 75.0811 34.0052 74.8322 33.8701 74.626C33.735 74.4126 33.5679 74.2384 33.3688 74.1033C33.1697 73.9682 32.9421 73.8686 32.6861 73.8046C32.4372 73.7335 32.1705 73.698 31.8861 73.698C31.4239 73.698 31.0257 73.7904 30.6914 73.9753C30.3643 74.1602 30.0941 74.4055 29.8808 74.7113C29.6746 75.01 29.5217 75.3549 29.4221 75.746C29.3226 76.13 29.2728 76.5246 29.2728 76.93C29.2728 77.3282 29.3297 77.7122 29.4434 78.082C29.5572 78.4446 29.7243 78.7682 29.9448 79.0526C30.1652 79.33 30.4354 79.554 30.7554 79.7246C31.0826 79.8882 31.4594 79.97 31.8861 79.97C32.2843 79.97 32.6363 79.906 32.9421 79.778C33.2479 79.65 33.5039 79.4757 33.7101 79.2553C33.9234 79.0277 34.0834 78.7646 34.1901 78.466C34.2968 78.1602 34.343 77.8331 34.3288 77.4846H31.8968V76.6313H35.2354V80.642H34.5954L34.3288 79.6926Z" fill="white"/>
<path d="M35.0934 62.2074H36.1067V69.8234H35.0934V62.2074Z" fill="white"/>
<path d="M37.4023 58.2218H42.661V59.0751H38.4156V61.4964H42.373V62.3498H38.4156V64.9844H42.693V65.8378H37.4023V58.2218Z" fill="white"/>
<path d="M48.21 52.198C48.1531 51.6504 47.954 51.2558 47.6126 51.014C47.2784 50.7651 46.8482 50.6407 46.322 50.6407C46.1086 50.6407 45.8989 50.662 45.6927 50.7047C45.4864 50.7473 45.3015 50.8184 45.138 50.918C44.9815 51.0176 44.8535 51.1527 44.754 51.3233C44.6615 51.4869 44.6153 51.6931 44.6153 51.942C44.6153 52.1767 44.6829 52.3687 44.818 52.518C44.9602 52.6602 45.1451 52.7776 45.3727 52.87C45.6073 52.9624 45.8704 53.0407 46.162 53.1047C46.4535 53.1616 46.7486 53.2256 47.0473 53.2967C47.3531 53.3678 47.6518 53.4531 47.9433 53.5527C48.2349 53.6451 48.4944 53.7731 48.722 53.9367C48.9566 54.1002 49.1415 54.3064 49.2766 54.5553C49.4189 54.8042 49.49 55.1171 49.49 55.494C49.49 55.8993 49.3975 56.2478 49.2126 56.5393C49.0349 56.8238 48.8038 57.0584 48.5193 57.2433C48.2349 57.4211 47.9149 57.5491 47.5593 57.6273C47.2109 57.7127 46.8624 57.7553 46.514 57.7553C46.0873 57.7553 45.682 57.702 45.298 57.5953C44.9211 57.4887 44.5869 57.3287 44.2953 57.1153C44.0109 56.8949 43.7833 56.6175 43.6127 56.2833C43.4491 55.942 43.3673 55.5402 43.3673 55.078H44.3273C44.3273 55.398 44.3878 55.6753 44.5087 55.91C44.6367 56.1375 44.8002 56.326 44.9993 56.4753C45.2055 56.6247 45.4438 56.7349 45.714 56.806C45.9842 56.8771 46.2615 56.9127 46.546 56.9127C46.7735 56.9127 47.0011 56.8913 47.2286 56.8487C47.4633 56.806 47.6731 56.7349 47.858 56.6353C48.0429 56.5287 48.1922 56.3864 48.306 56.2087C48.4198 56.0309 48.4766 55.8033 48.4766 55.526C48.4766 55.2629 48.4055 55.0495 48.2633 54.886C48.1282 54.7224 47.9433 54.5909 47.7086 54.4913C47.4811 54.3847 47.2215 54.2993 46.93 54.2353C46.6384 54.1713 46.3398 54.1073 46.034 54.0433C45.7353 53.9722 45.4402 53.894 45.1487 53.8087C44.8571 53.7162 44.594 53.5989 44.3593 53.4567C44.1318 53.3073 43.9469 53.1189 43.8047 52.8913C43.6695 52.6567 43.602 52.3651 43.602 52.0167C43.602 51.6327 43.6802 51.302 43.8367 51.0247C43.9931 50.7402 44.1993 50.5091 44.4553 50.3313C44.7184 50.1464 45.0135 50.0113 45.3407 49.926C45.6749 49.8336 46.0162 49.7873 46.3646 49.7873C46.7558 49.7873 47.1184 49.8336 47.4526 49.926C47.7869 50.0184 48.0784 50.1642 48.3273 50.3633C48.5833 50.5624 48.7824 50.8149 48.9246 51.1207C49.074 51.4193 49.1558 51.7784 49.17 52.198H48.21Z" fill="white"/>
<path d="M54.1445 38.6311H55.1578V45.3938H59.1898V46.2471H54.1445V38.6311Z" fill="white"/>
<path d="M61.1911 32.1947H62.2044V39.8107H61.1911V32.1947Z" fill="white"/>
<path d="M64.5604 29.0509H65.947L68.347 35.4509L70.7577 29.0509H72.1443V36.6669H71.1843V30.3309H71.163L68.7844 36.6669H67.9204L65.5417 30.3309H65.5204V36.6669H64.5604V29.0509Z" fill="white"/>
<path d="M76.6754 20.6349H77.6888V28.2509H76.6754V20.6349Z" fill="white"/>
<path d="M82.267 19.0473H79.7284V18.194H85.819V19.0473H83.2804V25.81H82.267V19.0473Z" fill="white"/>
<path d="M89.1054 13.3695H94.3641V14.2228H90.1188V16.6441H94.0761V17.4975H90.1188V20.1321H94.3961V20.9855H89.1054V13.3695Z" fill="white"/>
<path d="M99.568 15.6406H101.253C101.367 15.6406 101.509 15.6335 101.68 15.6192C101.851 15.5979 102.032 15.5552 102.224 15.4912C102.416 15.4201 102.604 15.3206 102.789 15.1926C102.981 15.0646 103.152 14.8903 103.301 14.6699C103.451 14.4495 103.572 14.1757 103.664 13.8486C103.764 13.5143 103.813 13.1126 103.813 12.6432C103.813 12.1881 103.767 11.7828 103.675 11.4272C103.589 11.0646 103.444 10.7588 103.237 10.5099C103.038 10.2539 102.779 10.0619 102.459 9.93391C102.139 9.7988 101.744 9.73124 101.275 9.73124H99.568V15.6406ZM98.5547 8.87791H101.168C102.341 8.87791 103.244 9.17658 103.877 9.77391C104.51 10.3712 104.827 11.2815 104.827 12.5046C104.827 13.1446 104.756 13.7135 104.613 14.2112C104.471 14.7019 104.251 15.1179 103.952 15.4592C103.653 15.7935 103.273 16.0495 102.811 16.2272C102.348 16.405 101.801 16.4939 101.168 16.4939H98.5547V8.87791Z" fill="white"/>
<path d="M124.994 2.43467H122.455V1.58134H128.546V2.43467H126.007V9.19733H124.994V2.43467Z" fill="white"/>
<path d="M132.941 -0.207598H138.2V0.645734H133.955V3.06706H137.912V3.92039H133.955V6.55505H138.232V7.40839H132.941V-0.207598Z" fill="white"/>
<path d="M148.706 1.26096C148.592 0.720519 148.34 0.315187 147.949 0.044965C147.565 -0.225257 147.106 -0.360367 146.573 -0.360367C146.118 -0.360367 145.727 -0.275034 145.4 -0.104368C145.08 0.0662982 144.813 0.297409 144.6 0.588964C144.393 0.873408 144.24 1.20052 144.141 1.5703C144.041 1.94007 143.992 2.32407 143.992 2.72229C143.992 3.15607 144.041 3.56851 144.141 3.95962C144.24 4.34362 144.393 4.6814 144.6 4.97295C144.813 5.2574 145.083 5.48495 145.41 5.65562C145.737 5.82629 146.128 5.91162 146.584 5.91162C146.918 5.91162 147.213 5.85829 147.469 5.75162C147.732 5.63784 147.956 5.48495 148.141 5.29295C148.333 5.09384 148.482 4.85918 148.589 4.58896C148.696 4.31873 148.76 4.02718 148.781 3.71429H149.794C149.695 4.67429 149.364 5.42095 148.802 5.95429C148.24 6.48762 147.472 6.75428 146.498 6.75428C145.908 6.75428 145.392 6.65473 144.952 6.45562C144.511 6.2494 144.144 5.96851 143.853 5.61295C143.561 5.2574 143.341 4.83784 143.192 4.35429C143.049 3.87073 142.978 3.35162 142.978 2.79696C142.978 2.24229 143.056 1.72318 143.213 1.23963C143.369 0.748963 143.597 0.322298 143.896 -0.0403684C144.201 -0.403034 144.578 -0.687478 145.026 -0.8937C145.481 -1.10703 146 -1.2137 146.584 -1.2137C146.982 -1.2137 147.359 -1.16037 147.714 -1.0537C148.07 -0.947033 148.386 -0.790589 148.664 -0.584367C148.941 -0.378145 149.172 -0.11859 149.357 0.194298C149.542 0.500075 149.663 0.85563 149.72 1.26096H148.706Z" fill="white"/>
<path d="M155.316 -1.26833H156.33V2.00633H160.34V-1.26833H161.354V6.34766H160.34V2.85966H156.33V6.34766H155.316V-1.26833Z" fill="white"/>
<path d="M167.267 -0.502947H168.344L172.355 5.67304H172.376V-0.502947H173.336V7.11304H172.227L168.248 1.00105H168.227V7.11304H167.267V-0.502947Z" fill="white"/>
<path d="M179.641 5.41698C179.641 5.80098 179.691 6.18143 179.791 6.55831C179.89 6.92809 180.047 7.26231 180.26 7.56098C180.473 7.85965 180.747 8.10142 181.081 8.28631C181.416 8.46409 181.814 8.55298 182.276 8.55298C182.738 8.55298 183.136 8.46409 183.471 8.28631C183.805 8.10142 184.079 7.85965 184.292 7.56098C184.505 7.26231 184.662 6.92809 184.761 6.55831C184.861 6.18143 184.911 5.80098 184.911 5.41698C184.911 5.03298 184.861 4.6561 184.761 4.28632C184.662 3.90943 184.505 3.57165 184.292 3.27299C184.079 2.97432 183.805 2.7361 183.471 2.55832C183.136 2.37343 182.738 2.28099 182.276 2.28099C181.814 2.28099 181.416 2.37343 181.081 2.55832C180.747 2.7361 180.473 2.97432 180.26 3.27299C180.047 3.57165 179.89 3.90943 179.791 4.28632C179.691 4.6561 179.641 5.03298 179.641 5.41698ZM178.628 5.41698C178.628 4.89787 178.703 4.4001 178.852 3.92365C179.008 3.4401 179.24 3.01343 179.545 2.64366C179.851 2.27388 180.232 1.97877 180.687 1.75832C181.142 1.53788 181.672 1.42766 182.276 1.42766C182.88 1.42766 183.41 1.53788 183.865 1.75832C184.32 1.97877 184.701 2.27388 185.007 2.64366C185.312 3.01343 185.54 3.4401 185.689 3.92365C185.846 4.4001 185.924 4.89787 185.924 5.41698C185.924 5.93609 185.846 6.43743 185.689 6.92098C185.54 7.39742 185.312 7.82053 185.007 8.19031C184.701 8.56009 184.32 8.8552 183.865 9.07564C183.41 9.28898 182.88 9.39564 182.276 9.39564C181.672 9.39564 181.142 9.28898 180.687 9.07564C180.232 8.8552 179.851 8.56009 179.545 8.19031C179.24 7.82053 179.008 7.39742 178.852 6.92098C178.703 6.43743 178.628 5.93609 178.628 5.41698Z" fill="white"/>
<path d="M191.266 4.684H192.279V11.4467H196.311V12.3H191.266V4.684Z" fill="white"/>
<path d="M200.926 11.4064C200.926 11.7904 200.976 12.1708 201.076 12.5477C201.175 12.9175 201.332 13.2517 201.545 13.5504C201.758 13.849 202.032 14.0908 202.366 14.2757C202.701 14.4535 203.099 14.5424 203.561 14.5424C204.023 14.5424 204.422 14.4535 204.756 14.2757C205.09 14.0908 205.364 13.849 205.577 13.5504C205.79 13.2517 205.947 12.9175 206.046 12.5477C206.146 12.1708 206.196 11.7904 206.196 11.4064C206.196 11.0224 206.146 10.6455 206.046 10.2757C205.947 9.89881 205.79 9.56103 205.577 9.26237C205.364 8.9637 205.09 8.72548 204.756 8.5477C204.422 8.36281 204.023 8.27037 203.561 8.27037C203.099 8.27037 202.701 8.36281 202.366 8.5477C202.032 8.72548 201.758 8.9637 201.545 9.26237C201.332 9.56103 201.175 9.89881 201.076 10.2757C200.976 10.6455 200.926 11.0224 200.926 11.4064ZM199.913 11.4064C199.913 10.8873 199.988 10.3895 200.137 9.91303C200.294 9.42948 200.525 9.00281 200.83 8.63304C201.136 8.26326 201.517 7.96815 201.972 7.7477C202.427 7.52726 202.957 7.41704 203.561 7.41704C204.166 7.41704 204.695 7.52726 205.15 7.7477C205.606 7.96815 205.986 8.26326 206.292 8.63304C206.598 9.00281 206.825 9.42948 206.974 9.91303C207.131 10.3895 207.209 10.8873 207.209 11.4064C207.209 11.9255 207.131 12.4268 206.974 12.9104C206.825 13.3868 206.598 13.8099 206.292 14.1797C205.986 14.5495 205.606 14.8446 205.15 15.065C204.695 15.2784 204.166 15.385 203.561 15.385C202.957 15.385 202.427 15.2784 201.972 15.065C201.517 14.8446 201.136 14.5495 200.83 14.1797C200.525 13.8099 200.294 13.3868 200.137 12.9104C199.988 12.4268 199.913 11.9255 199.913 11.4064Z" fill="white"/>
<path d="M217.622 19.2572C217.323 19.6554 216.953 19.9434 216.512 20.1212C216.072 20.2919 215.627 20.3772 215.179 20.3772C214.61 20.3772 214.102 20.2741 213.654 20.0679C213.206 19.8545 212.825 19.5701 212.512 19.2145C212.2 18.859 211.961 18.4501 211.798 17.9879C211.634 17.5257 211.552 17.0457 211.552 16.5479C211.552 15.9932 211.627 15.467 211.776 14.9692C211.933 14.4643 212.16 14.0234 212.459 13.6466C212.765 13.2697 213.142 12.971 213.59 12.7506C214.045 12.523 214.575 12.4092 215.179 12.4092C215.592 12.4092 215.979 12.459 216.342 12.5586C216.712 12.651 217.039 12.8003 217.323 13.0066C217.615 13.2128 217.856 13.4759 218.048 13.7959C218.248 14.1088 218.383 14.4892 218.454 14.9372H217.44C217.391 14.6457 217.298 14.3968 217.163 14.1906C217.028 13.9772 216.861 13.803 216.662 13.6679C216.463 13.5328 216.235 13.4332 215.979 13.3692C215.73 13.2981 215.464 13.2626 215.179 13.2626C214.717 13.2626 214.319 13.355 213.984 13.5399C213.657 13.7248 213.387 13.9701 213.174 14.2759C212.968 14.5746 212.815 14.9194 212.715 15.3106C212.616 15.6946 212.566 16.0892 212.566 16.4946C212.566 16.8928 212.623 17.2768 212.736 17.6465C212.85 18.0092 213.017 18.3328 213.238 18.6172C213.458 18.8945 213.728 19.1185 214.048 19.2892C214.376 19.4528 214.752 19.5345 215.179 19.5345C215.577 19.5345 215.929 19.4705 216.235 19.3425C216.541 19.2145 216.797 19.0403 217.003 18.8199C217.216 18.5923 217.376 18.3292 217.483 18.0305C217.59 17.7248 217.636 17.3977 217.622 17.0492H215.19V16.1959H218.528V20.2065H217.888L217.622 19.2572Z" fill="white"/>
<path d="M222.867 18.8717H223.88V26.4877H222.867V18.8717Z" fill="white"/>
<path d="M226.754 21.2867H232.013V22.14H227.767V24.5613H231.725V25.4147H227.767V28.0493H232.045V28.9026H226.754V21.2867Z" fill="white"/>
<path d="M239.749 29.4747C239.692 28.9272 239.493 28.5325 239.152 28.2907C238.817 28.0418 238.387 27.9174 237.861 27.9174C237.648 27.9174 237.438 27.9387 237.232 27.9814C237.025 28.0241 236.841 28.0952 236.677 28.1947C236.521 28.2943 236.393 28.4294 236.293 28.6001C236.201 28.7636 236.154 28.9698 236.154 29.2187C236.154 29.4534 236.222 29.6454 236.357 29.7947C236.499 29.937 236.684 30.0543 236.912 30.1467C237.146 30.2392 237.409 30.3174 237.701 30.3814C237.993 30.4383 238.288 30.5023 238.586 30.5734C238.892 30.6445 239.191 30.7298 239.482 30.8294C239.774 30.9218 240.033 31.0498 240.261 31.2134C240.496 31.377 240.681 31.5832 240.816 31.8321C240.958 32.081 241.029 32.3938 241.029 32.7707C241.029 33.1761 240.937 33.5245 240.752 33.8161C240.574 34.1005 240.343 34.3352 240.058 34.5201C239.774 34.6978 239.454 34.8258 239.098 34.9041C238.75 34.9894 238.401 35.0321 238.053 35.0321C237.626 35.0321 237.221 34.9787 236.837 34.8721C236.46 34.7654 236.126 34.6054 235.834 34.3921C235.55 34.1716 235.322 33.8943 235.152 33.5601C234.988 33.2187 234.906 32.8169 234.906 32.3547H235.866C235.866 32.6747 235.927 32.9521 236.048 33.1867C236.176 33.4143 236.339 33.6027 236.538 33.7521C236.745 33.9014 236.983 34.0116 237.253 34.0827C237.523 34.1538 237.801 34.1894 238.085 34.1894C238.313 34.1894 238.54 34.1681 238.768 34.1254C239.002 34.0827 239.212 34.0116 239.397 33.9121C239.582 33.8054 239.731 33.6632 239.845 33.4854C239.959 33.3076 240.016 33.0801 240.016 32.8027C240.016 32.5396 239.945 32.3263 239.802 32.1627C239.667 31.9992 239.482 31.8676 239.248 31.7681C239.02 31.6614 238.761 31.5761 238.469 31.5121C238.177 31.4481 237.879 31.3841 237.573 31.3201C237.274 31.249 236.979 31.1707 236.688 31.0854C236.396 30.993 236.133 30.8756 235.898 30.7334C235.671 30.5841 235.486 30.3956 235.344 30.1681C235.209 29.9334 235.141 29.6418 235.141 29.2934C235.141 28.9094 235.219 28.5787 235.376 28.3014C235.532 28.017 235.738 27.7858 235.994 27.6081C236.257 27.4232 236.553 27.2881 236.88 27.2027C237.214 27.1103 237.555 27.0641 237.904 27.0641C238.295 27.0641 238.657 27.1103 238.992 27.2027C239.326 27.2952 239.617 27.441 239.866 27.6401C240.122 27.8392 240.321 28.0916 240.464 28.3974C240.613 28.6961 240.695 29.0552 240.709 29.4747H239.749Z" fill="white"/>
<path d="M246.898 37.3558H247.912V44.1184H251.944V44.9717H246.898V37.3558Z" fill="white"/>
<path d="M253.492 44.2552H254.505V51.8712H253.492V44.2552Z" fill="white"/>
<path d="M256.549 47.6885H257.935L260.335 54.0884L262.746 47.6885H264.133V55.3044H263.173V48.9685H263.151L260.773 55.3044H259.909L257.53 48.9685H257.509V55.3044H256.549V47.6885Z" fill="white"/>
<path d="M265.433 59.4565H266.447V67.0725H265.433V59.4565Z" fill="white"/>
<path d="M269.697 64.1349H267.158V63.2816H273.249V64.1349H270.71V70.8976H269.697V64.1349Z" fill="white"/>
<path d="M272.832 71.8259H278.091V72.6792H273.845V75.1006H277.803V75.9539H273.845V78.5886H278.123V79.4419H272.832V71.8259Z" fill="white"/>
<path d="M278.49 87.9465H280.175C280.289 87.9465 280.431 87.9394 280.602 87.9251C280.773 87.9038 280.954 87.8611 281.146 87.7971C281.338 87.726 281.526 87.6265 281.711 87.4985C281.903 87.3705 282.074 87.1963 282.223 86.9758C282.373 86.7554 282.493 86.4816 282.586 86.1545C282.685 85.8203 282.735 85.4185 282.735 84.9491C282.735 84.494 282.689 84.0887 282.597 83.7331C282.511 83.3705 282.365 83.0647 282.159 82.8158C281.96 82.5598 281.701 82.3678 281.381 82.2398C281.061 82.1047 280.666 82.0372 280.197 82.0372H278.49V87.9465ZM277.477 81.1838H280.09C281.263 81.1838 282.166 81.4825 282.799 82.0798C283.432 82.6772 283.749 83.5874 283.749 84.8105C283.749 85.4505 283.677 86.0194 283.535 86.5171C283.393 87.0078 283.173 87.4238 282.874 87.7651C282.575 88.0994 282.195 88.3554 281.733 88.5331C281.27 88.7109 280.723 88.7998 280.09 88.7998H277.477V81.1838Z" fill="white"/>
<path d="M287.388 106.486H284.849V105.632H290.94V106.486H288.401V113.248H287.388V106.486Z" fill="white"/>
<path d="M287.41 115.308H292.669V116.161H288.423V118.583H292.381V119.436H288.423V122.071H292.701V122.924H287.41V115.308Z" fill="white"/>
<path d="M294.132 127.968C294.018 127.428 293.766 127.022 293.375 126.752C292.991 126.482 292.532 126.347 291.999 126.347C291.544 126.347 291.152 126.432 290.825 126.603C290.505 126.773 290.239 127.005 290.025 127.296C289.819 127.581 289.666 127.908 289.567 128.277C289.467 128.647 289.417 129.031 289.417 129.429C289.417 129.863 289.467 130.276 289.567 130.667C289.666 131.051 289.819 131.389 290.025 131.68C290.239 131.965 290.509 132.192 290.836 132.363C291.163 132.533 291.554 132.619 292.009 132.619C292.344 132.619 292.639 132.565 292.895 132.459C293.158 132.345 293.382 132.192 293.567 132C293.759 131.801 293.908 131.566 294.015 131.296C294.121 131.026 294.185 130.734 294.207 130.421H295.22C295.12 131.381 294.79 132.128 294.228 132.661C293.666 133.195 292.898 133.461 291.924 133.461C291.334 133.461 290.818 133.362 290.377 133.163C289.936 132.957 289.57 132.676 289.279 132.32C288.987 131.965 288.767 131.545 288.617 131.061C288.475 130.578 288.404 130.059 288.404 129.504C288.404 128.949 288.482 128.43 288.639 127.947C288.795 127.456 289.023 127.029 289.321 126.667C289.627 126.304 290.004 126.02 290.452 125.813C290.907 125.6 291.426 125.493 292.009 125.493C292.408 125.493 292.784 125.547 293.14 125.653C293.496 125.76 293.812 125.917 294.089 126.123C294.367 126.329 294.598 126.589 294.783 126.901C294.968 127.207 295.088 127.563 295.145 127.968H294.132Z" fill="white"/>
<path d="M289.035 137.641H290.048V140.916H294.059V137.641H295.072V145.257H294.059V141.769H290.048V145.257H289.035V137.641Z" fill="white"/>
<path d="M288.501 149.6H289.578L293.589 155.776H293.61V149.6H294.57V157.216H293.461L289.482 151.104H289.461V157.216H288.501V149.6Z" fill="white"/>
<path d="M287.559 165.287C287.559 165.671 287.609 166.052 287.709 166.429C287.808 166.798 287.965 167.133 288.178 167.431C288.391 167.73 288.665 167.972 288.999 168.157C289.334 168.334 289.732 168.423 290.194 168.423C290.656 168.423 291.054 168.334 291.389 168.157C291.723 167.972 291.997 167.73 292.21 167.431C292.423 167.133 292.58 166.798 292.679 166.429C292.779 166.052 292.829 165.671 292.829 165.287C292.829 164.903 292.779 164.526 292.679 164.157C292.58 163.78 292.423 163.442 292.21 163.143C291.997 162.845 291.723 162.606 291.389 162.429C291.054 162.244 290.656 162.151 290.194 162.151C289.732 162.151 289.334 162.244 288.999 162.429C288.665 162.606 288.391 162.845 288.178 163.143C287.965 163.442 287.808 163.78 287.709 164.157C287.609 164.526 287.559 164.903 287.559 165.287ZM286.546 165.287C286.546 164.768 286.621 164.27 286.77 163.794C286.926 163.31 287.158 162.884 287.463 162.514C287.769 162.144 288.15 161.849 288.605 161.629C289.06 161.408 289.59 161.298 290.194 161.298C290.798 161.298 291.328 161.408 291.783 161.629C292.238 161.849 292.619 162.144 292.925 162.514C293.23 162.884 293.458 163.31 293.607 163.794C293.764 164.27 293.842 164.768 293.842 165.287C293.842 165.806 293.764 166.308 293.607 166.791C293.458 167.268 293.23 167.691 292.925 168.061C292.619 168.43 292.238 168.725 291.783 168.946C291.328 169.159 290.798 169.266 290.194 169.266C289.59 169.266 289.06 169.159 288.605 168.946C288.15 168.725 287.769 168.43 287.463 168.061C287.158 167.691 286.926 167.268 286.77 166.791C286.621 166.308 286.546 165.806 286.546 165.287Z" fill="white"/>
<path d="M284.223 173.788H285.236V180.551H289.268V181.404H284.223V173.788Z" fill="white"/>
<path d="M281.829 186.636C281.829 187.02 281.879 187.401 281.978 187.778C282.078 188.147 282.234 188.482 282.447 188.78C282.661 189.079 282.935 189.321 283.269 189.506C283.603 189.683 284.001 189.772 284.463 189.772C284.926 189.772 285.324 189.683 285.658 189.506C285.992 189.321 286.266 189.079 286.479 188.78C286.693 188.482 286.849 188.147 286.949 187.778C287.048 187.401 287.098 187.02 287.098 186.636C287.098 186.252 287.048 185.875 286.949 185.506C286.849 185.129 286.693 184.791 286.479 184.492C286.266 184.194 285.992 183.955 285.658 183.778C285.324 183.593 284.926 183.5 284.463 183.5C284.001 183.5 283.603 183.593 283.269 183.778C282.935 183.955 282.661 184.194 282.447 184.492C282.234 184.791 282.078 185.129 281.978 185.506C281.879 185.875 281.829 186.252 281.829 186.636ZM280.815 186.636C280.815 186.117 280.89 185.619 281.039 185.143C281.196 184.659 281.427 184.233 281.733 183.863C282.039 183.493 282.419 183.198 282.874 182.978C283.329 182.757 283.859 182.647 284.463 182.647C285.068 182.647 285.598 182.757 286.053 182.978C286.508 183.198 286.888 183.493 287.194 183.863C287.5 184.233 287.727 184.659 287.877 185.143C288.033 185.619 288.111 186.117 288.111 186.636C288.111 187.155 288.033 187.657 287.877 188.14C287.727 188.617 287.5 189.04 287.194 189.41C286.888 189.779 286.508 190.074 286.053 190.295C285.598 190.508 285.068 190.615 284.463 190.615C283.859 190.615 283.329 190.508 282.874 190.295C282.419 190.074 282.039 189.779 281.733 189.41C281.427 189.04 281.196 188.617 281.039 188.14C280.89 187.657 280.815 187.155 280.815 186.636Z" fill="white"/>
<path d="M282.227 201.184C281.929 201.582 281.559 201.87 281.118 202.048C280.677 202.219 280.233 202.304 279.785 202.304C279.216 202.304 278.707 202.201 278.259 201.995C277.811 201.781 277.431 201.497 277.118 201.141C276.805 200.786 276.567 200.377 276.403 199.915C276.24 199.453 276.158 198.973 276.158 198.475C276.158 197.92 276.233 197.394 276.382 196.896C276.538 196.391 276.766 195.95 277.065 195.573C277.37 195.197 277.747 194.898 278.195 194.677C278.65 194.45 279.18 194.336 279.785 194.336C280.197 194.336 280.585 194.386 280.947 194.485C281.317 194.578 281.644 194.727 281.929 194.933C282.22 195.14 282.462 195.403 282.654 195.723C282.853 196.036 282.988 196.416 283.059 196.864H282.046C281.996 196.573 281.904 196.324 281.769 196.117C281.633 195.904 281.466 195.73 281.267 195.595C281.068 195.46 280.841 195.36 280.585 195.296C280.336 195.225 280.069 195.189 279.785 195.189C279.322 195.189 278.924 195.282 278.59 195.467C278.263 195.652 277.993 195.897 277.779 196.203C277.573 196.501 277.42 196.846 277.321 197.237C277.221 197.621 277.171 198.016 277.171 198.421C277.171 198.82 277.228 199.204 277.342 199.573C277.456 199.936 277.623 200.26 277.843 200.544C278.064 200.821 278.334 201.045 278.654 201.216C278.981 201.38 279.358 201.461 279.785 201.461C280.183 201.461 280.535 201.397 280.841 201.269C281.146 201.141 281.402 200.967 281.609 200.747C281.822 200.519 281.982 200.256 282.089 199.957C282.195 199.652 282.241 199.325 282.227 198.976H279.795V198.123H283.134V202.133H282.494L282.227 201.184Z" fill="white"/>
<path d="M270.691 205.636H271.704V213.252H270.691V205.636Z" fill="white"/>
<path d="M268.496 209.734H273.755V210.587H269.509V213.009H273.467V213.862H269.509V216.497H273.787V217.35H268.496V209.734Z" fill="white"/>
<path d="M266.901 220.515C266.844 219.967 266.645 219.573 266.304 219.331C265.97 219.082 265.54 218.958 265.013 218.958C264.8 218.958 264.59 218.979 264.384 219.022C264.178 219.064 263.993 219.135 263.829 219.235C263.673 219.334 263.545 219.47 263.445 219.64C263.353 219.804 263.307 220.01 263.307 220.259C263.307 220.494 263.374 220.686 263.509 220.835C263.652 220.977 263.837 221.094 264.064 221.187C264.299 221.279 264.562 221.357 264.853 221.421C265.145 221.478 265.44 221.542 265.739 221.613C266.044 221.685 266.343 221.77 266.635 221.869C266.926 221.962 267.186 222.09 267.413 222.253C267.648 222.417 267.833 222.623 267.968 222.872C268.11 223.121 268.181 223.434 268.181 223.811C268.181 224.216 268.089 224.565 267.904 224.856C267.726 225.141 267.495 225.375 267.211 225.56C266.926 225.738 266.606 225.866 266.251 225.944C265.902 226.029 265.554 226.072 265.205 226.072C264.779 226.072 264.373 226.019 263.989 225.912C263.613 225.805 263.278 225.645 262.987 225.432C262.702 225.212 262.475 224.934 262.304 224.6C262.141 224.259 262.059 223.857 262.059 223.395H263.019C263.019 223.715 263.079 223.992 263.2 224.227C263.328 224.454 263.492 224.643 263.691 224.792C263.897 224.941 264.135 225.052 264.405 225.123C264.676 225.194 264.953 225.229 265.237 225.229C265.465 225.229 265.692 225.208 265.92 225.165C266.155 225.123 266.364 225.052 266.549 224.952C266.734 224.845 266.884 224.703 266.997 224.525C267.111 224.348 267.168 224.12 267.168 223.843C267.168 223.58 267.097 223.366 266.955 223.203C266.82 223.039 266.635 222.908 266.4 222.808C266.172 222.701 265.913 222.616 265.621 222.552C265.33 222.488 265.031 222.424 264.725 222.36C264.427 222.289 264.132 222.211 263.84 222.125C263.549 222.033 263.285 221.916 263.051 221.773C262.823 221.624 262.638 221.436 262.496 221.208C262.361 220.973 262.293 220.682 262.293 220.334C262.293 219.95 262.372 219.619 262.528 219.342C262.685 219.057 262.891 218.826 263.147 218.648C263.41 218.463 263.705 218.328 264.032 218.243C264.366 218.15 264.708 218.104 265.056 218.104C265.447 218.104 265.81 218.15 266.144 218.243C266.478 218.335 266.77 218.481 267.019 218.68C267.275 218.879 267.474 219.132 267.616 219.438C267.765 219.736 267.847 220.095 267.861 220.515H266.901Z" fill="white"/>
<path d="M252.719 230.11H253.732V236.873H257.764V237.726H252.719V230.11Z" fill="white"/>
<path d="M246.074 236.876H247.087V244.492H246.074V236.876Z" fill="white"/>
<path d="M242.822 240.185H244.209L246.609 246.585L249.019 240.185H250.406V247.801H249.446V241.465H249.425L247.046 247.801H246.182L243.803 241.465H243.782V247.801H242.822V240.185Z" fill="white"/>
<path d="M231.168 249.173H232.181V256.789H231.168V249.173Z" fill="white"/>
<path d="M229.072 252.656H226.533V251.803H232.624V252.656H230.085V259.419H229.072V252.656Z" fill="white"/>
<path d="M219.019 257.037H224.278V257.89H220.033V260.311H223.99V261.165H220.033V263.799H224.31V264.653H219.019V257.037Z" fill="white"/>
<path d="M210.814 268.746H212.499C212.613 268.746 212.755 268.739 212.926 268.725C213.097 268.703 213.278 268.661 213.47 268.597C213.662 268.526 213.851 268.426 214.035 268.298C214.227 268.17 214.398 267.996 214.547 267.775C214.697 267.555 214.818 267.281 214.91 266.954C215.01 266.62 215.059 266.218 215.059 265.749C215.059 265.294 215.013 264.888 214.921 264.533C214.835 264.17 214.69 263.864 214.483 263.615C214.284 263.36 214.025 263.168 213.705 263.04C213.385 262.904 212.99 262.837 212.521 262.837H210.814V268.746ZM209.801 261.984H212.414C213.587 261.984 214.491 262.282 215.123 262.88C215.756 263.477 216.073 264.387 216.073 265.61C216.073 266.25 216.002 266.819 215.859 267.317C215.717 267.807 215.497 268.223 215.198 268.565C214.899 268.899 214.519 269.155 214.057 269.333C213.595 269.511 213.047 269.599 212.414 269.599H209.801V261.984Z" fill="white"/>
<path d="M187.205 271.334H184.666V270.48H190.757V271.334H188.218V278.096H187.205V271.334Z" fill="white"/>
<path d="M175.898 272.73H181.157V273.583H176.912V276.004H180.869V276.858H176.912V279.492H181.189V280.346H175.898V272.73Z" fill="white"/>
<path d="M170.898 276.357C170.784 275.816 170.531 275.411 170.14 275.141C169.756 274.871 169.298 274.735 168.764 274.735C168.309 274.735 167.918 274.821 167.591 274.991C167.271 275.162 167.004 275.393 166.791 275.685C166.585 275.969 166.432 276.296 166.332 276.666C166.233 277.036 166.183 277.42 166.183 277.818C166.183 278.252 166.233 278.664 166.332 279.055C166.432 279.439 166.585 279.777 166.791 280.069C167.004 280.353 167.274 280.581 167.602 280.751C167.929 280.922 168.32 281.007 168.775 281.007C169.109 281.007 169.404 280.954 169.66 280.847C169.923 280.734 170.147 280.581 170.332 280.389C170.524 280.19 170.674 279.955 170.78 279.685C170.887 279.415 170.951 279.123 170.972 278.81H171.986C171.886 279.77 171.555 280.517 170.994 281.05C170.432 281.583 169.664 281.85 168.69 281.85C168.099 281.85 167.584 281.751 167.143 281.551C166.702 281.345 166.336 281.064 166.044 280.709C165.753 280.353 165.532 279.934 165.383 279.45C165.241 278.967 165.17 278.447 165.17 277.893C165.17 277.338 165.248 276.819 165.404 276.335C165.561 275.845 165.788 275.418 166.087 275.055C166.393 274.693 166.77 274.408 167.218 274.202C167.673 273.989 168.192 273.882 168.775 273.882C169.173 273.882 169.55 273.935 169.906 274.042C170.261 274.149 170.578 274.305 170.855 274.511C171.132 274.718 171.363 274.977 171.548 275.29C171.733 275.596 171.854 275.951 171.911 276.357H170.898Z" fill="white"/>
<path d="M153.602 274.865H154.615V278.14H158.626V274.865H159.639V282.481H158.626V278.993H154.615V282.481H153.602V274.865Z" fill="white"/>
<path d="M141.614 274.678H142.692L146.702 280.854H146.724V274.678H147.684V282.294H146.574L142.596 276.182H142.574V282.294H141.614V274.678Z" fill="white"/>
<path d="M130.341 276.96C130.341 277.344 130.39 277.724 130.49 278.101C130.589 278.471 130.746 278.805 130.959 279.104C131.173 279.402 131.446 279.644 131.781 279.829C132.115 280.007 132.513 280.096 132.975 280.096C133.437 280.096 133.836 280.007 134.17 279.829C134.504 279.644 134.778 279.402 134.991 279.104C135.205 278.805 135.361 278.471 135.461 278.101C135.56 277.724 135.61 277.344 135.61 276.96C135.61 276.576 135.56 276.199 135.461 275.829C135.361 275.452 135.205 275.114 134.991 274.816C134.778 274.517 134.504 274.279 134.17 274.101C133.836 273.916 133.437 273.824 132.975 273.824C132.513 273.824 132.115 273.916 131.781 274.101C131.446 274.279 131.173 274.517 130.959 274.816C130.746 275.114 130.589 275.452 130.49 275.829C130.39 276.199 130.341 276.576 130.341 276.96ZM129.327 276.96C129.327 276.44 129.402 275.943 129.551 275.466C129.708 274.983 129.939 274.556 130.245 274.186C130.55 273.816 130.931 273.521 131.386 273.301C131.841 273.08 132.371 272.97 132.975 272.97C133.58 272.97 134.109 273.08 134.565 273.301C135.02 273.521 135.4 273.816 135.706 274.186C136.012 274.556 136.239 274.983 136.389 275.466C136.545 275.943 136.623 276.44 136.623 276.96C136.623 277.479 136.545 277.98 136.389 278.464C136.239 278.94 136.012 279.363 135.706 279.733C135.4 280.103 135.02 280.398 134.565 280.618C134.109 280.832 133.58 280.938 132.975 280.938C132.371 280.938 131.841 280.832 131.386 280.618C130.931 280.398 130.55 280.103 130.245 279.733C129.939 279.363 129.708 278.94 129.551 278.464C129.402 277.98 129.327 277.479 129.327 276.96Z" fill="white"/>
<path d="M117.406 270.68H118.42V277.442H122.452V278.296H117.406V270.68Z" fill="white"/>
<path d="M108.79 272.023C108.79 272.407 108.84 272.788 108.939 273.165C109.039 273.534 109.195 273.869 109.408 274.167C109.622 274.466 109.896 274.708 110.23 274.893C110.564 275.07 110.962 275.159 111.424 275.159C111.887 275.159 112.285 275.07 112.619 274.893C112.953 274.708 113.227 274.466 113.44 274.167C113.654 273.869 113.81 273.534 113.91 273.165C114.009 272.788 114.059 272.407 114.059 272.023C114.059 271.639 114.009 271.262 113.91 270.893C113.81 270.516 113.654 270.178 113.44 269.879C113.227 269.581 112.953 269.342 112.619 269.165C112.285 268.98 111.887 268.887 111.424 268.887C110.962 268.887 110.564 268.98 110.23 269.165C109.896 269.342 109.622 269.581 109.408 269.879C109.195 270.178 109.039 270.516 108.939 270.893C108.84 271.262 108.79 271.639 108.79 272.023ZM107.776 272.023C107.776 271.504 107.851 271.006 108 270.53C108.157 270.046 108.388 269.62 108.694 269.25C109 268.88 109.38 268.585 109.835 268.365C110.29 268.144 110.82 268.034 111.424 268.034C112.029 268.034 112.559 268.144 113.014 268.365C113.469 268.585 113.849 268.88 114.155 269.25C114.461 269.62 114.688 270.046 114.838 270.53C114.994 271.006 115.072 271.504 115.072 272.023C115.072 272.542 114.994 273.044 114.838 273.527C114.688 274.004 114.461 274.427 114.155 274.797C113.849 275.166 113.469 275.462 113.014 275.682C112.559 275.895 112.029 276.002 111.424 276.002C110.82 276.002 110.29 275.895 109.835 275.682C109.38 275.462 109 275.166 108.694 274.797C108.388 274.427 108.157 274.004 108 273.527C107.851 273.044 107.776 272.542 107.776 272.023Z" fill="white"/>
<path d="M102.079 270.466C101.78 270.864 101.41 271.152 100.969 271.33C100.529 271.501 100.084 271.586 99.6361 271.586C99.0672 271.586 98.5588 271.483 98.1108 271.277C97.6628 271.064 97.2823 270.779 96.9694 270.424C96.6566 270.068 96.4183 269.659 96.2548 269.197C96.0912 268.735 96.0094 268.255 96.0094 267.757C96.0094 267.202 96.0841 266.676 96.2334 266.178C96.3899 265.673 96.6174 265.232 96.9161 264.856C97.2219 264.479 97.5988 264.18 98.0468 263.96C98.5019 263.732 99.0317 263.618 99.6361 263.618C100.049 263.618 100.436 263.668 100.799 263.768C101.169 263.86 101.496 264.009 101.78 264.216C102.072 264.422 102.313 264.685 102.505 265.005C102.705 265.318 102.84 265.698 102.911 266.146H101.897C101.848 265.855 101.755 265.606 101.62 265.4C101.485 265.186 101.318 265.012 101.119 264.877C100.92 264.742 100.692 264.642 100.436 264.578C100.187 264.507 99.9205 264.472 99.6361 264.472C99.1739 264.472 98.7757 264.564 98.4414 264.749C98.1143 264.934 97.8441 265.179 97.6308 265.485C97.4246 265.784 97.2717 266.128 97.1721 266.52C97.0726 266.904 97.0228 267.298 97.0228 267.704C97.0228 268.102 97.0797 268.486 97.1934 268.856C97.3072 269.218 97.4743 269.542 97.6948 269.826C97.9152 270.104 98.1854 270.328 98.5054 270.498C98.8326 270.662 99.2094 270.744 99.6361 270.744C100.034 270.744 100.386 270.68 100.692 270.552C100.998 270.424 101.254 270.249 101.46 270.029C101.673 269.801 101.833 269.538 101.94 269.24C102.047 268.934 102.093 268.607 102.079 268.258H99.6468V267.405H102.985V271.416H102.345L102.079 270.466Z" fill="white"/>
<path d="M85.234 258.056H86.2474V265.672H85.234V258.056Z" fill="white"/>
<path d="M81.1523 255.836H86.411V256.689H82.1656V259.111H86.123V259.964H82.1656V262.599H86.443V263.452H81.1523V255.836Z" fill="white"/>
<path d="M76.6826 252.533C76.6257 251.985 76.4266 251.591 76.0853 251.349C75.7511 251.1 75.3209 250.976 74.7946 250.976C74.5813 250.976 74.3715 250.997 74.1653 251.04C73.9591 251.082 73.7742 251.153 73.6106 251.253C73.4542 251.353 73.3262 251.488 73.2266 251.658C73.1342 251.822 73.088 252.028 73.088 252.277C73.088 252.512 73.1555 252.704 73.2906 252.853C73.4329 252.995 73.6178 253.113 73.8453 253.205C74.08 253.297 74.3431 253.376 74.6346 253.44C74.9262 253.497 75.2213 253.561 75.52 253.632C75.8257 253.703 76.1244 253.788 76.416 253.888C76.7075 253.98 76.9671 254.108 77.1946 254.272C77.4293 254.435 77.6142 254.641 77.7493 254.89C77.8915 255.139 77.9626 255.452 77.9626 255.829C77.9626 256.234 77.8702 256.583 77.6853 256.874C77.5075 257.159 77.2764 257.393 76.992 257.578C76.7075 257.756 76.3875 257.884 76.032 257.962C75.6835 258.048 75.3351 258.09 74.9866 258.09C74.56 258.09 74.1546 258.037 73.7706 257.93C73.3938 257.824 73.0595 257.664 72.768 257.45C72.4835 257.23 72.256 256.953 72.0853 256.618C71.9218 256.277 71.84 255.875 71.84 255.413H72.8C72.8 255.733 72.8604 256.01 72.9813 256.245C73.1093 256.473 73.2729 256.661 73.472 256.81C73.6782 256.96 73.9164 257.07 74.1866 257.141C74.4569 257.212 74.7342 257.248 75.0186 257.248C75.2462 257.248 75.4737 257.226 75.7013 257.184C75.936 257.141 76.1457 257.07 76.3306 256.97C76.5155 256.864 76.6649 256.721 76.7786 256.544C76.8924 256.366 76.9493 256.138 76.9493 255.861C76.9493 255.598 76.8782 255.385 76.736 255.221C76.6009 255.057 76.416 254.926 76.1813 254.826C75.9537 254.72 75.6942 254.634 75.4026 254.57C75.1111 254.506 74.8124 254.442 74.5066 254.378C74.208 254.307 73.9129 254.229 73.6213 254.144C73.3298 254.051 73.0666 253.934 72.832 253.792C72.6044 253.642 72.4195 253.454 72.2773 253.226C72.1422 252.992 72.0746 252.7 72.0746 252.352C72.0746 251.968 72.1529 251.637 72.3093 251.36C72.4658 251.075 72.672 250.844 72.928 250.666C73.1911 250.481 73.4862 250.346 73.8133 250.261C74.1475 250.169 74.4889 250.122 74.8373 250.122C75.2284 250.122 75.5911 250.169 75.9253 250.261C76.2595 250.353 76.5511 250.499 76.8 250.698C77.056 250.897 77.2551 251.15 77.3973 251.456C77.5466 251.754 77.6284 252.113 77.6426 252.533H76.6826Z" fill="white"/>
<path d="M60.2461 240.763H61.2594V247.526H65.2914V248.379H60.2461V240.763Z" fill="white"/>
<path d="M53.4137 234.187H54.4271V241.803H53.4137V234.187Z" fill="white"/>
<path d="M50.1541 230.908H51.5408L53.9408 237.308L56.3514 230.908H57.7381V238.524H56.7781V232.188H56.7568L54.3781 238.524H53.5141L51.1354 232.188H51.1141V238.524H50.1541V230.908Z" fill="white"/>
<path d="M40.7536 219.581H41.7669V227.197H40.7536V219.581Z" fill="white"/>
<path d="M39.6772 216.74H37.1385V215.887H43.2292V216.74H40.6905V223.503H39.6772V216.74Z" fill="white"/>
<path d="M32.6797 207.588H37.9383V208.441H33.693V210.862H37.6503V211.715H33.693V214.35H37.9703V215.203H32.6797V207.588Z" fill="white"/>
<path d="M28.5992 205.23H30.2846C30.3983 205.23 30.5406 205.223 30.7112 205.209C30.8819 205.187 31.0632 205.145 31.2552 205.081C31.4472 205.009 31.6357 204.91 31.8206 204.782C32.0126 204.654 32.1832 204.48 32.3326 204.259C32.4819 204.039 32.6028 203.765 32.6952 203.438C32.7948 203.104 32.8446 202.702 32.8446 202.233C32.8446 201.777 32.7983 201.372 32.7059 201.017C32.6206 200.654 32.4748 200.348 32.2686 200.099C32.0695 199.843 31.8099 199.651 31.4899 199.523C31.1699 199.388 30.7752 199.321 30.3059 199.321H28.5992V205.23ZM27.5859 198.467H30.1992C31.3726 198.467 32.2757 198.766 32.9086 199.363C33.5414 199.961 33.8579 200.871 33.8579 202.094C33.8579 202.734 33.7868 203.303 33.6446 203.801C33.5023 204.291 33.2819 204.707 32.9832 205.049C32.6846 205.383 32.3041 205.639 31.8419 205.817C31.3797 205.994 30.8321 206.083 30.1992 206.083H27.5859V198.467Z" fill="white"/>
</g>
<defs>
<clipPath id="clip0_10642_78888">
<rect width="300" height="300" fill="white" transform="translate(0.230469 0.871521)"/>
</clipPath>
</defs>
</svg>
