<svg width="71" height="71" viewBox="0 0 71 71" fill="none" xmlns="http://www.w3.org/2000/svg">
<g clip-path="url(#clip0_10588_74027)">
<path d="M22.9892 30.3713C22.3471 28.8664 21.375 27.525 20.1447 26.4464C18.9144 25.3678 17.4573 24.5796 15.8813 24.1399C14.3053 23.7003 12.6507 23.6205 11.0397 23.9065C9.4287 24.1925 7.9026 24.8369 6.57422 25.7921M48.4342 30.3713C49.0763 28.8664 50.0484 27.525 51.2788 26.4464C52.5091 25.3678 53.9661 24.5796 55.5421 24.1399C57.1181 23.7003 58.7728 23.6205 60.3838 23.9065C61.9947 24.1925 63.5208 24.8369 64.8492 25.7921M6.57422 15.5488C6.57422 17.2382 7.24534 18.8585 8.43995 20.0531C9.63456 21.2477 11.2548 21.9188 12.9442 21.9188C14.6336 21.9188 16.2539 21.2477 17.4485 20.0531C18.6431 18.8585 19.3142 17.2382 19.3142 15.5488C19.3142 13.8594 18.6431 12.2391 17.4485 11.0445C16.2539 9.84993 14.6336 9.1788 12.9442 9.1788C11.2548 9.1788 9.63456 9.84993 8.43995 11.0445C7.24534 12.2391 6.57422 13.8594 6.57422 15.5488ZM52.1092 15.5488C52.1092 17.2382 52.7803 18.8585 53.9749 20.0531C55.1696 21.2477 56.7898 21.9188 58.4792 21.9188C60.1686 21.9188 61.7889 21.2477 62.9835 20.0531C64.1781 18.8585 64.8492 17.2382 64.8492 15.5488C64.8492 13.8594 64.1781 12.2391 62.9835 11.0445C61.7889 9.84993 60.1686 9.1788 58.4792 9.1788C56.7898 9.1788 55.1696 9.84993 53.9749 11.0445C52.7803 12.2391 52.1092 13.8594 52.1092 15.5488ZM25.9788 12.5884C25.9788 13.8665 26.2306 15.1322 26.7197 16.313C27.2088 17.4939 27.9257 18.5668 28.8295 19.4706C29.7333 20.3744 30.8062 21.0913 31.9871 21.5804C33.1679 22.0696 34.4336 22.3213 35.7117 22.3213C36.9899 22.3213 38.2555 22.0696 39.4363 21.5804C40.6172 21.0913 41.6901 20.3744 42.5939 19.4706C43.4977 18.5668 44.2146 17.4939 44.7038 16.313C45.1929 15.1322 45.4446 13.8665 45.4446 12.5884C45.4446 10.0071 44.4192 7.53145 42.5939 5.70617C40.7687 3.8809 38.293 2.85547 35.7117 2.85547C33.1304 2.85547 30.6548 3.8809 28.8295 5.70617C27.0042 7.53145 25.9788 10.0071 25.9788 12.5884Z" stroke="#006E7D" stroke-width="4.375" stroke-linecap="round" stroke-linejoin="round"/>
<path d="M52.5508 34.0931C50.4168 31.749 47.8169 29.8763 44.9174 28.5949C42.018 27.3135 38.8829 26.6516 35.7129 26.6516C32.5429 26.6516 29.4079 27.3135 26.5084 28.5949C23.609 29.8763 21.009 31.749 18.875 34.0931M47.2483 41.0814C47.2002 44.1094 45.9635 46.9971 43.8052 49.1214C41.6468 51.2457 38.7398 52.4363 35.7115 52.4363C32.6831 52.4363 29.7761 51.2457 27.6177 49.1214C25.4594 46.9971 24.2227 44.1094 24.1746 41.0814" stroke="#006E7D" stroke-width="4.375" stroke-linecap="round" stroke-linejoin="round"/>
<path d="M63.1117 41.0696V45.4067L58.1533 46.3983C57.5827 48.8027 56.6242 51.0981 55.3154 53.1942L58.1417 57.4058L52.0167 63.5308L47.8079 60.7046C45.7093 62.0207 43.4099 62.9852 41.0004 63.56L40.0204 68.4921H31.3871L30.4042 63.56C27.9957 62.9849 25.6973 62.0204 23.5996 60.7046L19.3792 63.5192L13.2542 57.3942L16.0804 53.1825C14.7706 51.0866 13.8111 48.7912 13.2396 46.3867L8.28125 45.395V41.0696" stroke="#006E7D" stroke-width="4.375" stroke-linecap="round" stroke-linejoin="round"/>
</g>
<defs>
<clipPath id="clip0_10588_74027">
<rect width="70" height="70" fill="white" transform="translate(0.710938 0.667969)"/>
</clipPath>
</defs>
</svg>
