<svg width="132" height="42" viewBox="0 0 132 42" fill="none" xmlns="http://www.w3.org/2000/svg">
<path fill-rule="evenodd" clip-rule="evenodd" d="M81.4379 31.0131C74.1181 36.1722 63.5084 38.9248 54.3737 38.9248C41.5654 38.9248 30.0346 34.3949 21.3111 26.8607C20.6257 26.2683 21.2398 25.4608 22.0623 25.9222C31.4766 31.1599 43.1171 34.311 55.1413 34.311C63.2507 34.311 72.1716 32.7066 80.3742 29.3773C81.6134 28.874 82.6497 30.1533 81.4379 31.0131Z" fill="#8A8A8A"/>
<path fill-rule="evenodd" clip-rule="evenodd" d="M84.4809 27.685C83.5487 26.542 78.296 27.1449 75.9383 27.4123C75.22 27.4962 75.1104 26.8985 75.7574 26.4686C79.9409 23.6531 86.8057 24.4658 87.6062 25.4095C88.4067 26.3585 87.3978 32.9384 83.4665 36.079C82.8634 36.5613 82.2876 36.3044 82.5563 35.6648C83.4391 33.5571 85.4185 28.8332 84.4809 27.685Z" fill="#8A8A8A"/>
<path fill-rule="evenodd" clip-rule="evenodd" d="M76.1023 6.59247V3.85564C76.1023 3.44145 76.4313 3.16357 76.826 3.16357H89.6399C90.0511 3.16357 90.3801 3.44669 90.3801 3.85564V6.19925C90.3746 6.59247 90.0292 7.10628 89.4151 7.91894L82.7751 16.984C85.2425 16.9264 87.8469 17.2776 90.084 18.4835C90.5884 18.7561 90.7255 19.1546 90.7639 19.5478V22.4682C90.7639 22.8666 90.3033 23.3333 89.8208 23.0921C85.8785 21.1155 80.6422 20.9005 76.2832 23.113C75.8391 23.3437 75.373 22.8824 75.373 22.4839V19.7104C75.373 19.2647 75.3785 18.5045 75.8446 17.8281L83.5373 7.2793H76.8425C76.4313 7.2793 76.1023 7.00143 76.1023 6.59247Z" fill="#8A8A8A"/>
<path fill-rule="evenodd" clip-rule="evenodd" d="M29.3604 23.6685H25.462C25.0891 23.6423 24.793 23.3749 24.7656 23.0341V3.90255C24.7656 3.51982 25.1001 3.21572 25.5168 3.21572H29.152C29.5304 3.23144 29.8319 3.50933 29.8594 3.85536V6.35626H29.9306C30.8792 3.93925 32.6612 2.81201 35.0627 2.81201C37.5027 2.81201 39.027 3.93925 40.1236 6.35626C41.0667 3.93925 43.2105 2.81201 45.5079 2.81201C47.1419 2.81201 48.9293 3.4569 50.0204 4.90395C51.2541 6.51354 51.0019 8.8519 51.0019 10.9019L50.9964 22.9764C50.9964 23.3592 50.662 23.6685 50.2453 23.6685H46.3523C45.963 23.6423 45.6505 23.3435 45.6505 22.9764V12.8366C45.6505 12.0291 45.7272 10.0158 45.5408 9.25037C45.2502 7.96585 44.3784 7.60408 43.2489 7.60408C42.3058 7.60408 41.3189 8.20702 40.9186 9.17173C40.5184 10.1364 40.5567 11.7513 40.5567 12.8366V22.9764C40.5567 23.3592 40.2223 23.6685 39.8056 23.6685H35.9126C35.5178 23.6423 35.2108 23.3435 35.2108 22.9764L35.2053 12.8366C35.2053 10.7027 35.5727 7.56214 32.8037 7.56214C30.0019 7.56214 30.1116 10.624 30.1116 12.8366V22.9764C30.1116 23.3592 29.7771 23.6685 29.3604 23.6685Z" fill="#8A8A8A"/>
<path fill-rule="evenodd" clip-rule="evenodd" d="M101.413 2.81201C107.198 2.81201 110.329 7.56214 110.329 13.602C110.329 19.4374 106.869 24.067 101.413 24.067C95.733 24.067 92.6406 19.3169 92.6406 13.3976C92.6406 7.44155 95.7714 2.81201 101.413 2.81201ZM101.446 6.71802C98.5733 6.71802 98.3923 10.4615 98.3923 12.7946C98.3923 15.133 98.3539 20.1243 101.413 20.1243C104.435 20.1243 104.577 16.0977 104.577 13.644C104.577 12.0291 104.506 10.0997 103.996 8.56878C103.557 7.23708 102.686 6.71802 101.446 6.71802Z" fill="#8A8A8A"/>
<path fill-rule="evenodd" clip-rule="evenodd" d="M117.828 23.6685H113.946C113.556 23.6423 113.244 23.3435 113.244 22.9764L113.238 3.83963C113.271 3.48835 113.595 3.21572 113.989 3.21572H117.603C117.943 3.23144 118.222 3.45165 118.299 3.7505V6.67607H118.37C119.462 4.05984 120.991 2.81201 123.683 2.81201C125.433 2.81201 127.138 3.41495 128.234 5.06649C129.254 6.59743 129.254 9.17173 129.254 11.0225V23.0656C129.21 23.4011 128.887 23.6685 128.503 23.6685H124.594C124.237 23.6423 123.941 23.3906 123.903 23.0656V12.674C123.903 10.5821 124.155 7.52019 121.463 7.52019C120.514 7.52019 119.642 8.12838 119.209 9.05114C118.661 10.2203 118.59 11.3843 118.59 12.674V22.9764C118.584 23.3592 118.244 23.6685 117.828 23.6685Z" fill="#8A8A8A"/>
<path fill-rule="evenodd" clip-rule="evenodd" d="M65.8893 14.529C65.8893 15.9813 65.9277 17.1924 65.16 18.4822C64.5405 19.5308 63.5535 20.1756 62.4624 20.1756C60.9655 20.1756 60.0882 19.0851 60.0882 17.4755C60.0882 14.2983 63.0655 13.7216 65.8893 13.7216V14.529ZM69.8206 23.615C69.5629 23.8352 69.1901 23.851 68.8995 23.7042C67.6055 22.6765 67.3697 22.1994 66.6624 21.219C64.524 23.3057 63.0052 23.9296 60.2363 23.9296C56.9519 23.9296 54.4023 21.9949 54.4023 18.1204C54.4023 15.0952 56.113 13.0347 58.5585 12.0281C60.6749 11.1368 63.6303 10.9795 65.8893 10.7331V10.2507C65.8893 9.36465 65.9606 8.31606 65.4123 7.55059C64.9407 6.86376 64.0305 6.58064 63.2245 6.58064C61.7386 6.58064 60.4172 7.30941 60.0937 8.81938C60.0279 9.15493 59.7702 9.48524 59.4138 9.50097L55.636 9.11299C55.318 9.04483 54.9616 8.79841 55.0548 8.33179C55.9211 3.94867 60.0663 2.62744 63.7728 2.62744C65.67 2.62744 68.1483 3.10979 69.6452 4.48345C71.5423 6.17693 71.3613 8.43665 71.3613 10.8956V16.7048C71.3613 18.4507 72.118 19.2162 72.8308 20.1599C73.0775 20.4955 73.1324 20.8992 72.8143 21.1508C72.0193 21.7852 70.6047 22.9649 69.8261 23.6255L69.8206 23.615Z" fill="#8A8A8A"/>
<path fill-rule="evenodd" clip-rule="evenodd" d="M14.7819 14.529C14.7819 15.9813 14.8202 17.1924 14.0526 18.4822C13.433 19.5308 12.4516 20.1756 11.355 20.1756C9.8581 20.1756 8.9863 19.0851 8.9863 17.4755C8.9863 14.2983 11.9636 13.7216 14.7819 13.7216V14.529ZM18.7132 23.615C18.4555 23.8352 18.0826 23.851 17.792 23.7042C16.498 22.6765 16.2678 22.1994 15.555 21.219C13.4166 23.3057 11.9033 23.9296 9.12886 23.9296C5.85001 23.9296 3.29492 21.9949 3.29492 18.1204C3.29492 15.0952 5.01111 13.0347 7.45105 12.0281C9.5675 11.1368 12.5229 10.9795 14.7819 10.7331V10.2507C14.7819 9.36465 14.8531 8.31606 14.3103 7.55059C13.8333 6.86376 12.9231 6.58064 12.1226 6.58064C10.6367 6.58064 9.3098 7.30941 8.9863 8.81938C8.9205 9.15493 8.6628 9.48524 8.31189 9.50097L4.5286 9.11299C4.21059 9.04483 3.85967 8.79841 3.9474 8.33179C4.8192 3.94867 8.95888 2.62744 12.6654 2.62744C14.5625 2.62744 17.0409 3.10979 18.5377 4.48345C20.4349 6.17693 20.2539 8.43665 20.2539 10.8956V16.7048C20.2539 18.4507 21.0106 19.2162 21.7234 20.1599C21.9756 20.4955 22.0304 20.8992 21.7124 21.1508C20.9174 21.7852 19.5027 22.9649 18.7241 23.6255L18.7132 23.615Z" fill="#8A8A8A"/>
</svg>
