<svg width="514" height="363" viewBox="0 0 514 363" fill="none" xmlns="http://www.w3.org/2000/svg">
<rect width="514" height="423" rx="20" fill="white"/>
<g clip-path="url(#clip0_10616_74228)">
<mask id="mask0_10616_74228" style="mask-type:luminance" maskUnits="userSpaceOnUse" x="63" y="74" width="386" height="266">
<path d="M407.663 74.8641L73.1769 124.251C67.0192 125.16 62.8254 131.302 63.8097 137.969L91.9717 328.703C92.9561 335.37 98.7459 340.038 104.904 339.129L439.39 289.742C445.547 288.833 449.741 282.691 448.757 276.024L420.595 85.2896C419.61 78.6226 413.821 73.9549 407.663 74.8641Z" fill="white"/>
</mask>
<g mask="url(#mask0_10616_74228)">
<path d="M407.663 74.8641L73.1769 124.251C67.0192 125.16 62.8254 131.302 63.8097 137.969L91.9717 328.703C92.9561 335.37 98.7459 340.038 104.904 339.129L439.39 289.742C445.547 288.833 449.741 282.691 448.757 276.024L420.595 85.2896C419.61 78.6226 413.821 73.9549 407.663 74.8641Z" fill="black"/>
<mask id="mask1_10616_74228" style="mask-type:luminance" maskUnits="userSpaceOnUse" x="62" y="121" width="42" height="66">
<path d="M94.361 121.123L62.0273 125.897L70.9599 186.395L103.293 181.621L94.361 121.123Z" fill="white"/>
</mask>
<g mask="url(#mask1_10616_74228)">
<path d="M79.3722 131.512L72.5325 128.505L71.3712 120.641L77.0523 115.784L83.89 118.792L85.0499 126.656L79.3722 131.512ZM88.2949 191.943L81.4563 188.937L80.2951 181.072L85.9737 176.215L92.8114 179.223L93.9715 187.087L88.2949 191.943ZM99.9815 159.236L93.1439 156.228L91.9826 148.363L97.6624 143.506L104.5 146.514L105.66 154.379L99.9815 159.236ZM67.6479 164.01L60.8102 161.002L59.649 153.137L65.3287 148.28L72.1664 151.288L73.3276 159.153L67.6479 164.01ZM80.2976 137.779L67.9487 132.383L65.8645 118.251L76.1265 109.514L88.4711 114.912L90.5567 129.045L80.2976 137.779ZM89.2203 198.211L76.8716 192.816L74.7874 178.684L85.0494 169.947L97.3947 175.342L99.4803 189.475L89.2203 198.211ZM100.908 165.502L88.5592 160.107L86.4748 145.974L96.737 137.238L109.082 142.635L111.168 156.766L100.908 165.502ZM68.5742 170.276L56.2267 164.881L54.1422 150.748L64.4033 142.012L76.75 147.409L78.8342 161.54L68.5742 170.276ZM81.1943 143.86L63.5369 136.144L60.5545 115.93L75.2287 103.434L92.8854 111.152L95.8678 131.367L81.1943 143.86ZM90.117 204.292L72.4596 196.576L69.4772 176.361L84.1516 163.866L101.808 171.584L104.79 191.797L90.117 204.292ZM101.804 171.584L84.1472 163.867L81.1649 143.654L95.8392 131.158L113.496 138.875L116.478 159.09L101.804 171.584ZM69.47 176.358L51.8135 168.641L48.8313 148.428L63.5055 135.932L81.162 143.649L84.1444 163.864L69.47 176.358Z" stroke="#ECC94B" stroke-opacity="0.15" stroke-linecap="square"/>
</g>
<mask id="mask2_10616_74228" style="mask-type:luminance" maskUnits="userSpaceOnUse" x="94" y="116" width="42" height="66">
<path d="M126.693 116.349L94.3594 121.123L103.292 181.621L135.626 176.847L126.693 116.349Z" fill="white"/>
</mask>
<g mask="url(#mask2_10616_74228)">
<path d="M111.704 126.738L104.865 123.731L103.703 115.867L109.384 111.01L116.222 114.018L117.382 121.882L111.704 126.738ZM120.627 187.169L113.788 184.163L112.627 176.298L118.306 171.441L125.143 174.448L126.304 182.313L120.627 187.169ZM132.314 154.462L125.476 151.454L124.315 143.589L129.994 138.732L136.832 141.74L137.992 149.605L132.314 154.462ZM99.9799 159.236L93.1423 156.228L91.981 148.363L97.6608 143.506L104.498 146.514L105.66 154.379L99.9799 159.236ZM112.63 133.005L100.281 127.609L98.1965 113.477L108.459 104.74L120.803 110.138L122.889 124.271L112.63 133.005ZM121.552 193.437L109.204 188.042L107.119 173.91L117.381 165.173L129.727 170.568L131.812 184.701L121.552 193.437ZM133.24 160.728L120.891 155.333L118.807 141.2L129.069 132.464L141.415 137.861L143.5 151.992L133.24 160.728ZM100.906 165.502L88.5587 160.107L86.4743 145.974L96.7354 137.238L109.082 142.635L111.166 156.766L100.906 165.502ZM113.526 139.086L95.8689 131.37L92.8865 111.156L107.561 98.6595L125.217 106.378L128.2 126.593L113.526 139.086ZM122.449 199.518L104.792 191.801L101.809 171.587L116.484 159.092L134.14 166.81L137.122 187.023L122.449 199.518ZM134.136 166.81L116.479 159.093L113.497 138.879L128.171 126.384L145.828 134.101L148.81 154.315L134.136 166.81ZM101.802 171.584L84.1455 163.867L81.1633 143.654L95.8376 131.158L113.494 138.875L116.476 159.09L101.802 171.584Z" stroke="#ECC94B" stroke-opacity="0.15" stroke-linecap="square"/>
</g>
<mask id="mask3_10616_74228" style="mask-type:luminance" maskUnits="userSpaceOnUse" x="126" y="111" width="42" height="66">
<path d="M159.025 111.575L126.691 116.349L135.624 176.847L167.958 172.073L159.025 111.575Z" fill="white"/>
</mask>
<g mask="url(#mask3_10616_74228)">
<path d="M144.036 121.964L137.197 118.957L136.035 111.092L141.716 106.236L148.554 109.244L149.714 117.108L144.036 121.964ZM152.959 182.395L146.12 179.388L144.959 171.524L150.638 166.667L157.475 169.674L158.636 177.539L152.959 182.395ZM164.646 149.688L157.808 146.68L156.647 138.815L162.326 133.958L169.164 136.966L170.324 144.831L164.646 149.688ZM132.312 154.462L125.474 151.454L124.313 143.589L129.993 138.732L136.83 141.74L137.992 149.604L132.312 154.462ZM144.962 128.231L132.613 122.835L130.529 108.703L140.791 99.9661L153.135 105.364L155.221 119.497L144.962 128.231ZM153.884 188.663L141.536 183.268L139.451 169.136L149.713 160.399L162.059 165.794L164.144 179.927L153.884 188.663ZM165.572 155.954L153.223 150.559L151.139 136.426L161.401 127.69L173.747 133.087L175.832 147.218L165.572 155.954ZM133.238 160.728L120.891 155.333L118.806 141.2L129.067 132.464L141.414 137.861L143.498 151.992L133.238 160.728ZM145.858 134.312L128.201 126.596L125.219 106.381L139.893 93.8855L157.549 101.604L160.532 121.819L145.858 134.312ZM154.781 194.743L137.124 187.027L134.141 166.813L148.816 154.318L166.472 162.036L169.454 182.249L154.781 194.743ZM166.468 162.036L148.811 154.319L145.829 134.105L160.503 121.609L178.16 129.327L181.142 149.541L166.468 162.036ZM134.134 166.81L116.478 159.093L113.495 138.88L128.17 126.384L145.826 134.101L148.808 154.315L134.134 166.81Z" stroke="#ECC94B" stroke-opacity="0.15" stroke-linecap="square"/>
</g>
<mask id="mask4_10616_74228" style="mask-type:luminance" maskUnits="userSpaceOnUse" x="159" y="106" width="42" height="67">
<path d="M191.361 106.801L159.027 111.575L167.96 172.073L200.293 167.299L191.361 106.801Z" fill="white"/>
</mask>
<g mask="url(#mask4_10616_74228)">
<path d="M176.372 117.19L169.532 114.183L168.371 106.318L174.052 101.462L180.89 104.47L182.05 112.334L176.372 117.19ZM185.295 177.621L178.456 174.614L177.295 166.75L182.974 161.892L189.811 164.9L190.971 172.765L185.295 177.621ZM196.981 144.914L190.144 141.906L188.983 134.041L194.662 129.184L201.5 132.192L202.66 140.056L196.981 144.914ZM164.648 149.688L157.81 146.68L156.649 138.815L162.329 133.958L169.166 136.966L170.328 144.83L164.648 149.688ZM177.297 123.457L164.949 118.061L162.864 103.929L173.126 95.192L185.471 100.59L187.557 114.723L177.297 123.457ZM186.22 183.889L173.872 178.493L171.787 164.362L182.049 155.625L194.395 161.02L196.48 175.153L186.22 183.889ZM197.908 151.18L185.559 145.785L183.475 131.652L193.737 122.916L206.082 128.313L208.168 142.444L197.908 151.18ZM165.574 155.954L153.227 150.559L151.142 136.426L161.403 127.69L173.75 133.087L175.834 147.218L165.574 155.954ZM178.194 129.538L160.537 121.822L157.554 101.607L172.229 89.1114L189.885 96.83L192.868 117.045L178.194 129.538ZM187.117 189.969L169.46 182.253L166.477 162.039L181.151 149.544L198.808 157.261L201.79 177.475L187.117 189.969ZM198.804 157.262L181.147 149.545L178.165 129.331L192.839 116.835L210.496 124.553L213.478 144.767L198.804 157.262ZM166.47 162.036L148.814 154.319L145.831 134.105L160.506 121.609L178.162 129.327L181.144 149.541L166.47 162.036Z" stroke="#ECC94B" stroke-opacity="0.15" stroke-linecap="square"/>
</g>
<mask id="mask5_10616_74228" style="mask-type:luminance" maskUnits="userSpaceOnUse" x="191" y="102" width="42" height="66">
<path d="M223.693 102.027L191.359 106.801L200.292 167.299L232.626 162.525L223.693 102.027Z" fill="white"/>
</mask>
<g mask="url(#mask5_10616_74228)">
<path d="M208.704 112.415L201.865 109.409L200.703 101.544L206.384 96.688L213.222 99.6959L214.382 107.56L208.704 112.415ZM217.627 172.847L210.788 169.84L209.627 161.976L215.306 157.118L222.143 160.126L223.304 167.991L217.627 172.847ZM229.314 140.14L222.476 137.132L221.315 129.267L226.994 124.41L233.832 127.417L234.992 135.282L229.314 140.14ZM196.98 144.914L190.142 141.906L188.981 134.041L194.661 129.184L201.498 132.192L202.66 140.056L196.98 144.914ZM209.63 118.683L197.281 113.287L195.197 99.1552L205.459 90.4179L217.803 95.8161L219.889 109.949L209.63 118.683ZM218.552 179.115L206.204 173.719L204.119 159.588L214.381 150.851L226.727 156.246L228.812 170.379L218.552 179.115ZM230.24 146.406L217.891 141.011L215.807 126.878L226.069 118.142L238.415 123.539L240.5 137.67L230.24 146.406ZM197.906 151.18L185.559 145.785L183.474 131.652L193.735 122.916L206.082 128.313L208.166 142.444L197.906 151.18ZM210.526 124.764L192.869 117.048L189.887 96.8333L204.561 84.3373L222.217 92.056L225.2 112.271L210.526 124.764ZM219.449 185.195L201.792 177.479L198.809 157.265L213.484 144.77L231.14 152.487L234.122 172.701L219.449 185.195ZM231.136 152.488L213.479 144.771L210.497 124.557L225.171 112.061L242.828 119.779L245.81 139.993L231.136 152.488ZM198.802 157.262L181.146 149.545L178.163 129.331L192.838 116.835L210.494 124.553L213.476 144.767L198.802 157.262Z" stroke="#ECC94B" stroke-opacity="0.15" stroke-linecap="square"/>
</g>
<mask id="mask6_10616_74228" style="mask-type:luminance" maskUnits="userSpaceOnUse" x="223" y="97" width="42" height="66">
<path d="M256.029 97.2528L223.695 102.027L232.628 162.525L264.961 157.751L256.029 97.2528Z" fill="white"/>
</mask>
<g mask="url(#mask6_10616_74228)">
<path d="M241.04 107.641L234.2 104.635L233.039 96.7703L238.72 91.914L245.558 94.9219L246.718 102.786L241.04 107.641ZM249.963 168.073L243.124 165.066L241.963 157.202L247.642 152.344L254.479 155.352L255.639 163.217L249.963 168.073ZM261.649 135.366L254.812 132.358L253.651 124.493L259.33 119.636L266.168 122.643L267.328 130.508L261.649 135.366ZM229.316 140.14L222.478 137.132L221.317 129.267L226.997 124.41L233.834 127.418L234.996 135.282L229.316 140.14ZM241.966 113.909L229.617 108.513L227.532 94.3812L237.794 85.6439L250.139 91.0421L252.225 105.175L241.966 113.909ZM250.888 174.341L238.54 168.945L236.455 154.814L246.717 146.076L259.063 151.472L261.148 165.605L250.888 174.341ZM262.576 141.632L250.227 136.237L248.143 122.104L258.405 113.368L270.75 118.765L272.836 132.896L262.576 141.632ZM230.242 146.406L217.895 141.011L215.81 126.878L226.071 118.142L238.418 123.539L240.502 137.67L230.242 146.406ZM242.862 119.99L225.205 112.274L222.222 92.0593L236.897 79.5633L254.553 87.2819L257.536 107.496L242.862 119.99ZM251.785 180.421L234.128 172.705L231.145 152.491L245.82 139.996L263.476 147.713L266.458 167.927L251.785 180.421ZM263.472 147.714L245.815 139.997L242.833 119.783L257.507 107.287L275.164 115.005L278.146 135.219L263.472 147.714ZM231.138 152.488L213.481 144.771L210.499 124.557L225.173 112.061L242.83 119.779L245.812 139.993L231.138 152.488Z" stroke="#ECC94B" stroke-opacity="0.15" stroke-linecap="square"/>
</g>
<mask id="mask7_10616_74228" style="mask-type:luminance" maskUnits="userSpaceOnUse" x="256" y="92" width="42" height="66">
<path d="M288.361 92.4787L256.027 97.2528L264.96 157.751L297.293 152.977L288.361 92.4787Z" fill="white"/>
</mask>
<g mask="url(#mask7_10616_74228)">
<path d="M273.372 102.867L266.532 99.8609L265.371 91.9962L271.052 87.1399L277.89 90.1478L279.05 98.0115L273.372 102.867ZM282.295 163.299L275.456 160.292L274.295 152.427L279.974 147.57L286.811 150.578L287.971 158.443L282.295 163.299ZM293.981 130.591L287.144 127.584L285.983 119.719L291.662 114.861L298.5 117.869L299.66 125.734L293.981 130.591ZM261.648 135.366L254.81 132.358L253.649 124.493L259.329 119.635L266.166 122.643L267.328 130.508L261.648 135.366ZM274.298 109.135L261.949 103.739L259.864 89.6071L270.127 80.8697L282.471 86.268L284.557 100.401L274.298 109.135ZM283.22 169.566L270.872 164.171L268.787 150.04L279.049 141.302L291.395 146.698L293.48 160.831L283.22 169.566ZM294.908 136.858L282.559 131.463L280.475 117.33L290.737 108.594L303.082 113.991L305.168 128.122L294.908 136.858ZM262.574 141.632L250.227 136.237L248.142 122.104L258.403 113.368L270.75 118.764L272.834 132.896L262.574 141.632ZM275.194 115.216L257.537 107.5L254.554 87.2852L269.229 74.7892L286.885 82.5078L289.868 102.722L275.194 115.216ZM284.117 175.647L266.46 167.931L263.477 147.717L278.152 135.222L295.808 142.939L298.79 163.153L284.117 175.647ZM295.804 142.94L278.147 135.222L275.165 115.009L289.839 102.513L307.496 110.231L310.478 130.445L295.804 142.94ZM263.47 147.714L245.814 139.997L242.831 119.783L257.506 107.287L275.162 115.005L278.144 135.219L263.47 147.714Z" stroke="#ECC94B" stroke-opacity="0.15" stroke-linecap="square"/>
</g>
<mask id="mask8_10616_74228" style="mask-type:luminance" maskUnits="userSpaceOnUse" x="288" y="87" width="42" height="66">
<path d="M320.693 87.7047L288.359 92.4788L297.292 152.977L329.626 148.203L320.693 87.7047Z" fill="white"/>
</mask>
<g mask="url(#mask8_10616_74228)">
<path d="M305.704 98.0933L298.865 95.0869L297.703 87.2221L303.384 82.3658L310.222 85.3737L311.382 93.2375L305.704 98.0933ZM314.627 158.525L307.788 155.518L306.627 147.653L312.306 142.796L319.143 145.804L320.304 153.669L314.627 158.525ZM326.314 125.817L319.476 122.809L318.315 114.945L323.994 110.087L330.832 113.095L331.992 120.96L326.314 125.817ZM293.98 130.591L287.142 127.584L285.981 119.719L291.661 114.861L298.498 117.869L299.66 125.734L293.98 130.591ZM306.63 104.361L294.281 98.9646L292.197 84.833L302.459 76.0957L314.803 81.4939L316.889 95.6266L306.63 104.361ZM315.552 164.792L303.204 159.397L301.119 145.266L311.381 136.528L323.727 141.924L325.812 156.057L315.552 164.792ZM327.24 132.084L314.891 126.689L312.807 112.556L323.069 103.82L335.415 109.217L337.5 123.348L327.24 132.084ZM294.906 136.858L282.559 131.462L280.474 117.33L290.735 108.594L303.082 113.99L305.166 128.122L294.906 136.858ZM307.526 110.442L289.869 102.726L286.887 82.5111L301.561 70.0151L319.217 77.7338L322.2 97.9483L307.526 110.442ZM316.449 170.873L298.792 163.157L295.809 142.943L310.484 130.448L328.14 138.165L331.122 158.379L316.449 170.873ZM328.136 138.166L310.479 130.448L307.497 110.235L322.171 97.7391L339.828 105.457L342.81 125.671L328.136 138.166ZM295.802 142.94L278.146 135.222L275.163 115.009L289.838 102.513L307.494 110.231L310.476 130.445L295.802 142.94Z" stroke="#ECC94B" stroke-opacity="0.15" stroke-linecap="square"/>
</g>
<mask id="mask9_10616_74228" style="mask-type:luminance" maskUnits="userSpaceOnUse" x="320" y="82" width="42" height="67">
<path d="M353.029 82.9306L320.695 87.7047L329.628 148.203L361.961 143.428L353.029 82.9306Z" fill="white"/>
</mask>
<g mask="url(#mask9_10616_74228)">
<path d="M338.04 93.3192L331.2 90.3128L330.039 82.4481L335.72 77.5918L342.558 80.5997L343.718 88.4634L338.04 93.3192ZM346.963 153.751L340.124 150.744L338.963 142.879L344.642 138.022L351.479 141.03L352.639 148.895L346.963 153.751ZM358.649 121.043L351.812 118.035L350.651 110.171L356.33 105.313L363.168 108.321L364.328 116.186L358.649 121.043ZM326.316 125.817L319.478 122.81L318.317 114.945L323.997 110.087L330.834 113.095L331.996 120.96L326.316 125.817ZM338.966 99.5869L326.617 94.1906L324.532 80.059L334.794 71.3216L347.139 76.7199L349.225 90.8525L338.966 99.5869ZM347.888 160.018L335.54 154.623L333.455 140.492L343.717 131.754L356.063 137.15L358.148 151.283L347.888 160.018ZM359.576 127.31L347.227 121.915L345.143 107.782L355.405 99.0456L367.75 104.442L369.836 118.574L359.576 127.31ZM327.242 132.084L314.895 126.688L312.81 112.556L323.071 103.82L335.418 109.216L337.502 123.348L327.242 132.084ZM339.862 105.668L322.205 97.9516L319.222 77.7371L333.897 65.2411L351.553 72.9597L354.536 93.1743L339.862 105.668ZM348.785 166.099L331.128 158.383L328.145 138.168L342.82 125.674L360.476 133.391L363.458 153.604L348.785 166.099ZM360.472 133.392L342.815 125.674L339.833 105.461L354.507 92.9651L372.164 100.682L375.146 120.897L360.472 133.392ZM328.138 138.166L310.481 130.448L307.499 110.235L322.173 97.7392L339.83 105.457L342.812 125.671L328.138 138.166Z" stroke="#ECC94B" stroke-opacity="0.15" stroke-linecap="square"/>
</g>
<mask id="mask10_10616_74228" style="mask-type:luminance" maskUnits="userSpaceOnUse" x="353" y="78" width="42" height="66">
<path d="M385.361 78.1565L353.027 82.9306L361.96 143.428L394.293 138.654L385.361 78.1565Z" fill="white"/>
</mask>
<g mask="url(#mask10_10616_74228)">
<path d="M370.372 88.5451L363.532 85.5387L362.371 77.674L368.052 72.8177L374.89 75.8256L376.05 83.6893L370.372 88.5451ZM379.295 148.977L372.456 145.97L371.295 138.105L376.974 133.248L383.811 136.256L384.971 144.121L379.295 148.977ZM390.981 116.269L384.144 113.261L382.983 105.397L388.662 100.539L395.5 103.547L396.66 111.412L390.981 116.269ZM358.648 121.043L351.81 118.035L350.649 110.171L356.329 105.313L363.166 108.321L364.328 116.186L358.648 121.043ZM371.298 94.8128L358.949 89.4165L356.864 75.2849L367.127 66.5475L379.471 71.9458L381.557 86.0784L371.298 94.8128ZM380.22 155.244L367.872 149.849L365.787 135.717L376.049 126.98L388.395 132.376L390.48 146.508L380.22 155.244ZM391.908 122.536L379.559 117.14L377.475 103.008L387.737 94.2715L400.082 99.6684L402.168 113.8L391.908 122.536ZM359.574 127.31L347.227 121.914L345.142 107.782L355.403 99.0456L367.75 104.442L369.834 118.574L359.574 127.31ZM372.194 100.894L354.537 93.1775L351.554 72.963L366.229 60.467L383.885 68.1856L386.868 88.4002L372.194 100.894ZM381.117 161.325L363.46 153.609L360.477 133.394L375.152 120.9L392.808 128.617L395.79 148.83L381.117 161.325ZM392.804 128.618L375.147 120.9L372.165 100.687L386.839 88.191L404.496 95.9083L407.478 116.123L392.804 128.618ZM360.47 133.392L342.814 125.674L339.831 105.461L354.506 92.965L372.162 100.682L375.144 120.897L360.47 133.392Z" stroke="#ECC94B" stroke-opacity="0.15" stroke-linecap="square"/>
</g>
<mask id="mask11_10616_74228" style="mask-type:luminance" maskUnits="userSpaceOnUse" x="385" y="73" width="42" height="66">
<path d="M417.697 73.3825L385.363 78.1566L394.296 138.654L426.629 133.88L417.697 73.3825Z" fill="white"/>
</mask>
<g mask="url(#mask11_10616_74228)">
<path d="M402.708 83.7711L395.868 80.7647L394.707 72.8999L400.388 68.0436L407.226 71.0515L408.386 78.9153L402.708 83.7711ZM411.631 144.202L404.792 141.196L403.631 133.331L409.31 128.474L416.147 131.482L417.307 139.347L411.631 144.202ZM423.317 111.495L416.48 108.487L415.319 100.623L420.998 95.7652L427.836 98.7731L428.996 106.638L423.317 111.495ZM390.984 116.269L384.146 113.261L382.985 105.397L388.665 100.539L395.502 103.547L396.664 111.412L390.984 116.269ZM403.634 90.0387L391.285 84.6424L389.2 70.5108L399.462 61.7735L411.807 67.1717L413.893 81.3043L403.634 90.0387ZM412.556 150.47L400.208 145.075L398.123 130.943L408.385 122.206L420.731 127.602L422.816 141.734L412.556 150.47ZM424.244 117.762L411.895 112.366L409.811 98.2336L420.073 89.4975L432.418 94.8943L434.504 109.026L424.244 117.762ZM391.91 122.536L379.563 117.14L377.478 103.007L387.739 94.2715L400.086 99.6682L402.17 113.8L391.91 122.536ZM404.53 96.1195L386.873 88.4035L383.89 68.1889L398.565 55.6929L416.221 63.4116L419.204 83.6261L404.53 96.1195ZM413.453 156.551L395.796 148.835L392.813 128.62L407.488 116.126L425.144 123.843L428.126 144.056L413.453 156.551ZM425.14 123.844L407.483 116.126L404.501 95.9129L419.175 83.4169L436.832 91.1343L439.814 111.349L425.14 123.844ZM392.806 128.618L375.149 120.9L372.167 100.687L386.841 88.191L404.498 95.9084L407.48 116.123L392.806 128.618Z" stroke="#ECC94B" stroke-opacity="0.15" stroke-linecap="square"/>
</g>
<mask id="mask12_10616_74228" style="mask-type:luminance" maskUnits="userSpaceOnUse" x="70" y="181" width="43" height="66">
<path d="M103.271 181.482L70.9375 186.256L79.87 246.754L112.204 241.98L103.271 181.482Z" fill="white"/>
</mask>
<g mask="url(#mask12_10616_74228)">
<path d="M88.2823 191.871L81.4426 188.864L80.2814 180.999L85.9625 176.143L92.8001 179.151L93.96 187.015L88.2823 191.871ZM97.2051 252.302L90.3665 249.296L89.2052 241.431L94.8839 236.574L101.722 239.581L102.882 247.446L97.2051 252.302ZM108.892 219.595L102.054 216.587L100.893 208.722L106.573 203.865L113.41 206.873L114.57 214.738L108.892 219.595ZM76.558 224.369L69.7204 221.361L68.5591 213.496L74.2389 208.639L81.0765 211.647L82.2378 219.512L76.558 224.369ZM89.2078 198.138L76.8589 192.742L74.7746 178.61L85.0367 169.873L97.3813 175.271L99.4668 189.404L89.2078 198.138ZM98.1305 258.57L85.7818 253.175L83.6975 239.043L93.9596 230.306L106.305 235.701L108.39 249.834L98.1305 258.57ZM109.818 225.861L97.4693 220.466L95.3849 206.333L105.647 197.597L117.993 202.994L120.078 217.125L109.818 225.861ZM77.4844 230.635L65.1368 225.24L63.0524 211.107L73.3135 202.371L85.6601 207.768L87.7444 221.899L77.4844 230.635ZM90.1044 204.219L72.447 196.503L69.4646 176.288L84.1389 163.793L101.796 171.511L104.778 191.726L90.1044 204.219ZM99.0272 264.65L81.3698 256.934L78.3873 236.72L93.0618 224.225L110.718 231.943L113.7 252.156L99.0272 264.65ZM110.714 231.943L93.0573 224.226L90.0751 204.012L104.749 191.517L122.406 199.234L125.388 219.448L110.714 231.943ZM78.3801 236.717L60.7237 229L57.7414 208.787L72.4157 196.291L90.0721 204.008L93.0545 224.223L78.3801 236.717Z" stroke="#ECC94B" stroke-opacity="0.15" stroke-linecap="square"/>
</g>
<mask id="mask13_10616_74228" style="mask-type:luminance" maskUnits="userSpaceOnUse" x="103" y="176" width="42" height="66">
<path d="M135.603 176.708L103.27 181.482L112.202 241.98L144.536 237.206L135.603 176.708Z" fill="white"/>
</mask>
<g mask="url(#mask13_10616_74228)">
<path d="M120.614 187.097L113.775 184.09L112.613 176.225L118.294 171.369L125.132 174.377L126.292 182.241L120.614 187.097ZM129.537 247.528L122.699 244.521L121.537 236.657L127.216 231.8L134.054 234.807L135.214 242.672L129.537 247.528ZM141.224 214.821L134.386 211.813L133.225 203.948L138.905 199.091L145.742 202.099L146.902 209.964L141.224 214.821ZM108.89 219.595L102.052 216.587L100.891 208.722L106.571 203.865L113.409 206.873L114.57 214.737L108.89 219.595ZM121.54 193.364L109.191 187.968L107.107 173.836L117.369 165.099L129.713 170.497L131.799 184.63L121.54 193.364ZM130.463 253.796L118.114 248.401L116.03 234.269L126.292 225.532L138.637 230.927L140.722 245.06L130.463 253.796ZM142.15 221.087L129.801 215.692L127.717 201.559L137.979 192.823L150.325 198.22L152.41 212.351L142.15 221.087ZM109.816 225.861L97.4688 220.466L95.3844 206.333L105.646 197.597L117.992 202.994L120.076 217.125L109.816 225.861ZM122.436 199.445L104.779 191.729L101.797 171.514L116.471 159.018L134.128 166.737L137.11 186.952L122.436 199.445ZM131.359 259.876L113.702 252.16L110.719 231.946L125.394 219.451L143.05 227.169L146.032 247.382L131.359 259.876ZM143.046 227.169L125.389 219.452L122.407 199.238L137.081 186.742L154.738 194.46L157.72 214.674L143.046 227.169ZM110.712 231.943L93.0557 224.226L90.0735 204.012L104.748 191.517L122.404 199.234L125.387 219.448L110.712 231.943Z" stroke="#ECC94B" stroke-opacity="0.15" stroke-linecap="square"/>
</g>
<mask id="mask14_10616_74228" style="mask-type:luminance" maskUnits="userSpaceOnUse" x="135" y="171" width="42" height="67">
<path d="M167.939 171.934L135.605 176.708L144.538 237.206L176.872 232.432L167.939 171.934Z" fill="white"/>
</mask>
<g mask="url(#mask14_10616_74228)">
<path d="M152.95 182.323L146.111 179.316L144.949 171.451L150.63 166.595L157.468 169.603L158.628 177.467L152.95 182.323ZM161.873 242.754L155.034 239.747L153.873 231.883L159.552 227.025L166.389 230.033L167.55 237.898L161.873 242.754ZM173.56 210.047L166.722 207.039L165.561 199.174L171.241 194.317L178.078 197.325L179.238 205.189L173.56 210.047ZM141.226 214.821L134.388 211.813L133.227 203.948L138.907 199.091L145.745 202.099L146.906 209.963L141.226 214.821ZM153.876 188.59L141.527 183.194L139.443 169.062L149.705 160.325L162.049 165.723L164.135 179.856L153.876 188.59ZM162.798 249.022L150.45 243.626L148.366 229.495L158.628 220.758L170.973 226.153L173.058 240.286L162.798 249.022ZM174.486 216.313L162.137 210.918L160.053 196.785L170.315 188.049L182.661 193.446L184.746 207.577L174.486 216.313ZM142.152 221.087L129.805 215.692L127.72 201.559L137.981 192.823L150.328 198.22L152.412 212.351L142.152 221.087ZM154.772 194.671L137.115 186.955L134.133 166.74L148.807 154.244L166.463 161.963L169.446 182.178L154.772 194.671ZM163.695 255.102L146.038 247.386L143.055 227.172L157.73 214.677L175.386 222.394L178.368 242.608L163.695 255.102ZM175.382 222.395L157.725 214.678L154.743 194.464L169.417 181.968L187.074 189.686L190.056 209.9L175.382 222.395ZM143.048 227.169L125.392 219.452L122.409 199.238L137.084 186.742L154.74 194.46L157.723 214.674L143.048 227.169Z" stroke="#ECC94B" stroke-opacity="0.15" stroke-linecap="square"/>
</g>
<mask id="mask15_10616_74228" style="mask-type:luminance" maskUnits="userSpaceOnUse" x="167" y="167" width="43" height="66">
<path d="M200.271 167.16L167.938 171.934L176.87 232.432L209.204 227.658L200.271 167.16Z" fill="white"/>
</mask>
<g mask="url(#mask15_10616_74228)">
<path d="M185.282 177.548L178.443 174.542L177.281 166.677L182.962 161.821L189.8 164.829L190.96 172.693L185.282 177.548ZM194.205 237.98L187.366 234.973L186.205 227.109L191.884 222.251L198.721 225.259L199.882 233.124L194.205 237.98ZM205.892 205.273L199.054 202.265L197.893 194.4L203.572 189.543L210.41 192.55L211.57 200.415L205.892 205.273ZM173.558 210.047L166.72 207.039L165.559 199.174L171.239 194.317L178.077 197.325L179.238 205.189L173.558 210.047ZM186.208 183.816L173.859 178.42L171.775 164.288L182.037 155.551L194.381 160.949L196.467 175.082L186.208 183.816ZM195.13 244.248L182.782 238.852L180.698 224.721L190.959 215.984L203.305 221.379L205.39 235.512L195.13 244.248ZM206.818 211.539L194.469 206.144L192.385 192.011L202.647 183.275L214.993 188.672L217.078 202.803L206.818 211.539ZM174.484 216.313L162.137 210.918L160.052 196.785L170.313 188.049L182.66 193.446L184.744 207.577L174.484 216.313ZM187.104 189.897L169.447 182.181L166.465 161.966L181.139 149.47L198.795 157.189L201.778 177.404L187.104 189.897ZM196.027 250.328L178.37 242.612L175.387 222.398L190.062 209.903L207.718 217.62L210.7 237.834L196.027 250.328ZM207.714 217.621L190.057 209.904L187.075 189.69L201.749 177.194L219.406 184.912L222.388 205.126L207.714 217.621ZM175.38 222.395L157.724 214.678L154.741 194.464L169.416 181.968L187.072 189.686L190.054 209.9L175.38 222.395Z" stroke="#ECC94B" stroke-opacity="0.15" stroke-linecap="square"/>
</g>
<mask id="mask16_10616_74228" style="mask-type:luminance" maskUnits="userSpaceOnUse" x="200" y="162" width="42" height="66">
<path d="M232.607 162.386L200.273 167.16L209.206 227.658L241.54 222.884L232.607 162.386Z" fill="white"/>
</mask>
<g mask="url(#mask16_10616_74228)">
<path d="M217.618 172.774L210.779 169.768L209.617 161.903L215.298 157.047L222.136 160.055L223.296 167.919L217.618 172.774ZM226.541 233.206L219.702 230.199L218.541 222.335L224.22 217.477L231.057 220.485L232.218 228.35L226.541 233.206ZM238.228 200.499L231.39 197.491L230.229 189.626L235.908 184.769L242.746 187.776L243.906 195.641L238.228 200.499ZM205.894 205.273L199.056 202.265L197.895 194.4L203.575 189.543L210.412 192.551L211.574 200.415L205.894 205.273ZM218.544 179.042L206.195 173.646L204.111 159.514L214.373 150.777L226.717 156.175L228.803 170.308L218.544 179.042ZM227.466 239.474L215.118 234.078L213.033 219.947L223.296 211.21L235.641 216.605L237.726 230.738L227.466 239.474ZM239.154 206.765L226.805 201.37L224.721 187.237L234.983 178.501L247.329 183.898L249.414 198.029L239.154 206.765ZM206.82 211.539L194.473 206.144L192.388 192.011L202.649 183.275L214.996 188.672L217.08 202.803L206.82 211.539ZM219.44 185.123L201.783 177.407L198.801 157.192L213.475 144.696L231.131 152.415L234.114 172.629L219.44 185.123ZM228.363 245.554L210.706 237.838L207.723 217.624L222.398 205.129L240.054 212.846L243.036 233.06L228.363 245.554ZM240.05 212.847L222.393 205.13L219.411 184.916L234.085 172.42L251.742 180.138L254.724 200.352L240.05 212.847ZM207.716 217.621L190.06 209.904L187.077 189.69L201.752 177.194L219.408 184.912L222.39 205.126L207.716 217.621Z" stroke="#ECC94B" stroke-opacity="0.15" stroke-linecap="square"/>
</g>
<mask id="mask17_10616_74228" style="mask-type:luminance" maskUnits="userSpaceOnUse" x="232" y="157" width="42" height="66">
<path d="M264.939 157.612L232.605 162.386L241.538 222.884L273.872 218.11L264.939 157.612Z" fill="white"/>
</mask>
<g mask="url(#mask17_10616_74228)">
<path d="M249.95 168L243.111 164.994L241.949 157.129L247.63 152.273L254.468 155.281L255.628 163.145L249.95 168ZM258.873 228.432L252.034 225.425L250.873 217.56L256.552 212.703L263.389 215.711L264.55 223.576L258.873 228.432ZM270.56 195.725L263.722 192.717L262.561 184.852L268.241 179.994L275.078 183.002L276.238 190.867L270.56 195.725ZM238.226 200.499L231.388 197.491L230.227 189.626L235.907 184.769L242.745 187.776L243.906 195.641L238.226 200.499ZM250.876 174.268L238.527 168.872L236.443 154.74L246.705 146.003L259.049 151.401L261.135 165.534L250.876 174.268ZM259.798 234.699L247.45 229.304L245.366 215.173L255.628 206.435L267.973 211.831L270.058 225.964L259.798 234.699ZM271.486 201.991L259.137 196.596L257.053 182.463L267.315 173.727L279.661 179.124L281.746 193.255L271.486 201.991ZM239.152 206.765L226.805 201.37L224.72 187.237L234.981 178.501L247.328 183.898L249.412 198.029L239.152 206.765ZM251.772 180.349L234.115 172.633L231.133 152.418L245.807 139.922L263.463 147.641L266.446 167.855L251.772 180.349ZM260.695 240.78L243.038 233.064L240.055 212.85L254.73 200.355L272.386 208.072L275.368 228.286L260.695 240.78ZM272.382 208.073L254.725 200.356L251.743 180.142L266.417 167.646L284.074 175.364L287.056 195.578L272.382 208.073ZM240.048 212.847L222.392 205.13L219.409 184.916L234.084 172.42L251.74 180.138L254.723 200.352L240.048 212.847Z" stroke="#ECC94B" stroke-opacity="0.15" stroke-linecap="square"/>
</g>
<mask id="mask18_10616_74228" style="mask-type:luminance" maskUnits="userSpaceOnUse" x="264" y="152" width="43" height="67">
<path d="M297.271 152.838L264.938 157.612L273.87 218.11L306.204 213.336L297.271 152.838Z" fill="white"/>
</mask>
<g mask="url(#mask18_10616_74228)">
<path d="M282.282 163.226L275.443 160.22L274.281 152.355L279.962 147.499L286.8 150.507L287.96 158.37L282.282 163.226ZM291.205 223.658L284.366 220.651L283.205 212.786L288.884 207.929L295.722 210.937L296.882 218.802L291.205 223.658ZM302.892 190.95L296.054 187.943L294.893 180.078L300.573 175.22L307.41 178.228L308.57 186.093L302.892 190.95ZM270.558 195.725L263.72 192.717L262.559 184.852L268.239 179.994L275.077 183.002L276.238 190.867L270.558 195.725ZM283.208 169.494L270.859 164.098L268.775 149.966L279.037 141.229L291.381 146.627L293.467 160.76L283.208 169.494ZM292.13 229.925L279.782 224.53L277.698 210.399L287.96 201.661L300.305 207.057L302.39 221.19L292.13 229.925ZM303.818 197.217L291.469 191.822L289.385 177.689L299.647 168.953L311.993 174.35L314.078 188.481L303.818 197.217ZM271.484 201.991L259.137 196.596L257.052 182.463L267.313 173.727L279.66 179.123L281.744 193.255L271.484 201.991ZM284.104 175.575L266.447 167.859L263.465 147.644L278.139 135.148L295.796 142.867L298.778 163.081L284.104 175.575ZM293.027 236.006L275.37 228.29L272.387 208.076L287.062 195.581L304.718 203.298L307.7 223.512L293.027 236.006ZM304.714 203.299L287.057 195.581L284.075 175.368L298.749 162.872L316.406 170.59L319.388 190.804L304.714 203.299ZM272.38 208.073L254.724 200.356L251.741 180.142L266.416 167.646L284.072 175.364L287.055 195.578L272.38 208.073Z" stroke="#ECC94B" stroke-opacity="0.15" stroke-linecap="square"/>
</g>
<mask id="mask19_10616_74228" style="mask-type:luminance" maskUnits="userSpaceOnUse" x="297" y="148" width="42" height="66">
<path d="M329.607 148.064L297.273 152.838L306.206 213.336L338.54 208.562L329.607 148.064Z" fill="white"/>
</mask>
<g mask="url(#mask19_10616_74228)">
<path d="M314.618 158.452L307.779 155.446L306.617 147.581L312.298 142.725L319.136 145.733L320.296 153.596L314.618 158.452ZM323.541 218.884L316.702 215.877L315.541 208.012L321.22 203.155L328.057 206.163L329.218 214.028L323.541 218.884ZM335.228 186.176L328.39 183.168L327.229 175.304L332.908 170.446L339.746 173.454L340.906 181.319L335.228 186.176ZM302.894 190.95L296.056 187.943L294.895 180.078L300.575 175.22L307.412 178.228L308.574 186.093L302.894 190.95ZM315.544 164.72L303.195 159.324L301.111 145.192L311.373 136.455L323.717 141.853L325.803 155.986L315.544 164.72ZM324.466 225.151L312.118 219.756L310.033 205.625L320.296 196.887L332.641 202.283L334.726 216.416L324.466 225.151ZM336.154 192.443L323.805 187.048L321.721 172.915L331.983 164.179L344.329 169.576L346.414 183.707L336.154 192.443ZM303.82 197.217L291.473 191.821L289.388 177.689L299.649 168.953L311.996 174.349L314.08 188.481L303.82 197.217ZM316.44 170.801L298.783 163.085L295.801 142.87L310.475 130.374L328.131 138.093L331.114 158.307L316.44 170.801ZM325.363 231.232L307.706 223.516L304.723 203.302L319.398 190.807L337.054 198.524L340.036 218.738L325.363 231.232ZM337.05 198.525L319.393 190.807L316.411 170.594L331.085 158.098L348.742 165.816L351.724 186.03L337.05 198.525ZM304.716 203.299L287.06 195.581L284.077 175.368L298.752 162.872L316.408 170.59L319.39 190.804L304.716 203.299Z" stroke="#ECC94B" stroke-opacity="0.15" stroke-linecap="square"/>
</g>
<mask id="mask20_10616_74228" style="mask-type:luminance" maskUnits="userSpaceOnUse" x="329" y="143" width="42" height="66">
<path d="M361.939 143.29L329.605 148.064L338.538 208.561L370.872 203.787L361.939 143.29Z" fill="white"/>
</mask>
<g mask="url(#mask20_10616_74228)">
<path d="M346.95 153.678L340.111 150.672L338.949 142.807L344.63 137.951L351.468 140.959L352.628 148.822L346.95 153.678ZM355.873 214.11L349.034 211.103L347.873 203.238L353.552 198.381L360.389 201.389L361.55 209.254L355.873 214.11ZM367.56 181.402L360.722 178.394L359.561 170.53L365.24 165.672L372.078 168.68L373.238 176.545L367.56 181.402ZM335.226 186.176L328.388 183.168L327.227 175.304L332.907 170.446L339.745 173.454L340.906 181.319L335.226 186.176ZM347.876 159.946L335.527 154.549L333.443 140.418L343.705 131.681L356.049 137.079L358.135 151.211L347.876 159.946ZM356.798 220.377L344.45 214.982L342.366 200.851L352.628 192.113L364.973 197.509L367.058 211.641L356.798 220.377ZM368.486 187.669L356.137 182.273L354.053 168.141L364.315 159.405L376.661 164.801L378.746 178.933L368.486 187.669ZM336.152 192.443L323.805 187.047L321.72 172.915L331.981 164.179L344.328 169.575L346.412 183.707L336.152 192.443ZM348.772 166.027L331.115 158.311L328.133 138.096L342.807 125.6L360.463 133.319L363.446 153.533L348.772 166.027ZM357.695 226.458L340.038 218.742L337.055 198.527L351.73 186.033L369.386 193.75L372.368 213.963L357.695 226.458ZM369.382 193.751L351.725 186.033L348.743 165.82L363.417 153.324L381.074 161.041L384.056 181.256L369.382 193.751ZM337.048 198.525L319.392 190.807L316.409 170.594L331.084 158.098L348.74 165.815L351.723 186.03L337.048 198.525Z" stroke="#ECC94B" stroke-opacity="0.15" stroke-linecap="square"/>
</g>
<mask id="mask21_10616_74228" style="mask-type:luminance" maskUnits="userSpaceOnUse" x="361" y="138" width="43" height="66">
<path d="M394.275 138.516L361.941 143.29L370.874 203.787L403.208 199.013L394.275 138.516Z" fill="white"/>
</mask>
<g mask="url(#mask21_10616_74228)">
<path d="M379.286 148.904L372.447 145.898L371.285 138.033L376.966 133.177L383.804 136.185L384.964 144.048L379.286 148.904ZM388.209 209.336L381.37 206.329L380.209 198.464L385.888 193.607L392.725 196.615L393.886 204.48L388.209 209.336ZM399.896 176.628L393.058 173.62L391.897 165.756L397.576 160.898L404.414 163.906L405.574 171.771L399.896 176.628ZM367.562 181.402L360.724 178.394L359.563 170.53L365.243 165.672L372.08 168.68L373.242 176.545L367.562 181.402ZM380.212 155.172L367.863 149.775L365.779 135.644L376.041 126.907L388.385 132.305L390.471 146.437L380.212 155.172ZM389.134 215.603L376.786 210.208L374.701 196.076L384.963 187.339L397.309 192.735L399.394 206.867L389.134 215.603ZM400.822 182.895L388.473 177.499L386.389 163.367L396.651 154.631L408.997 160.027L411.082 174.159L400.822 182.895ZM368.488 187.669L356.141 182.273L354.056 168.141L364.317 159.405L376.664 164.801L378.748 178.933L368.488 187.669ZM381.108 161.253L363.451 153.536L360.469 133.322L375.143 120.826L392.799 128.545L395.782 148.759L381.108 161.253ZM390.031 221.684L372.374 213.968L369.391 193.753L384.066 181.259L401.722 188.976L404.704 209.189L390.031 221.684ZM401.718 188.977L384.061 181.259L381.079 161.046L395.753 148.55L413.41 156.267L416.392 176.482L401.718 188.977ZM369.384 193.751L351.728 186.033L348.745 165.82L363.42 153.324L381.076 161.041L384.058 181.256L369.384 193.751Z" stroke="#ECC94B" stroke-opacity="0.15" stroke-linecap="square"/>
</g>
<mask id="mask22_10616_74228" style="mask-type:luminance" maskUnits="userSpaceOnUse" x="394" y="133" width="42" height="67">
<path d="M426.607 133.741L394.273 138.516L403.206 199.013L435.54 194.239L426.607 133.741Z" fill="white"/>
</mask>
<g mask="url(#mask22_10616_74228)">
<path d="M411.618 144.13L404.779 141.124L403.617 133.259L409.298 128.403L416.136 131.411L417.296 139.274L411.618 144.13ZM420.541 204.561L413.702 201.555L412.541 193.69L418.22 188.833L425.057 191.841L426.218 199.706L420.541 204.561ZM432.228 171.854L425.39 168.846L424.229 160.982L429.908 156.124L436.746 159.132L437.906 166.997L432.228 171.854ZM399.894 176.628L393.056 173.62L391.895 165.756L397.575 160.898L404.412 163.906L405.574 171.771L399.894 176.628ZM412.544 150.398L400.195 145.001L398.111 130.87L408.373 122.132L420.717 127.531L422.803 141.663L412.544 150.398ZM421.466 210.829L409.118 205.434L407.033 191.302L417.296 182.565L429.641 187.961L431.726 202.093L421.466 210.829ZM433.154 178.121L420.805 172.725L418.721 158.593L428.983 149.856L441.329 155.253L443.414 169.385L433.154 178.121ZM400.82 182.895L388.473 177.499L386.388 163.366L396.649 154.631L408.996 160.027L411.08 174.159L400.82 182.895ZM413.44 156.478L395.783 148.762L392.801 128.548L407.475 116.052L425.131 123.771L428.114 143.985L413.44 156.478ZM422.363 216.91L404.706 209.194L401.723 188.979L416.398 176.485L434.054 184.202L437.036 204.415L422.363 216.91ZM434.05 184.203L416.393 176.485L413.411 156.272L428.085 143.776L445.742 151.493L448.724 171.708L434.05 184.203ZM401.716 188.977L384.06 181.259L381.077 161.046L395.752 148.55L413.408 156.267L416.39 176.482L401.716 188.977Z" stroke="#ECC94B" stroke-opacity="0.15" stroke-linecap="square"/>
</g>
<mask id="mask23_10616_74228" style="mask-type:luminance" maskUnits="userSpaceOnUse" x="79" y="241" width="43" height="67">
<path d="M112.181 241.841L79.8477 246.615L88.7802 307.113L121.114 302.339L112.181 241.841Z" fill="white"/>
</mask>
<g mask="url(#mask23_10616_74228)">
<path d="M97.1925 252.23L90.3528 249.223L89.1916 241.359L94.8726 236.502L101.71 239.51L102.87 247.374L97.1925 252.23ZM106.115 312.661L99.2766 309.655L98.1154 301.79L103.794 296.933L110.632 299.94L111.792 307.805L106.115 312.661ZM117.802 279.954L110.964 276.946L109.803 269.081L115.483 264.224L122.32 267.232L123.48 275.097L117.802 279.954ZM85.4682 284.728L78.6305 281.72L77.4693 273.855L83.149 268.998L89.9867 272.006L91.1479 279.871L85.4682 284.728ZM98.1179 258.497L85.769 253.101L83.6848 238.969L93.9468 230.232L106.291 235.63L108.377 249.763L98.1179 258.497ZM107.041 318.929L94.6919 313.534L92.6077 299.402L102.87 290.665L115.215 296.06L117.301 310.193L107.041 318.929ZM118.728 286.22L106.379 280.825L104.295 266.692L114.557 257.956L126.903 263.353L128.988 277.484L118.728 286.22ZM86.3945 290.994L74.047 285.599L71.9625 271.466L82.2236 262.73L94.5703 268.127L96.6545 282.258L86.3945 290.994ZM99.0146 264.578L81.3572 256.862L78.3748 236.647L93.049 224.152L110.706 231.87L113.688 252.085L99.0146 264.578ZM107.937 325.01L90.2799 317.293L87.2975 297.079L101.972 284.584L119.628 292.302L122.611 312.515L107.937 325.01ZM119.624 292.302L101.967 284.585L98.9852 264.371L113.659 251.876L131.316 259.593L134.298 279.807L119.624 292.302ZM87.2903 297.076L69.6338 289.359L66.6516 269.146L81.3258 256.65L98.9823 264.367L101.965 284.582L87.2903 297.076Z" stroke="#ECC94B" stroke-opacity="0.15" stroke-linecap="square"/>
</g>
<mask id="mask24_10616_74228" style="mask-type:luminance" maskUnits="userSpaceOnUse" x="112" y="237" width="42" height="66">
<path d="M144.517 237.067L112.184 241.841L121.116 302.339L153.45 297.565L144.517 237.067Z" fill="white"/>
</mask>
<g mask="url(#mask24_10616_74228)">
<path d="M129.528 247.456L122.689 244.449L121.528 236.584L127.209 231.728L134.046 234.736L135.206 242.6L129.528 247.456ZM138.451 307.887L131.613 304.88L130.451 297.016L136.13 292.159L142.968 295.166L144.128 303.031L138.451 307.887ZM150.138 275.18L143.3 272.172L142.139 264.307L147.819 259.45L154.656 262.458L155.816 270.323L150.138 275.18ZM117.804 279.954L110.966 276.946L109.805 269.081L115.485 264.224L122.323 267.232L123.484 275.096L117.804 279.954ZM130.454 253.723L118.105 248.327L116.021 234.195L126.283 225.458L138.627 230.856L140.713 244.989L130.454 253.723ZM139.377 314.155L127.028 308.76L124.944 294.628L135.206 285.891L147.551 291.286L149.637 305.419L139.377 314.155ZM151.064 281.446L138.715 276.051L136.631 261.918L146.893 253.182L159.239 258.579L161.324 272.71L151.064 281.446ZM118.73 286.22L106.383 280.825L104.298 266.692L114.56 257.956L126.906 263.353L128.99 277.484L118.73 286.22ZM131.351 259.804L113.693 252.088L110.711 231.873L125.385 219.377L143.042 227.096L146.024 247.311L131.351 259.804ZM140.273 320.235L122.616 312.519L119.633 292.305L134.308 279.81L151.964 287.528L154.947 307.741L140.273 320.235ZM151.96 287.528L134.303 279.811L131.321 259.597L145.995 247.101L163.652 254.819L166.634 275.033L151.96 287.528ZM119.626 292.302L101.97 284.585L98.9875 264.371L113.662 251.876L131.318 259.593L134.301 279.807L119.626 292.302Z" stroke="#ECC94B" stroke-opacity="0.15" stroke-linecap="square"/>
</g>
<mask id="mask25_10616_74228" style="mask-type:luminance" maskUnits="userSpaceOnUse" x="144" y="232" width="42" height="66">
<path d="M176.849 232.293L144.516 237.067L153.448 297.565L185.782 292.791L176.849 232.293Z" fill="white"/>
</mask>
<g mask="url(#mask25_10616_74228)">
<path d="M161.86 242.682L155.021 239.675L153.86 231.81L159.541 226.954L166.378 229.962L167.538 237.826L161.86 242.682ZM170.783 303.113L163.945 300.106L162.783 292.242L168.462 287.384L175.3 290.392L176.46 298.257L170.783 303.113ZM182.47 270.406L175.632 267.398L174.471 259.533L180.151 254.676L186.988 257.684L188.148 265.549L182.47 270.406ZM150.136 275.18L143.299 272.172L142.137 264.307L147.817 259.45L154.655 262.458L155.816 270.322L150.136 275.18ZM162.786 248.949L150.437 243.553L148.353 229.421L158.615 220.684L170.959 226.082L173.045 240.215L162.786 248.949ZM171.709 309.381L159.36 303.986L157.276 289.854L167.538 281.117L179.883 286.512L181.969 300.645L171.709 309.381ZM183.396 276.672L171.047 271.277L168.963 257.144L179.225 248.408L191.571 253.805L193.656 267.936L183.396 276.672ZM151.063 281.446L138.715 276.051L136.631 261.918L146.892 253.182L159.238 258.579L161.322 272.71L151.063 281.446ZM163.683 255.03L146.025 247.314L143.043 227.099L157.717 214.603L175.374 222.322L178.356 242.537L163.683 255.03ZM172.605 315.461L154.948 307.745L151.965 287.531L166.64 275.036L184.296 282.753L187.279 302.967L172.605 315.461ZM184.292 282.754L166.635 275.037L163.653 254.823L178.327 242.327L195.984 250.045L198.966 270.259L184.292 282.754ZM151.958 287.528L134.302 279.811L131.32 259.597L145.994 247.101L163.65 254.819L166.633 275.033L151.958 287.528Z" stroke="#ECC94B" stroke-opacity="0.15" stroke-linecap="square"/>
</g>
<mask id="mask26_10616_74228" style="mask-type:luminance" maskUnits="userSpaceOnUse" x="176" y="227" width="43" height="66">
<path d="M209.185 227.519L176.852 232.293L185.784 292.791L218.118 288.017L209.185 227.519Z" fill="white"/>
</mask>
<g mask="url(#mask26_10616_74228)">
<path d="M194.196 237.907L187.357 234.901L186.195 227.036L191.876 222.18L198.714 225.188L199.874 233.052L194.196 237.907ZM203.119 298.339L196.281 295.332L195.119 287.468L200.798 282.61L207.635 285.618L208.796 293.483L203.119 298.339ZM214.806 265.632L207.968 262.624L206.807 254.759L212.486 249.902L219.324 252.909L220.484 260.774L214.806 265.632ZM182.472 270.406L175.634 267.398L174.473 259.533L180.153 254.676L186.991 257.684L188.152 265.548L182.472 270.406ZM195.122 244.175L182.773 238.779L180.689 224.647L190.951 215.91L203.295 221.308L205.381 235.441L195.122 244.175ZM204.044 304.607L191.696 299.211L189.612 285.08L199.874 276.343L212.219 281.738L214.304 295.871L204.044 304.607ZM215.732 271.898L203.383 266.503L201.299 252.37L211.561 243.634L223.907 249.031L225.992 263.162L215.732 271.898ZM183.398 276.672L171.051 271.277L168.966 257.144L179.228 248.408L191.574 253.805L193.658 267.936L183.398 276.672ZM196.018 250.256L178.361 242.54L175.379 222.325L190.053 209.829L207.709 217.548L210.692 237.763L196.018 250.256ZM204.941 310.687L187.284 302.971L184.301 282.757L198.976 270.262L216.632 277.979L219.614 298.193L204.941 310.687ZM216.628 277.98L198.971 270.263L195.989 250.049L210.663 237.553L228.32 245.271L231.302 265.485L216.628 277.98ZM184.294 282.754L166.638 275.037L163.656 254.823L178.33 242.327L195.986 250.045L198.968 270.259L184.294 282.754Z" stroke="#ECC94B" stroke-opacity="0.15" stroke-linecap="square"/>
</g>
<mask id="mask27_10616_74228" style="mask-type:luminance" maskUnits="userSpaceOnUse" x="209" y="222" width="42" height="67">
<path d="M241.517 222.745L209.184 227.519L218.116 288.017L250.45 283.243L241.517 222.745Z" fill="white"/>
</mask>
<g mask="url(#mask27_10616_74228)">
<path d="M226.528 233.133L219.689 230.127L218.528 222.262L224.209 217.406L231.046 220.414L232.206 228.278L226.528 233.133ZM235.451 293.565L228.613 290.558L227.451 282.694L233.13 277.836L239.968 280.844L241.128 288.709L235.451 293.565ZM247.138 260.858L240.3 257.85L239.139 249.985L244.819 245.128L251.656 248.135L252.816 256L247.138 260.858ZM214.804 265.632L207.966 262.624L206.805 254.759L212.485 249.902L219.323 252.909L220.484 260.774L214.804 265.632ZM227.454 239.401L215.105 234.005L213.021 219.873L223.283 211.136L235.627 216.534L237.713 230.667L227.454 239.401ZM236.377 299.833L224.028 294.437L221.944 280.306L232.206 271.568L244.551 276.964L246.637 291.097L236.377 299.833ZM248.064 267.124L235.715 261.729L233.631 247.596L243.893 238.86L256.239 244.257L258.324 258.388L248.064 267.124ZM215.73 271.898L203.383 266.503L201.298 252.37L211.56 243.634L223.906 249.031L225.99 263.162L215.73 271.898ZM228.351 245.482L210.693 237.766L207.711 217.551L222.385 205.055L240.042 212.774L243.024 232.988L228.351 245.482ZM237.273 305.913L219.616 298.197L216.633 277.983L231.308 265.488L248.964 273.205L251.947 293.419L237.273 305.913ZM248.96 273.206L231.303 265.489L228.321 245.275L242.995 232.779L260.652 240.497L263.634 260.711L248.96 273.206ZM216.626 277.98L198.97 270.263L195.988 250.049L210.662 237.553L228.318 245.271L231.301 265.485L216.626 277.98Z" stroke="#ECC94B" stroke-opacity="0.15" stroke-linecap="square"/>
</g>
<mask id="mask28_10616_74228" style="mask-type:luminance" maskUnits="userSpaceOnUse" x="241" y="217" width="42" height="67">
<path d="M273.853 217.971L241.52 222.745L250.452 283.243L282.786 278.469L273.853 217.971Z" fill="white"/>
</mask>
<g mask="url(#mask28_10616_74228)">
<path d="M258.864 228.359L252.025 225.353L250.863 217.488L256.544 212.632L263.382 215.64L264.542 223.504L258.864 228.359ZM267.787 288.791L260.948 285.784L259.787 277.919L265.466 273.062L272.304 276.07L273.464 283.935L267.787 288.791ZM279.474 256.084L272.636 253.076L271.475 245.211L277.155 240.353L283.992 243.361L285.152 251.226L279.474 256.084ZM247.14 260.858L240.302 257.85L239.141 249.985L244.821 245.128L251.659 248.135L252.82 256L247.14 260.858ZM259.79 234.627L247.441 229.231L245.357 215.099L255.619 206.362L267.963 211.76L270.049 225.893L259.79 234.627ZM268.713 295.058L256.364 289.663L254.28 275.532L264.542 266.794L276.887 272.19L278.972 286.323L268.713 295.058ZM280.4 262.35L268.051 256.955L265.967 242.822L276.229 234.086L288.575 239.483L290.66 253.614L280.4 262.35ZM248.066 267.124L235.719 261.729L233.634 247.596L243.896 238.86L256.242 244.257L258.326 258.388L248.066 267.124ZM260.686 240.708L243.029 232.992L240.047 212.777L254.721 200.281L272.378 208L275.36 228.214L260.686 240.708ZM269.609 301.139L251.952 293.423L248.969 273.209L263.644 260.714L281.3 268.431L284.282 288.645L269.609 301.139ZM281.296 268.432L263.639 260.715L260.657 240.501L275.331 228.005L292.988 235.723L295.97 255.937L281.296 268.432ZM248.962 273.206L231.306 265.489L228.323 245.275L242.998 232.779L260.654 240.497L263.637 260.711L248.962 273.206Z" stroke="#ECC94B" stroke-opacity="0.15" stroke-linecap="square"/>
</g>
<mask id="mask29_10616_74228" style="mask-type:luminance" maskUnits="userSpaceOnUse" x="273" y="213" width="43" height="66">
<path d="M306.185 213.197L273.852 217.971L282.784 278.469L315.118 273.695L306.185 213.197Z" fill="white"/>
</mask>
<g mask="url(#mask29_10616_74228)">
<path d="M291.196 223.585L284.357 220.579L283.195 212.714L288.877 207.858L295.714 210.866L296.874 218.73L291.196 223.585ZM300.119 284.017L293.281 281.01L292.119 273.145L297.798 268.288L304.636 271.296L305.796 279.161L300.119 284.017ZM311.806 251.309L304.968 248.302L303.807 240.437L309.487 235.579L316.324 238.587L317.484 246.452L311.806 251.309ZM279.472 256.084L272.634 253.076L271.473 245.211L277.153 240.353L283.991 243.361L285.152 251.226L279.472 256.084ZM292.122 229.853L279.773 224.457L277.689 210.325L287.951 201.588L300.295 206.986L302.381 221.119L292.122 229.853ZM301.045 290.284L288.696 284.889L286.612 270.758L296.874 262.02L309.219 267.416L311.305 281.549L301.045 290.284ZM312.732 257.576L300.383 252.181L298.299 238.048L308.561 229.312L320.907 234.709L322.992 248.84L312.732 257.576ZM280.398 262.35L268.051 256.955L265.966 242.822L276.228 234.086L288.574 239.482L290.658 253.614L280.398 262.35ZM293.018 235.934L275.361 228.218L272.379 208.003L287.053 195.507L304.71 203.226L307.692 223.44L293.018 235.934ZM301.941 296.365L284.284 288.649L281.301 268.435L295.976 255.94L313.632 263.657L316.615 283.871L301.941 296.365ZM313.628 263.658L295.971 255.94L292.989 235.727L307.663 223.231L325.32 230.949L328.302 251.163L313.628 263.658ZM281.294 268.432L263.638 260.715L260.656 240.501L275.33 228.005L292.986 235.723L295.969 255.937L281.294 268.432Z" stroke="#ECC94B" stroke-opacity="0.15" stroke-linecap="square"/>
</g>
<mask id="mask30_10616_74228" style="mask-type:luminance" maskUnits="userSpaceOnUse" x="306" y="208" width="42" height="66">
<path d="M338.517 208.423L306.184 213.197L315.116 273.695L347.45 268.92L338.517 208.423Z" fill="white"/>
</mask>
<g mask="url(#mask30_10616_74228)">
<path d="M323.528 218.811L316.689 215.805L315.528 207.94L321.209 203.084L328.046 206.092L329.206 213.955L323.528 218.811ZM332.451 279.243L325.613 276.236L324.451 268.371L330.13 263.514L336.968 266.522L338.128 274.387L332.451 279.243ZM344.138 246.535L337.3 243.527L336.139 235.663L341.819 230.805L348.656 233.813L349.816 241.678L344.138 246.535ZM311.804 251.309L304.966 248.301L303.805 240.437L309.485 235.579L316.323 238.587L317.484 246.452L311.804 251.309ZM324.454 225.079L312.105 219.683L310.021 205.551L320.283 196.814L332.627 202.212L334.713 216.344L324.454 225.079ZM333.377 285.51L321.028 280.115L318.944 265.984L329.206 257.246L341.551 262.642L343.637 276.775L333.377 285.51ZM345.064 252.802L332.715 247.407L330.631 233.274L340.893 224.538L353.239 229.934L355.324 244.066L345.064 252.802ZM312.73 257.576L300.383 252.18L298.298 238.048L308.56 229.312L320.906 234.708L322.99 248.84L312.73 257.576ZM325.351 231.16L307.693 223.444L304.711 203.229L319.385 190.733L337.042 198.452L340.024 218.666L325.351 231.16ZM334.273 291.591L316.616 283.875L313.633 263.66L328.308 251.166L345.964 258.883L348.947 279.096L334.273 291.591ZM345.96 258.884L328.303 251.166L325.321 230.953L339.995 218.457L357.652 226.174L360.634 246.389L345.96 258.884ZM313.626 263.658L295.97 255.94L292.988 235.727L307.662 223.231L325.318 230.949L328.301 251.163L313.626 263.658Z" stroke="#ECC94B" stroke-opacity="0.15" stroke-linecap="square"/>
</g>
<mask id="mask31_10616_74228" style="mask-type:luminance" maskUnits="userSpaceOnUse" x="338" y="203" width="42" height="66">
<path d="M370.853 203.649L338.52 208.423L347.452 268.92L379.786 264.146L370.853 203.649Z" fill="white"/>
</mask>
<g mask="url(#mask31_10616_74228)">
<path d="M355.864 214.037L349.025 211.031L347.863 203.166L353.544 198.31L360.382 201.318L361.542 209.181L355.864 214.037ZM364.787 274.469L357.948 271.462L356.787 263.597L362.466 258.74L369.304 261.748L370.464 269.613L364.787 274.469ZM376.474 241.761L369.636 238.753L368.475 230.889L374.155 226.031L380.992 229.039L382.152 236.904L376.474 241.761ZM344.14 246.535L337.302 243.527L336.141 235.663L341.821 230.805L348.659 233.813L349.82 241.678L344.14 246.535ZM356.79 220.305L344.441 214.908L342.357 200.777L352.619 192.04L364.963 197.438L367.049 211.57L356.79 220.305ZM365.713 280.736L353.364 275.341L351.28 261.21L361.542 252.472L373.887 257.868L375.972 272L365.713 280.736ZM377.4 248.028L365.051 242.632L362.967 228.5L373.229 219.764L385.575 225.16L387.66 239.292L377.4 248.028ZM345.066 252.802L332.719 247.406L330.634 233.274L340.896 224.538L353.242 229.934L355.326 244.066L345.066 252.802ZM357.686 226.386L340.029 218.67L337.047 198.455L351.721 185.959L369.378 193.678L372.36 213.892L357.686 226.386ZM366.609 286.817L348.952 279.101L345.969 258.886L360.644 246.392L378.3 254.109L381.282 274.322L366.609 286.817ZM378.296 254.11L360.639 246.392L357.657 226.179L372.331 213.683L389.988 221.4L392.97 241.615L378.296 254.11ZM345.962 258.884L328.306 251.166L325.323 230.953L339.998 218.457L357.654 226.174L360.637 246.389L345.962 258.884Z" stroke="#ECC94B" stroke-opacity="0.15" stroke-linecap="square"/>
</g>
<mask id="mask32_10616_74228" style="mask-type:luminance" maskUnits="userSpaceOnUse" x="370" y="198" width="43" height="67">
<path d="M403.185 198.875L370.852 203.649L379.784 264.146L412.118 259.372L403.185 198.875Z" fill="white"/>
</mask>
<g mask="url(#mask32_10616_74228)">
<path d="M388.196 209.263L381.357 206.257L380.195 198.392L385.877 193.536L392.714 196.544L393.874 204.407L388.196 209.263ZM397.119 269.695L390.281 266.688L389.119 258.823L394.798 253.966L401.636 256.974L402.796 264.839L397.119 269.695ZM408.806 236.987L401.968 233.979L400.807 226.115L406.487 221.257L413.324 224.265L414.484 232.13L408.806 236.987ZM376.472 241.761L369.634 238.753L368.473 230.889L374.153 226.031L380.991 229.039L382.152 236.904L376.472 241.761ZM389.122 215.531L376.773 210.134L374.689 196.003L384.951 187.266L397.295 192.664L399.381 206.796L389.122 215.531ZM398.045 275.962L385.696 270.567L383.612 256.436L393.874 247.698L406.219 253.094L408.304 267.226L398.045 275.962ZM409.732 243.254L397.383 237.858L395.299 223.726L405.561 214.99L417.907 220.386L419.992 234.518L409.732 243.254ZM377.398 248.028L365.051 242.632L362.966 228.5L373.228 219.764L385.574 225.16L387.658 239.292L377.398 248.028ZM390.019 221.612L372.361 213.896L369.379 193.681L384.053 181.185L401.71 188.904L404.692 209.118L390.019 221.612ZM398.941 282.043L381.284 274.327L378.301 254.112L392.976 241.618L410.632 249.335L413.615 269.548L398.941 282.043ZM410.628 249.336L392.971 241.618L389.989 221.405L404.663 208.909L422.32 216.626L425.302 236.841L410.628 249.336ZM378.294 254.11L360.638 246.392L357.656 226.179L372.33 213.683L389.986 221.4L392.969 241.615L378.294 254.11Z" stroke="#ECC94B" stroke-opacity="0.15" stroke-linecap="square"/>
</g>
<mask id="mask33_10616_74228" style="mask-type:luminance" maskUnits="userSpaceOnUse" x="403" y="194" width="42" height="66">
<path d="M435.521 194.1L403.188 198.875L412.12 259.372L444.454 254.598L435.521 194.1Z" fill="white"/>
</mask>
<g mask="url(#mask33_10616_74228)">
<path d="M420.532 204.489L413.693 201.483L412.531 193.618L418.212 188.762L425.05 191.769L426.21 199.633L420.532 204.489ZM429.455 264.92L422.616 261.914L421.455 254.049L427.134 249.192L433.972 252.2L435.132 260.065L429.455 264.92ZM441.142 232.213L434.304 229.205L433.143 221.34L438.823 216.483L445.66 219.491L446.82 227.356L441.142 232.213ZM408.808 236.987L401.97 233.979L400.809 226.115L406.489 221.257L413.327 224.265L414.488 232.13L408.808 236.987ZM421.458 210.757L409.109 205.36L407.025 191.229L417.287 182.491L429.631 187.89L431.717 202.022L421.458 210.757ZM430.38 271.188L418.032 265.793L415.948 251.661L426.21 242.924L438.555 248.32L440.64 262.452L430.38 271.188ZM442.068 238.479L429.719 233.084L427.635 218.952L437.897 210.215L450.243 215.612L452.328 229.744L442.068 238.479ZM409.734 243.254L397.387 237.858L395.302 223.725L405.563 214.989L417.91 220.386L419.994 234.518L409.734 243.254ZM422.354 216.837L404.697 209.121L401.715 188.907L416.389 176.411L434.045 184.129L437.028 204.344L422.354 216.837ZM431.277 277.269L413.62 269.553L410.637 249.338L425.312 236.843L442.968 244.561L445.95 264.774L431.277 277.269ZM442.964 244.562L425.307 236.844L422.325 216.631L436.999 204.135L454.656 211.852L457.638 232.067L442.964 244.562ZM410.63 249.336L392.974 241.618L389.991 221.405L404.666 208.909L422.322 216.626L425.305 236.841L410.63 249.336Z" stroke="#ECC94B" stroke-opacity="0.15" stroke-linecap="square"/>
</g>
<mask id="mask34_10616_74228" style="mask-type:luminance" maskUnits="userSpaceOnUse" x="88" y="302" width="43" height="66">
<path d="M121.095 302.2L88.7617 306.974L97.6942 367.472L130.028 362.698L121.095 302.2Z" fill="white"/>
</mask>
<g mask="url(#mask34_10616_74228)">
<path d="M106.107 312.589L99.2668 309.582L98.1056 301.718L103.787 296.861L110.624 299.869L111.784 307.733L106.107 312.589ZM115.029 373.02L108.191 370.014L107.029 362.149L112.708 357.292L119.546 360.3L120.706 368.164L115.029 373.02ZM126.716 340.313L119.878 337.305L118.717 329.44L124.397 324.583L131.234 327.591L132.395 335.456L126.716 340.313ZM94.3822 345.087L87.5446 342.079L86.3834 334.214L92.0631 329.357L98.9008 332.365L100.062 340.23L94.3822 345.087ZM107.032 318.856L94.6831 313.46L92.5989 299.328L102.861 290.591L115.205 295.989L117.291 310.122L107.032 318.856ZM115.955 379.288L103.606 373.893L101.522 359.761L111.784 351.024L124.129 356.419L126.215 370.552L115.955 379.288ZM127.642 346.579L115.294 341.184L113.209 327.051L123.471 318.315L135.817 323.712L137.902 337.843L127.642 346.579ZM95.3086 351.353L82.961 345.958L80.8766 331.825L91.1377 323.089L103.484 328.486L105.569 342.617L95.3086 351.353ZM107.929 324.937L90.2713 317.221L87.2889 297.007L101.963 284.511L119.62 292.229L122.602 312.444L107.929 324.937ZM116.851 385.369L99.194 377.652L96.2116 357.438L110.886 344.943L128.542 352.661L131.525 372.874L116.851 385.369ZM128.538 352.661L110.882 344.944L107.899 324.73L122.574 312.235L140.23 319.952L143.212 340.166L128.538 352.661ZM96.2043 357.435L78.5479 349.718L75.5657 329.505L90.2399 317.009L107.896 324.726L110.879 344.941L96.2043 357.435Z" stroke="#ECC94B" stroke-opacity="0.15" stroke-linecap="square"/>
</g>
<mask id="mask35_10616_74228" style="mask-type:luminance" maskUnits="userSpaceOnUse" x="121" y="297" width="42" height="66">
<path d="M153.427 297.426L121.094 302.2L130.026 362.698L162.36 357.924L153.427 297.426Z" fill="white"/>
</mask>
<g mask="url(#mask35_10616_74228)">
<path d="M138.439 307.815L131.599 304.808L130.438 296.943L136.119 292.087L142.956 295.095L144.116 302.959L138.439 307.815ZM147.361 368.246L140.523 365.24L139.361 357.375L145.04 352.518L151.878 355.525L153.038 363.39L147.361 368.246ZM159.048 335.539L152.21 332.531L151.049 324.666L156.729 319.809L163.566 322.817L164.727 330.682L159.048 335.539ZM126.714 340.313L119.877 337.305L118.715 329.44L124.395 324.583L131.233 327.591L132.394 335.455L126.714 340.313ZM139.364 314.082L127.015 308.686L124.931 294.554L135.193 285.817L147.538 291.215L149.623 305.348L139.364 314.082ZM148.287 374.514L135.938 369.119L133.854 354.987L144.116 346.25L156.461 351.645L158.547 365.778L148.287 374.514ZM159.974 341.805L147.626 336.41L145.541 322.277L155.803 313.541L168.149 318.938L170.234 333.069L159.974 341.805ZM127.641 346.579L115.293 341.184L113.209 327.051L123.47 318.315L135.816 323.712L137.901 337.843L127.641 346.579ZM140.261 320.163L122.603 312.447L119.621 292.232L134.295 279.737L151.952 287.455L154.934 307.67L140.261 320.163ZM149.183 380.594L131.526 372.878L128.544 352.664L143.218 340.169L160.874 347.887L163.857 368.1L149.183 380.594ZM160.87 347.887L143.214 340.17L140.231 319.956L154.906 307.46L172.562 315.178L175.544 335.392L160.87 347.887ZM128.536 352.661L110.88 344.944L107.898 324.731L122.572 312.235L140.228 319.952L143.211 340.166L128.536 352.661Z" stroke="#ECC94B" stroke-opacity="0.15" stroke-linecap="square"/>
</g>
<mask id="mask36_10616_74228" style="mask-type:luminance" maskUnits="userSpaceOnUse" x="153" y="292" width="42" height="66">
<path d="M185.763 292.652L153.43 297.426L162.362 357.924L194.696 353.15L185.763 292.652Z" fill="white"/>
</mask>
<g mask="url(#mask36_10616_74228)">
<path d="M170.775 303.041L163.935 300.034L162.774 292.169L168.455 287.313L175.292 290.321L176.452 298.185L170.775 303.041ZM179.697 363.472L172.859 360.465L171.697 352.601L177.376 347.743L184.214 350.751L185.374 358.616L179.697 363.472ZM191.384 330.765L184.546 327.757L183.385 319.892L189.065 315.035L195.902 318.043L197.062 325.908L191.384 330.765ZM159.05 335.539L152.213 332.531L151.051 324.666L156.731 319.809L163.569 322.817L164.73 330.681L159.05 335.539ZM171.7 309.308L159.351 303.912L157.267 289.78L167.529 281.043L179.873 286.441L181.959 300.574L171.7 309.308ZM180.623 369.74L168.274 364.345L166.19 350.213L176.452 341.476L188.797 346.871L190.883 361.004L180.623 369.74ZM192.31 337.031L179.962 331.636L177.877 317.503L188.139 308.767L200.485 314.164L202.57 328.295L192.31 337.031ZM159.977 341.805L147.629 336.41L145.545 322.277L155.806 313.541L168.152 318.938L170.237 333.069L159.977 341.805ZM172.597 315.389L154.939 307.673L151.957 287.458L166.631 274.962L184.288 282.681L187.27 302.896L172.597 315.389ZM181.519 375.82L163.862 368.104L160.88 347.89L175.554 335.395L193.21 343.112L196.193 363.326L181.519 375.82ZM193.206 343.113L175.549 335.396L172.567 315.182L187.242 302.686L204.898 310.404L207.88 330.618L193.206 343.113ZM160.872 347.887L143.216 340.17L140.234 319.956L154.908 307.46L172.564 315.178L175.547 335.392L160.872 347.887Z" stroke="#ECC94B" stroke-opacity="0.15" stroke-linecap="square"/>
</g>
<mask id="mask37_10616_74228" style="mask-type:luminance" maskUnits="userSpaceOnUse" x="185" y="287" width="43" height="67">
<path d="M218.095 287.878L185.762 292.652L194.694 353.15L227.028 348.376L218.095 287.878Z" fill="white"/>
</mask>
<g mask="url(#mask37_10616_74228)">
<path d="M203.106 298.266L196.267 295.26L195.106 287.395L200.787 282.539L207.624 285.547L208.784 293.411L203.106 298.266ZM212.029 358.698L205.191 355.691L204.029 347.827L209.708 342.969L216.546 345.977L217.706 353.842L212.029 358.698ZM223.716 325.991L216.878 322.983L215.717 315.118L221.397 310.261L228.234 313.269L229.394 321.133L223.716 325.991ZM191.382 330.765L184.545 327.757L183.383 319.892L189.063 315.035L195.901 318.043L197.062 325.907L191.382 330.765ZM204.032 304.534L191.683 299.138L189.599 285.006L199.861 276.269L212.205 281.667L214.291 295.8L204.032 304.534ZM212.955 364.966L200.606 359.57L198.522 345.439L208.784 336.702L221.129 342.097L223.215 356.23L212.955 364.966ZM224.642 332.257L212.293 326.862L210.209 312.729L220.471 303.993L232.817 309.39L234.902 323.521L224.642 332.257ZM192.309 337.031L179.961 331.636L177.877 317.503L188.138 308.767L200.484 314.164L202.569 328.295L192.309 337.031ZM204.929 310.615L187.271 302.899L184.289 282.684L198.963 270.188L216.62 277.907L219.602 298.122L204.929 310.615ZM213.851 371.046L196.194 363.33L193.212 343.116L207.886 330.621L225.542 338.338L228.525 358.552L213.851 371.046ZM225.538 338.339L207.881 330.622L204.899 310.408L219.573 297.912L237.23 305.63L240.212 325.844L225.538 338.339ZM193.204 343.113L175.548 335.396L172.566 315.182L187.24 302.686L204.896 310.404L207.879 330.618L193.204 343.113Z" stroke="#ECC94B" stroke-opacity="0.15" stroke-linecap="square"/>
</g>
<mask id="mask38_10616_74228" style="mask-type:luminance" maskUnits="userSpaceOnUse" x="218" y="283" width="42" height="66">
<path d="M250.431 283.104L218.098 287.878L227.03 348.376L259.364 343.602L250.431 283.104Z" fill="white"/>
</mask>
<g mask="url(#mask38_10616_74228)">
<path d="M235.442 293.492L228.603 290.486L227.442 282.621L233.123 277.765L239.96 280.773L241.12 288.637L235.442 293.492ZM244.365 353.924L237.527 350.917L236.365 343.053L242.044 338.195L248.882 341.203L250.042 349.068L244.365 353.924ZM256.052 321.217L249.214 318.209L248.053 310.344L253.733 305.487L260.57 308.494L261.73 316.359L256.052 321.217ZM223.718 325.991L216.881 322.983L215.719 315.118L221.399 310.261L228.237 313.269L229.398 321.133L223.718 325.991ZM236.368 299.76L224.019 294.364L221.935 280.232L232.197 271.495L244.541 276.893L246.627 291.026L236.368 299.76ZM245.291 360.192L232.942 354.796L230.858 340.665L241.12 331.927L253.465 337.323L255.551 351.456L245.291 360.192ZM256.978 327.483L244.629 322.088L242.545 307.955L252.807 299.219L265.153 304.616L267.238 318.747L256.978 327.483ZM224.645 332.257L212.297 326.862L210.213 312.729L220.474 303.993L232.82 309.39L234.905 323.521L224.645 332.257ZM237.265 305.841L219.607 298.125L216.625 277.91L231.299 265.414L248.956 273.133L251.938 293.347L237.265 305.841ZM246.187 366.272L228.53 358.556L225.548 338.342L240.222 325.847L257.878 333.564L260.861 353.778L246.187 366.272ZM257.874 333.565L240.217 325.848L237.235 305.634L251.909 293.138L269.566 300.856L272.548 321.07L257.874 333.565ZM225.54 338.339L207.884 330.622L204.902 310.408L219.576 297.912L237.232 305.63L240.215 325.844L225.54 338.339Z" stroke="#ECC94B" stroke-opacity="0.15" stroke-linecap="square"/>
</g>
<mask id="mask39_10616_74228" style="mask-type:luminance" maskUnits="userSpaceOnUse" x="250" y="278" width="42" height="66">
<path d="M282.763 278.33L250.43 283.104L259.362 343.602L291.696 338.828L282.763 278.33Z" fill="white"/>
</mask>
<g mask="url(#mask39_10616_74228)">
<path d="M267.775 288.718L260.935 285.712L259.774 277.847L265.455 272.991L272.292 275.999L273.452 283.863L267.775 288.718ZM276.697 349.15L269.859 346.143L268.697 338.278L274.376 333.421L281.214 336.429L282.374 344.294L276.697 349.15ZM288.384 316.443L281.546 313.435L280.385 305.57L286.065 300.712L292.902 303.72L294.062 311.585L288.384 316.443ZM256.05 321.217L249.213 318.209L248.051 310.344L253.731 305.487L260.569 308.494L261.73 316.359L256.05 321.217ZM268.7 294.986L256.351 289.59L254.267 275.458L264.529 266.721L276.873 272.119L278.959 286.252L268.7 294.986ZM277.623 355.417L265.274 350.022L263.19 335.891L273.452 327.153L285.797 332.549L287.883 346.682L277.623 355.417ZM289.31 322.709L276.962 317.314L274.877 303.181L285.139 294.445L297.485 299.842L299.57 313.973L289.31 322.709ZM256.977 327.483L244.629 322.088L242.545 307.955L252.806 299.219L265.152 304.616L267.237 318.747L256.977 327.483ZM269.597 301.067L251.939 293.351L248.957 273.136L263.631 260.64L281.288 268.359L284.27 288.573L269.597 301.067ZM278.519 361.498L260.862 353.782L257.88 333.568L272.554 321.073L290.21 328.79L293.193 349.004L278.519 361.498ZM290.206 328.791L272.549 321.074L269.567 300.86L284.242 288.364L301.898 296.082L304.88 316.296L290.206 328.791ZM257.872 333.565L240.216 325.848L237.234 305.634L251.908 293.138L269.564 300.856L272.547 321.07L257.872 333.565Z" stroke="#ECC94B" stroke-opacity="0.15" stroke-linecap="square"/>
</g>
<mask id="mask40_10616_74228" style="mask-type:luminance" maskUnits="userSpaceOnUse" x="282" y="273" width="43" height="66">
<path d="M315.095 273.556L282.762 278.33L291.694 338.828L324.028 334.054L315.095 273.556Z" fill="white"/>
</mask>
<g mask="url(#mask40_10616_74228)">
<path d="M300.107 283.944L293.267 280.938L292.106 273.073L297.787 268.217L304.624 271.225L305.784 279.088L300.107 283.944ZM309.029 344.376L302.191 341.369L301.029 333.504L306.708 328.647L313.546 331.655L314.706 339.52L309.029 344.376ZM320.716 311.668L313.878 308.66L312.717 300.796L318.397 295.938L325.234 298.946L326.395 306.811L320.716 311.668ZM288.382 316.442L281.545 313.435L280.383 305.57L286.063 300.712L292.901 303.72L294.062 311.585L288.382 316.442ZM301.032 290.212L288.683 284.816L286.599 270.684L296.861 261.947L309.205 267.345L311.291 281.478L301.032 290.212ZM309.955 350.643L297.606 345.248L295.522 331.117L305.784 322.379L318.129 327.775L320.215 341.908L309.955 350.643ZM321.642 317.935L309.294 312.54L307.209 298.407L317.471 289.671L329.817 295.068L331.902 309.199L321.642 317.935ZM289.309 322.709L276.961 317.313L274.877 303.181L285.138 294.445L297.484 299.841L299.569 313.973L289.309 322.709ZM301.929 296.293L284.271 288.577L281.289 268.362L295.963 255.866L313.62 263.585L316.602 283.799L301.929 296.293ZM310.851 356.724L293.194 349.008L290.212 328.794L304.886 316.299L322.542 324.016L325.525 344.23L310.851 356.724ZM322.538 324.017L304.882 316.299L301.899 296.086L316.574 283.59L334.23 291.308L337.212 311.522L322.538 324.017ZM290.204 328.791L272.548 321.073L269.566 300.86L284.24 288.364L301.896 296.082L304.879 316.296L290.204 328.791Z" stroke="#ECC94B" stroke-opacity="0.15" stroke-linecap="square"/>
</g>
<mask id="mask41_10616_74228" style="mask-type:luminance" maskUnits="userSpaceOnUse" x="315" y="268" width="42" height="67">
<path d="M347.431 268.782L315.098 273.556L324.03 334.054L356.364 329.279L347.431 268.782Z" fill="white"/>
</mask>
<g mask="url(#mask41_10616_74228)">
<path d="M332.442 279.17L325.603 276.164L324.442 268.299L330.123 263.443L336.96 266.451L338.12 274.314L332.442 279.17ZM341.365 339.602L334.527 336.595L333.365 328.73L339.044 323.873L345.882 326.881L347.042 334.746L341.365 339.602ZM353.052 306.894L346.214 303.886L345.053 296.022L350.733 291.164L357.57 294.172L358.73 302.037L353.052 306.894ZM320.718 311.668L313.881 308.661L312.719 300.796L318.399 295.938L325.237 298.946L326.398 306.811L320.718 311.668ZM333.368 285.438L321.019 280.042L318.935 265.91L329.197 257.173L341.541 262.571L343.627 276.703L333.368 285.438ZM342.291 345.869L329.942 340.474L327.858 326.343L338.12 317.605L350.465 323.001L352.551 337.134L342.291 345.869ZM353.978 313.161L341.629 307.766L339.545 293.633L349.807 284.897L362.153 290.293L364.238 304.425L353.978 313.161ZM321.645 317.935L309.297 312.539L307.213 298.407L317.474 289.671L329.82 295.067L331.905 309.199L321.645 317.935ZM334.265 291.519L316.607 283.803L313.625 263.588L328.299 251.092L345.956 258.811L348.938 279.025L334.265 291.519ZM343.187 351.95L325.53 344.234L322.548 324.019L337.222 311.525L354.878 319.242L357.861 339.455L343.187 351.95ZM354.874 319.243L337.217 311.525L334.235 291.312L348.909 278.816L366.566 286.533L369.548 306.748L354.874 319.243ZM322.54 324.017L304.884 316.299L301.902 296.086L316.576 283.59L334.232 291.308L337.215 311.522L322.54 324.017Z" stroke="#ECC94B" stroke-opacity="0.15" stroke-linecap="square"/>
</g>
<mask id="mask42_10616_74228" style="mask-type:luminance" maskUnits="userSpaceOnUse" x="347" y="264" width="42" height="66">
<path d="M379.763 264.008L347.43 268.782L356.362 329.279L388.696 324.505L379.763 264.008Z" fill="white"/>
</mask>
<g mask="url(#mask42_10616_74228)">
<path d="M364.775 274.396L357.935 271.39L356.774 263.525L362.455 258.669L369.292 261.677L370.452 269.54L364.775 274.396ZM373.697 334.828L366.859 331.821L365.697 323.956L371.376 319.099L378.214 322.107L379.374 329.972L373.697 334.828ZM385.384 302.12L378.546 299.112L377.385 291.248L383.065 286.39L389.902 289.398L391.062 297.263L385.384 302.12ZM353.05 306.894L346.213 303.886L345.051 296.022L350.731 291.164L357.569 294.172L358.73 302.037L353.05 306.894ZM365.7 280.664L353.351 275.267L351.267 261.136L361.529 252.399L373.873 257.797L375.959 271.929L365.7 280.664ZM374.623 341.095L362.274 335.7L360.19 321.569L370.452 312.831L382.797 318.227L384.883 332.359L374.623 341.095ZM386.31 308.387L373.962 302.991L371.877 288.859L382.139 280.123L394.485 285.519L396.57 299.651L386.31 308.387ZM353.977 313.161L341.629 307.765L339.545 293.633L349.806 284.897L362.152 290.293L364.237 304.425L353.977 313.161ZM366.597 286.745L348.939 279.029L345.957 258.814L360.631 246.318L378.288 254.037L381.27 274.251L366.597 286.745ZM375.519 347.176L357.862 339.46L354.88 319.245L369.554 306.751L387.21 314.468L390.193 334.681L375.519 347.176ZM387.206 314.469L369.549 306.751L366.567 286.538L381.241 274.042L398.898 281.759L401.88 301.974L387.206 314.469ZM354.872 319.243L337.216 311.525L334.234 291.312L348.908 278.816L366.564 286.533L369.547 306.748L354.872 319.243Z" stroke="#ECC94B" stroke-opacity="0.15" stroke-linecap="square"/>
</g>
<mask id="mask43_10616_74228" style="mask-type:luminance" maskUnits="userSpaceOnUse" x="379" y="259" width="43" height="66">
<path d="M412.099 259.234L379.766 264.008L388.698 324.505L421.032 319.731L412.099 259.234Z" fill="white"/>
</mask>
<g mask="url(#mask43_10616_74228)">
<path d="M397.11 269.622L390.271 266.616L389.11 258.751L394.791 253.895L401.628 256.903L402.788 264.766L397.11 269.622ZM406.033 330.053L399.195 327.047L398.033 319.182L403.712 314.325L410.55 317.333L411.71 325.198L406.033 330.053ZM417.72 297.346L410.882 294.338L409.721 286.474L415.401 281.616L422.238 284.624L423.398 292.489L417.72 297.346ZM385.386 302.12L378.548 299.112L377.387 291.248L383.067 286.39L389.905 289.398L391.066 297.263L385.386 302.12ZM398.036 275.89L385.687 270.493L383.603 256.362L393.865 247.625L406.209 253.023L408.295 267.155L398.036 275.89ZM406.959 336.321L394.61 330.926L392.526 316.794L402.788 308.057L415.133 313.453L417.219 327.585L406.959 336.321ZM418.646 303.613L406.297 298.217L404.213 284.085L414.475 275.348L426.821 280.745L428.906 294.877L418.646 303.613ZM386.313 308.387L373.965 302.991L371.881 288.858L382.142 280.123L394.488 285.519L396.572 299.651L386.313 308.387ZM398.933 281.97L381.275 274.254L378.293 254.04L392.967 241.544L410.624 249.263L413.606 269.477L398.933 281.97ZM407.855 342.402L390.198 334.686L387.215 314.471L401.89 301.977L419.546 309.694L422.529 329.907L407.855 342.402ZM419.542 309.695L401.885 301.977L398.903 281.764L413.577 269.268L431.234 276.985L434.216 297.2L419.542 309.695ZM387.208 314.469L369.552 306.751L366.57 286.538L381.244 274.042L398.9 281.759L401.883 301.974L387.208 314.469Z" stroke="#ECC94B" stroke-opacity="0.15" stroke-linecap="square"/>
</g>
<mask id="mask44_10616_74228" style="mask-type:luminance" maskUnits="userSpaceOnUse" x="412" y="254" width="42" height="66">
<path d="M444.431 254.459L412.098 259.234L421.03 319.731L453.364 314.957L444.431 254.459Z" fill="white"/>
</mask>
<g mask="url(#mask44_10616_74228)">
<path d="M429.442 264.848L422.603 261.842L421.442 253.977L427.123 249.121L433.96 252.128L435.12 259.992L429.442 264.848ZM438.365 325.279L431.527 322.273L430.365 314.408L436.044 309.551L442.882 312.559L444.042 320.424L438.365 325.279ZM450.052 292.572L443.214 289.564L442.053 281.699L447.733 276.842L454.57 279.85L455.73 287.715L450.052 292.572ZM417.718 297.346L410.881 294.338L409.719 286.474L415.399 281.616L422.237 284.624L423.398 292.489L417.718 297.346ZM430.368 271.116L418.019 265.719L415.935 251.588L426.197 242.85L438.541 248.249L440.627 262.381L430.368 271.116ZM439.291 331.547L426.942 326.152L424.858 312.02L435.12 303.283L447.465 308.679L449.551 322.811L439.291 331.547ZM450.978 298.838L438.629 293.443L436.545 279.311L446.807 270.574L459.153 275.971L461.238 290.103L450.978 298.838ZM418.645 303.613L406.297 298.217L404.213 284.084L414.474 275.349L426.82 280.745L428.905 294.877L418.645 303.613ZM431.265 277.196L413.607 269.48L410.625 249.266L425.299 236.77L442.956 244.488L445.938 264.703L431.265 277.196ZM440.187 337.628L422.53 329.912L419.548 309.697L434.222 297.203L451.878 304.92L454.861 325.133L440.187 337.628ZM451.874 304.921L434.217 297.203L431.235 276.99L445.909 264.494L463.566 272.211L466.548 292.426L451.874 304.921ZM419.54 309.695L401.884 301.977L398.902 281.764L413.576 269.268L431.232 276.985L434.215 297.2L419.54 309.695Z" stroke="#ECC94B" stroke-opacity="0.15" stroke-linecap="square"/>
</g>
<mask id="mask45_10616_74228" style="mask-type:luminance" maskUnits="userSpaceOnUse" x="89" y="130" width="117" height="53">
<path d="M200.499 130.121L89.0039 146.584L94.3511 182.799L205.846 166.337L200.499 130.121Z" fill="white"/>
</mask>
<g mask="url(#mask45_10616_74228)">
<path fill-rule="evenodd" clip-rule="evenodd" d="M89.7759 151.816L92.5346 170.5L94.0201 180.562C94.126 181.279 94.4648 181.859 94.9918 182.228C95.5188 182.596 96.0874 182.649 96.6232 182.38L109.473 175.935C110.238 175.551 110.651 174.605 110.5 173.581L107.804 155.326C107.663 154.369 107.079 153.623 106.3 153.404L91.9013 149.359C91.2894 149.187 90.7164 149.369 90.2798 149.874C89.8432 150.379 89.6649 151.065 89.7759 151.816Z" fill="white"/>
<path fill-rule="evenodd" clip-rule="evenodd" d="M93.229 148.248L96.1475 168.014C96.2533 168.731 96.5921 169.312 97.1192 169.68C97.6461 170.048 98.2147 170.101 98.7505 169.833L111.6 163.387C112.365 163.004 112.778 162.057 112.627 161.033L111.257 151.757C111.116 150.801 110.532 150.055 109.753 149.836L95.3545 145.791C94.7425 145.619 94.1695 145.801 93.7327 146.306C93.2963 146.81 93.1181 147.497 93.229 148.248Z" fill="#666666" fill-opacity="0.501961"/>
<path d="M120.351 148.872L122.871 165.936L120.441 166.295L117.922 149.23L120.351 148.872ZM125.058 159.602L121.414 160.14L121.021 157.479L124.153 157.017C124.988 156.893 125.576 156.544 125.937 155.966C126.294 155.365 126.415 154.607 126.278 153.674C126.14 152.74 125.805 152.05 125.315 151.621C124.806 151.195 124.142 151.031 123.326 151.152L119.928 151.653L119.535 148.992L123.407 148.42C124.337 148.283 125.188 148.396 125.94 148.762C126.692 149.128 127.32 149.703 127.824 150.487C128.324 151.248 128.659 152.201 128.824 153.321C128.986 154.419 128.938 155.404 128.682 156.3C128.43 157.22 127.995 157.952 127.381 158.52C126.77 159.111 125.988 159.465 125.058 159.602Z" fill="white"/>
<path d="M134.14 164.582C133.153 164.727 132.307 164.518 131.641 163.949C130.972 163.356 130.56 162.534 130.401 161.46C130.246 160.41 130.422 159.501 130.937 158.782C131.432 158.064 132.25 157.562 133.334 157.283L136.105 156.611L136.067 156.354C135.988 155.817 135.85 155.408 135.63 155.107C135.434 154.826 135.172 154.626 134.863 154.505C134.557 154.407 134.205 154.387 133.807 154.446C133.124 154.547 132.616 154.789 132.304 155.169C131.972 155.552 131.874 156.067 131.964 156.674L129.99 156.965C129.866 156.125 129.948 155.373 130.201 154.716C130.449 154.035 130.874 153.495 131.448 153.053C132.042 152.607 132.758 152.335 133.593 152.211C134.447 152.085 135.196 152.165 135.859 152.449C136.518 152.71 137.056 153.203 137.505 153.876C137.934 154.552 138.236 155.414 138.395 156.488L139.429 163.491L137.397 163.791L136.975 162.112C136.852 162.726 136.545 163.272 136.012 163.733C135.498 164.19 134.861 164.475 134.14 164.582ZM134.582 162.322C135.284 162.218 135.815 161.877 136.161 161.325C136.506 160.774 136.63 160.04 136.499 159.153L136.41 158.546L134.482 159.021C133.775 159.221 133.287 159.46 133.024 159.785C132.765 160.133 132.669 160.529 132.738 160.996C132.813 161.51 133.005 161.887 133.328 162.102C133.631 162.319 134.05 162.4 134.582 162.322Z" fill="white"/>
<path d="M141.966 168.579L139.474 151.701L141.619 151.385L142.029 153.113C142.214 152.394 142.574 151.816 143.092 151.382C143.625 150.921 144.224 150.642 144.945 150.536C145.818 150.407 146.635 150.549 147.371 150.941C148.089 151.336 148.705 151.96 149.197 152.794C149.688 153.628 150.033 154.65 150.212 155.864C150.388 157.055 150.376 158.154 150.172 159.138C149.968 160.122 149.585 160.942 149 161.577C148.434 162.209 147.674 162.584 146.744 162.721C146.042 162.825 145.391 162.754 144.755 162.514C144.137 162.271 143.632 161.868 143.265 161.35L144.281 168.237L141.966 168.579ZM142.66 157.122C142.76 157.799 142.963 158.389 143.251 158.895C143.558 159.399 143.924 159.774 144.364 159.995C144.807 160.24 145.283 160.313 145.815 160.234C146.365 160.153 146.819 159.943 147.154 159.583C147.489 159.224 147.73 158.759 147.863 158.214C147.993 157.647 147.998 157.026 147.898 156.349C147.798 155.672 147.614 155.079 147.326 154.573C147.038 154.067 146.675 153.715 146.251 153.468C145.826 153.22 145.328 153.127 144.777 153.208C144.246 153.286 143.814 153.517 143.457 153.856C143.104 154.219 142.862 154.683 142.71 155.231C142.581 155.798 142.556 156.422 142.66 157.122Z" fill="white"/>
<path d="M156.622 161.262C155.693 161.399 154.839 161.263 154.057 160.83C153.26 160.423 152.587 159.807 152.054 158.955C151.502 158.106 151.157 157.084 150.981 155.893C150.802 154.68 150.837 153.601 151.101 152.632C151.365 151.663 151.809 150.858 152.435 150.24C153.058 149.6 153.836 149.222 154.747 149.088C155.696 148.948 156.55 149.084 157.303 149.45C158.058 149.84 158.69 150.438 159.2 151.269C159.692 152.103 160.034 153.102 160.213 154.316L160.34 155.179L152.296 156.391L152.065 154.565L157.778 153.721C157.661 152.928 157.356 152.305 156.888 151.897C156.402 151.491 155.813 151.316 155.111 151.42C154.561 151.501 154.126 151.708 153.807 152.042C153.468 152.378 153.246 152.84 153.139 153.428C153.031 154.017 153.037 154.708 153.157 155.524C153.34 156.762 153.709 157.685 154.239 158.251C154.768 158.817 155.462 159.048 156.316 158.922C156.961 158.827 157.449 158.588 157.826 158.246C158.179 157.884 158.383 157.424 158.437 156.868L160.582 156.551C160.559 157.842 160.21 158.896 159.501 159.74C158.807 160.558 157.856 161.08 156.622 161.262Z" fill="white"/>
<path d="M166.603 147.648L166.993 150.286L166.139 150.412C165.303 150.535 164.681 150.913 164.27 151.546C163.875 152.153 163.752 153.03 163.918 154.15L164.745 159.753L162.429 160.095L160.73 148.586L162.913 148.264L163.454 150.617L163.226 150.651C163.245 149.861 163.459 149.209 163.843 148.652C164.245 148.091 164.814 147.745 165.554 147.636C165.725 147.61 165.88 147.611 166.055 147.609C166.229 147.608 166.403 147.606 166.603 147.648Z" fill="white"/>
<path d="M174.719 140.844L177.238 157.909L174.809 158.267L172.289 141.203L174.719 140.844ZM179.425 151.575L175.781 152.113L175.388 149.452L178.52 148.989C179.355 148.866 179.944 148.517 180.304 147.939C180.662 147.337 180.782 146.58 180.644 145.646C180.507 144.713 180.172 144.022 179.682 143.594C179.173 143.168 178.509 143.004 177.693 143.124L174.295 143.626L173.903 140.965L177.774 140.393C178.705 140.256 179.555 140.369 180.308 140.735C181.06 141.101 181.687 141.676 182.192 142.46C182.691 143.221 183.026 144.174 183.191 145.294C183.353 146.391 183.305 147.377 183.05 148.273C182.797 149.193 182.363 149.925 181.749 150.493C181.137 151.084 180.356 151.438 179.425 151.575Z" fill="white"/>
<path d="M188.511 156.554C187.524 156.699 186.679 156.49 186.012 155.921C185.343 155.328 184.931 154.506 184.772 153.432C184.617 152.382 184.793 151.473 185.308 150.754C185.803 150.036 186.621 149.534 187.704 149.255L190.476 148.583L190.438 148.326C190.359 147.789 190.22 147.381 190.001 147.079C189.805 146.798 189.543 146.598 189.233 146.477C188.928 146.379 188.577 146.359 188.177 146.418C187.494 146.519 186.987 146.761 186.674 147.141C186.344 147.524 186.245 148.039 186.335 148.646L184.36 148.937C184.236 148.097 184.319 147.345 184.572 146.688C184.82 146.007 185.245 145.467 185.82 145.025C186.412 144.579 187.129 144.307 187.964 144.183C188.818 144.057 189.567 144.138 190.23 144.421C190.889 144.682 191.426 145.175 191.876 145.848C192.305 146.524 192.606 147.386 192.765 148.46L193.799 155.463L191.768 155.763L191.346 154.084C191.223 154.698 190.916 155.244 190.383 155.705C189.868 156.162 189.232 156.447 188.511 156.554ZM188.953 154.294C189.655 154.19 190.186 153.849 190.532 153.297C190.876 152.746 191.002 152.012 190.871 151.125L190.781 150.518L188.853 150.993C188.145 151.193 187.658 151.432 187.395 151.757C187.136 152.105 187.04 152.501 187.109 152.968C187.185 153.482 187.376 153.859 187.698 154.074C188.002 154.291 188.421 154.372 188.953 154.294Z" fill="white"/>
<path d="M194.972 143.507L199.6 153.7L198.777 156.803L192.523 143.868L194.972 143.507ZM195.262 160.709L194.914 158.351L196.3 158.147C196.603 158.102 196.862 158.016 197.076 157.889C197.29 157.762 197.478 157.591 197.634 157.33C197.77 157.071 197.873 156.722 197.937 156.235L199.926 142.775L202.317 142.422L199.805 157.2C199.619 158.301 199.299 159.159 198.857 159.701C198.397 160.27 197.79 160.622 197.03 160.734C196.708 160.782 196.4 160.804 196.109 160.799C195.818 160.794 195.541 160.763 195.262 160.709Z" fill="white"/>
</g>
<path d="M111.857 292.823C112.066 292.517 112.343 292.338 112.689 292.287C113.04 292.235 113.362 292.325 113.656 292.557C113.949 292.784 114.123 293.086 114.179 293.467C114.235 293.846 114.159 294.189 113.949 294.495C113.74 294.796 113.459 294.973 113.109 295.025C112.758 295.076 112.436 294.988 112.143 294.761C111.854 294.529 111.682 294.223 111.626 293.844C111.571 293.469 111.648 293.129 111.857 292.823ZM117.762 291.951C117.971 291.645 118.249 291.466 118.594 291.415C118.945 291.363 119.267 291.454 119.561 291.685C119.854 291.912 120.028 292.214 120.085 292.595C120.141 292.974 120.064 293.317 119.855 293.623C119.645 293.924 119.365 294.101 119.014 294.153C118.663 294.205 118.342 294.116 118.048 293.889C117.76 293.657 117.587 293.351 117.531 292.972C117.476 292.597 117.553 292.257 117.762 291.951ZM123.668 291.079C123.877 290.773 124.154 290.594 124.5 290.543C124.85 290.491 125.172 290.582 125.466 290.813C125.759 291.04 125.934 291.342 125.99 291.723C126.046 292.102 125.969 292.445 125.76 292.751C125.55 293.052 125.27 293.229 124.919 293.281C124.569 293.333 124.247 293.244 123.954 293.018C123.665 292.785 123.493 292.479 123.437 292.1C123.381 291.725 123.458 291.385 123.668 291.079ZM129.573 290.207C129.782 289.901 130.059 289.722 130.405 289.671C130.755 289.619 131.078 289.71 131.372 289.941C131.665 290.168 131.839 290.471 131.895 290.851C131.951 291.23 131.875 291.573 131.665 291.879C131.456 292.18 131.175 292.357 130.825 292.409C130.474 292.461 130.152 292.373 129.859 292.146C129.57 291.913 129.398 291.607 129.342 291.228C129.287 290.854 129.364 290.513 129.573 290.207ZM141.383 288.463C141.593 288.157 141.87 287.978 142.216 287.927C142.566 287.875 142.889 287.966 143.182 288.197C143.475 288.424 143.65 288.727 143.706 289.107C143.762 289.486 143.685 289.829 143.476 290.135C143.266 290.436 142.986 290.613 142.635 290.665C142.285 290.717 141.963 290.629 141.67 290.402C141.381 290.169 141.209 289.863 141.153 289.484C141.097 289.11 141.174 288.769 141.383 288.463ZM147.289 287.591C147.498 287.285 147.775 287.106 148.121 287.055C148.472 287.003 148.794 287.094 149.088 287.326C149.381 287.552 149.555 287.855 149.611 288.235C149.667 288.614 149.591 288.957 149.381 289.263C149.171 289.564 148.891 289.741 148.541 289.793C148.19 289.845 147.868 289.757 147.575 289.53C147.286 289.297 147.114 288.991 147.058 288.612C147.003 288.238 147.08 287.897 147.289 287.591ZM153.194 286.719C153.403 286.413 153.681 286.234 154.026 286.183C154.377 286.131 154.699 286.222 154.993 286.454C155.286 286.681 155.46 286.983 155.517 287.363C155.573 287.742 155.496 288.085 155.287 288.391C155.077 288.692 154.797 288.869 154.446 288.921C154.095 288.973 153.774 288.885 153.48 288.658C153.192 288.426 153.019 288.119 152.963 287.74C152.908 287.366 152.985 287.025 153.194 286.719ZM159.1 285.847C159.309 285.541 159.586 285.362 159.932 285.311C160.282 285.259 160.604 285.35 160.898 285.582C161.191 285.809 161.366 286.111 161.422 286.491C161.478 286.87 161.401 287.213 161.192 287.519C160.982 287.82 160.702 287.998 160.351 288.049C160.001 288.101 159.679 288.013 159.386 287.786C159.097 287.554 158.925 287.247 158.869 286.868C158.813 286.494 158.89 286.153 159.1 285.847ZM170.91 284.103C171.119 283.797 171.397 283.618 171.742 283.567C172.093 283.516 172.415 283.606 172.709 283.838C173.002 284.065 173.176 284.367 173.233 284.747C173.289 285.126 173.212 285.47 173.003 285.775C172.793 286.077 172.513 286.254 172.162 286.305C171.811 286.357 171.49 286.269 171.196 286.042C170.908 285.81 170.735 285.503 170.679 285.124C170.624 284.75 170.701 284.409 170.91 284.103ZM176.816 283.232C177.025 282.926 177.302 282.746 177.648 282.695C177.998 282.644 178.32 282.734 178.614 282.966C178.907 283.193 179.082 283.495 179.138 283.875C179.194 284.254 179.117 284.598 178.908 284.904C178.698 285.205 178.418 285.382 178.067 285.434C177.717 285.485 177.395 285.397 177.102 285.17C176.813 284.938 176.641 284.631 176.585 284.252C176.529 283.878 176.606 283.538 176.816 283.232ZM182.721 282.36C182.93 282.054 183.207 281.875 183.553 281.824C183.903 281.772 184.226 281.862 184.52 282.094C184.813 282.321 184.987 282.623 185.043 283.003C185.099 283.383 185.023 283.726 184.814 284.032C184.603 284.333 184.323 284.51 183.973 284.562C183.622 284.613 183.3 284.525 183.007 284.298C182.718 284.066 182.546 283.76 182.49 283.38C182.435 283.006 182.512 282.666 182.721 282.36ZM188.626 281.488C188.835 281.182 189.113 281.003 189.458 280.952C189.809 280.9 190.131 280.99 190.425 281.222C190.718 281.449 190.892 281.751 190.949 282.132C191.005 282.511 190.928 282.854 190.719 283.16C190.509 283.461 190.229 283.638 189.878 283.69C189.527 283.741 189.206 283.653 188.912 283.426C188.624 283.194 188.451 282.888 188.395 282.509C188.34 282.134 188.417 281.794 188.626 281.488ZM198.917 278.458L198.749 277.32C199.724 277.069 200.39 276.794 200.745 276.494C201.099 276.189 201.306 275.565 201.365 274.623L202.447 274.464L204.184 286.231L202.721 286.447L201.486 278.079L198.917 278.458ZM207.835 285.692C207.735 284.667 207.797 283.753 208.022 282.95C208.252 282.145 208.811 281.363 209.701 280.602L211.028 279.47C211.623 278.961 212.03 278.54 212.252 278.21C212.601 277.692 212.733 277.139 212.646 276.55C212.544 275.862 212.273 275.345 211.832 275.001C211.391 274.649 210.854 274.521 210.218 274.615C209.278 274.754 208.685 275.235 208.438 276.059C208.306 276.5 208.283 277.087 208.371 277.822L206.976 278.028C206.84 276.996 206.891 276.131 207.131 275.434C207.556 274.202 208.521 273.474 210.025 273.252C211.275 273.068 212.241 273.299 212.923 273.946C213.611 274.592 214.02 275.364 214.152 276.26C214.292 277.206 214.105 278.06 213.588 278.822C213.29 279.266 212.723 279.833 211.885 280.524L210.934 281.305C210.479 281.677 210.13 282.017 209.885 282.329C209.447 282.882 209.206 283.461 209.16 284.063L215.12 283.183L215.327 284.586L207.835 285.692ZM220.139 284.205C218.848 284.396 217.854 284.151 217.156 283.472C216.464 282.788 216.036 281.896 215.873 280.795L217.306 280.584C217.48 281.34 217.694 281.876 217.949 282.192C218.397 282.761 219.085 282.978 220.015 282.841C220.736 282.734 221.285 282.438 221.66 281.956C222.036 281.474 222.174 280.902 222.077 280.242C221.957 279.428 221.641 278.893 221.131 278.636C220.626 278.379 219.964 278.311 219.146 278.432C219.055 278.446 218.961 278.462 218.865 278.482C218.774 278.496 218.681 278.512 218.584 278.531L218.391 277.22C218.536 277.215 218.657 277.208 218.753 277.2C218.851 277.19 218.955 277.179 219.068 277.162C219.581 277.086 219.989 276.936 220.293 276.711C220.828 276.317 221.036 275.724 220.919 274.932C220.832 274.343 220.571 273.918 220.138 273.656C219.706 273.394 219.231 273.3 218.719 273.376C217.804 273.511 217.22 273.935 216.967 274.647C216.828 275.038 216.795 275.572 216.869 276.247L215.512 276.447C215.382 275.567 215.434 274.795 215.668 274.13C216.065 272.948 216.967 272.252 218.374 272.044C219.487 271.88 220.388 272.023 221.078 272.471C221.766 272.915 222.185 273.646 222.336 274.664C222.443 275.389 222.349 276.005 222.056 276.51C221.873 276.823 221.616 277.087 221.283 277.299C221.883 277.384 222.379 277.648 222.771 278.09C223.168 278.526 223.418 279.096 223.523 279.801C223.689 280.929 223.481 281.898 222.9 282.709C222.319 283.52 221.399 284.019 220.139 284.205ZM229.267 278.253L228.476 272.898L225.768 278.769L229.267 278.253ZM229.908 282.433L229.482 279.544L224.695 280.251L224.481 278.799L228.372 270.552L229.53 270.381L230.662 278.047L232.27 277.809L232.461 279.105L230.853 279.342L231.28 282.231L229.908 282.433Z" fill="white"/>
<path d="M337.545 94.2849L369.167 99.8838L373.63 65.8815L364.609 72.9823L362.377 89.9835L346.566 87.1841L337.545 94.2849ZM344.334 104.185L351.124 114.086L360.146 106.985L344.334 104.185ZM380.42 75.7817L378.189 92.7828L387.21 85.682L380.42 75.7817ZM387.21 85.682L394 95.5822L396.232 78.5811L387.21 85.682ZM405.253 71.4802L400.79 105.483L432.412 111.081L436.876 77.0789L405.253 71.4802ZM414.275 64.3793L430.086 67.1787L423.296 57.2784L414.275 64.3793ZM412.043 81.3805L427.855 84.1798L425.622 101.181L409.812 98.3817L412.043 81.3805ZM407.58 115.383L414.369 125.283L423.391 118.182L407.58 115.383ZM414.369 125.283L405.348 132.384L421.16 135.184L414.369 125.283ZM443.665 86.9794L441.434 103.981L450.455 96.8796L443.665 86.9794ZM378.285 153.687L385.074 163.587L387.306 146.586L378.285 153.687ZM396.327 139.485L391.864 173.487L400.885 166.386L403.117 149.385L418.928 152.185L427.95 145.084L396.327 139.485Z" fill="white"/>
<path d="M379.652 241.802L374.23 265.692L368.516 266.535L361.543 249.139C361.118 248.067 360.831 247.693 359.966 247.343C358.553 246.773 356.303 246.375 354.349 246.209L354.381 245.534L363.579 244.176C364.751 244.003 365.929 244.691 366.411 246.111L370.618 258.851L373.973 242.641L379.652 241.802ZM404.289 253.716C403.43 247.748 395.733 248.549 395.392 245.877C395.289 245.064 395.876 244.097 397.405 243.645C398.164 243.422 400.285 243.023 402.884 243.87L403.126 238.938C401.75 238.62 400.004 238.376 397.922 238.683C392.579 239.472 389.272 243.098 389.89 247.501C390.336 250.759 393.322 252.173 395.53 252.951C397.799 253.747 398.611 254.354 398.75 255.345C398.959 256.863 397.392 257.778 395.839 258.034C393.129 258.481 391.429 257.874 390.079 257.427L389.83 262.522C391.185 262.962 393.597 263.165 396.019 262.836C401.697 261.997 404.964 258.415 404.289 253.716ZM419.486 259.009L424.486 258.271L416.786 236.32L412.171 237.001C411.134 237.154 410.355 237.936 410.115 238.998L405.096 261.134L410.772 260.296L411.4 256.755L418.336 255.73L419.486 259.009ZM412.272 251.894L413.865 242.99L416.756 251.232L412.272 251.894ZM387.375 240.662L386.242 263.918L380.837 264.716L381.972 241.46L387.375 240.662Z" fill="white"/>
</g>
</g>
<defs>
<clipPath id="clip0_10616_74228">
<rect width="360.653" height="217.208" fill="white" transform="translate(62.0273 125.897) rotate(-8.39905)"/>
</clipPath>
</defs>
</svg>
