<svg width="155" height="57" viewBox="0 0 155 57" fill="none" xmlns="http://www.w3.org/2000/svg">
<path d="M73.2318 53.9256L72.8968 55.3878L73.2318 53.9256ZM3.93097 0.506901C3.1065 0.426047 2.37258 1.02887 2.29173 1.85334L0.974157 15.2889C0.893299 16.1134 1.49614 16.8473 2.3206 16.9281C3.14507 17.009 3.87898 16.4062 3.95984 15.5817L5.13101 3.63898L17.0737 4.81015C17.8982 4.891 18.6321 4.28818 18.713 3.46371C18.7938 2.63923 18.191 1.90532 17.3665 1.82447L3.93097 0.506901ZM153.451 40.6394C152.877 39.2533 152.878 39.2532 152.877 39.2533C152.877 39.2534 152.877 39.2536 152.876 39.2538C152.875 39.2543 152.873 39.2551 152.87 39.2562C152.865 39.2584 152.857 39.2618 152.845 39.2664C152.823 39.2757 152.789 39.2897 152.743 39.3084C152.651 39.3456 152.514 39.4013 152.332 39.474C151.969 39.6193 151.431 39.8325 150.733 40.1018C149.338 40.6405 147.306 41.4036 144.77 42.2981C139.697 44.0875 132.613 46.3995 124.571 48.4903C108.415 52.6906 88.6648 55.9229 73.5668 52.4635L72.8968 55.3878C88.7509 59.0204 109.11 55.6095 125.326 51.3937C133.47 49.2765 140.637 46.9371 145.768 45.1273C148.335 44.222 150.394 43.4486 151.814 42.9005C152.524 42.6265 153.074 42.4087 153.448 42.259C153.635 42.1841 153.777 42.1263 153.874 42.0869C153.923 42.0672 153.959 42.0521 153.985 42.0418C153.997 42.0366 154.007 42.0327 154.013 42.03C154.017 42.0286 154.019 42.0275 154.021 42.0268C154.022 42.0264 154.023 42.0261 154.023 42.0259C154.024 42.0256 154.024 42.0255 153.451 40.6394ZM73.5668 52.4635C57.4684 48.775 40.3525 36.0324 27.1392 24.0168C20.5625 18.0362 15.0082 12.2878 11.0982 8.03445C9.14379 5.90841 7.60171 4.15754 6.54979 2.94005C6.02387 2.33135 5.62057 1.85609 5.34961 1.53407C5.21415 1.37306 5.11177 1.25037 5.0437 1.16847C5.00967 1.12753 4.98423 1.09678 4.9675 1.07654C4.95914 1.06642 4.95295 1.05893 4.94899 1.0541C4.947 1.05169 4.94556 1.04994 4.94467 1.04887C4.94424 1.04833 4.94398 1.04803 4.94376 1.04776C4.94366 1.04763 4.94368 1.04766 3.78457 1.99974C2.62545 2.95182 2.62576 2.95219 2.62621 2.95273C2.62653 2.95314 2.62712 2.95385 2.62779 2.95466C2.62912 2.95628 2.63102 2.95858 2.63345 2.96154C2.63834 2.96747 2.64544 2.97607 2.65471 2.9873C2.67327 3.00977 2.70059 3.04276 2.73651 3.08599C2.80835 3.17243 2.91461 3.29977 3.05408 3.46553C3.33304 3.79705 3.74483 4.28229 4.27975 4.9014C5.34951 6.13954 6.91211 7.9136 8.8896 10.0647C12.8434 14.3657 18.4618 20.1808 25.1209 26.2363C38.3791 38.2928 55.9868 51.5132 72.8968 55.3878L73.5668 52.4635Z" fill="#006E7D"/>
</svg>
