<svg width="132" height="54" viewBox="0 0 132 54" fill="none" xmlns="http://www.w3.org/2000/svg">
<path d="M25.1374 21.4871V25.0898H34.362C34.1171 27.0828 33.3824 28.6159 32.2395 29.6123C30.9334 30.8388 28.8109 32.2185 25.1374 32.2185C19.5047 32.2185 15.0965 27.926 15.0965 22.6369C15.0965 17.3479 19.4231 13.0553 25.1374 13.0553C28.1578 13.0553 30.4436 14.2051 32.0762 15.6615L34.7701 13.132C32.4844 11.0623 29.3823 9.45264 25.1374 9.45264C17.3822 9.45264 10.8516 15.3549 10.8516 22.6369C10.8516 29.919 17.3822 35.8212 25.1374 35.8212C29.3007 35.8212 32.4844 34.5181 34.9334 32.1419C37.4641 29.7657 38.2804 26.3929 38.2804 23.7101C38.2804 22.8669 38.1988 22.1004 38.1171 21.4871H25.1374Z" fill="#8A8A8A"/>
<path d="M49.1039 18.4985C44.1242 18.4985 39.9609 22.1012 39.9609 27.007C39.9609 31.9128 44.0426 35.5155 49.1039 35.5155C54.1651 35.5155 58.2468 31.9894 58.2468 27.0837C58.2468 22.1012 54.1651 18.4985 49.1039 18.4985ZM49.1039 32.2194C46.3283 32.2194 43.961 30.0731 43.961 27.0837C43.961 24.0175 46.3283 21.9479 49.1039 21.9479C51.8794 21.9479 54.2468 24.0175 54.2468 27.0837C54.2468 30.0731 51.8794 32.2194 49.1039 32.2194Z" fill="#8A8A8A"/>
<path d="M93.3601 20.4139H93.1969C92.2989 19.4174 90.5846 18.4976 88.3805 18.4976C83.809 18.4976 79.8906 22.1769 79.8906 27.006C79.8906 31.7585 83.809 35.5145 88.3805 35.5145C90.5846 35.5145 92.2989 34.5947 93.1969 33.5982H93.3601V34.8246C93.3601 38.044 91.4826 39.8071 88.5438 39.8071C86.0948 39.8071 84.6254 38.1974 83.9723 36.7409L80.5437 38.1207C81.5233 40.3436 84.2172 43.1798 88.6254 43.1798C93.2785 43.1798 97.2785 40.5736 97.2785 34.2881V18.9575H93.5234V20.4139H93.3601ZM88.7887 32.2184C86.0131 32.2184 83.9723 29.9955 83.9723 27.0827C83.9723 24.0932 86.0948 21.9469 88.7887 21.9469C91.4826 21.9469 93.605 24.1699 93.605 27.1593C93.6867 30.0721 91.5642 32.2184 88.7887 32.2184Z" fill="#8A8A8A"/>
<path d="M69.0687 18.4976C64.0891 18.4976 59.9258 22.1002 59.9258 27.006C59.9258 31.9118 64.0075 35.5145 69.0687 35.5145C74.13 35.5145 78.2117 31.9885 78.2117 27.0827C78.2117 22.1002 74.13 18.4976 69.0687 18.4976ZM69.0687 32.2184C66.2932 32.2184 63.9258 30.0721 63.9258 27.0827C63.9258 24.0166 66.2932 21.9469 69.0687 21.9469C71.8443 21.9469 74.2116 24.0166 74.2116 27.0827C74.2116 30.0721 71.8443 32.2184 69.0687 32.2184Z" fill="#8A8A8A"/>
<path d="M98.957 9.83643H102.875V35.5918H98.957V9.83643Z" fill="#8A8A8A"/>
<path d="M113.534 32.2184C111.494 32.2184 110.106 31.3752 109.126 29.6122L121.29 24.9364L120.881 23.9399C120.147 22.0236 117.779 18.4976 113.126 18.4976C108.473 18.4976 104.555 21.9469 104.555 27.006C104.555 31.7585 108.391 35.5145 113.534 35.5145C117.698 35.5145 120.065 33.1383 121.126 31.7585L118.024 29.8422C116.963 31.2986 115.575 32.2184 113.534 32.2184ZM113.289 21.717C114.922 21.717 116.31 22.4835 116.718 23.5566L108.555 26.7761C108.473 23.25 111.249 21.717 113.289 21.717Z" fill="#8A8A8A"/>
</svg>
