<svg width="70" height="58" viewBox="0 0 70 58" fill="none" xmlns="http://www.w3.org/2000/svg">
<path d="M46.3326 23.9237C46.3326 28.0179 45.5922 31.6894 44.1036 34.9517C43.8742 35.4551 43.4048 35.769 42.8384 35.7985C42.2719 35.8277 41.7703 35.5639 41.4866 35.0872L37.4794 28.352C37.307 28.0621 37.248 27.7631 37.2983 27.4321C37.4672 26.3222 37.5521 25.1532 37.5521 23.9237C37.5521 20.6175 36.9531 17.7658 35.7763 15.3575C34.6 12.9496 32.9439 11.0906 30.7978 9.77026C28.6627 8.45008 26.1242 7.79521 23.1828 7.79521C20.2521 7.79521 17.7142 8.45008 15.5568 9.77026C13.3998 11.0906 11.733 12.9496 10.5567 15.3575C9.38008 17.7658 8.79171 20.6175 8.79171 23.9237C8.79171 27.2087 9.38008 30.0708 10.5567 32.5003C11.733 34.9295 13.3998 36.799 15.5568 38.1192C17.7142 39.4398 20.2521 40.0942 23.1828 40.0942C24.3294 40.0942 25.4143 39.9931 26.4383 39.7908C27.0668 39.6667 27.6799 39.9333 28.0023 40.471L30.6995 44.9729C30.9368 45.3686 30.9676 45.807 30.7884 46.2303C30.6088 46.6534 30.2693 46.944 29.8138 47.0639C27.7218 47.6142 25.48 47.8894 23.085 47.8894C18.5419 47.8894 14.5329 46.8754 11.0576 44.8476C7.57156 42.8196 4.85887 40.0098 2.91989 36.4187C0.969848 32.8274 0 28.6765 0 23.9658C0 19.2552 0.980624 15.0936 2.95265 11.4917C4.91346 7.89007 7.6368 5.06985 11.1122 3.04199C14.5766 1.014 18.5853 0 23.1391 0C27.7259 0 31.7564 1.014 35.2318 3.04199C38.6959 5.06985 41.4197 7.87962 43.3805 11.4709C45.3524 15.062 46.3326 19.2129 46.3326 23.9237Z" fill="black"/>
<path fill-rule="evenodd" clip-rule="evenodd" d="M25.8286 34.0627L25.8113 34.1361C25.6321 34.8959 24.8526 35.3764 24.067 35.2111L20.1415 34.3856C19.7432 34.3019 19.4314 34.0911 19.2127 33.7575C18.994 33.4241 18.9295 33.0608 19.0203 32.6757L21.5317 22.0268L21.6211 22.0457L21.5548 21.935H28.8211C29.3671 21.935 29.8356 22.2011 30.1027 22.6626L43.2843 45.4401C43.5848 45.9592 44.1509 46.2338 44.7594 46.1553C45.368 46.077 45.8406 45.6689 45.9907 45.0916L54.4116 12.7509C54.5784 12.1097 55.1544 11.6748 55.8364 11.6748H61.6659C62.3971 11.6748 63.0079 12.1834 63.1185 12.884L69.982 56.3597C70.0491 56.7851 69.9336 57.1771 69.6442 57.5035C69.3551 57.83 68.9731 58.0001 68.5294 58.0001H63.3954C62.6564 58.0001 62.0403 57.4794 61.9394 56.7698L58.9602 35.7965C58.8631 35.1122 58.2914 34.6035 57.5802 34.568C56.8687 34.5325 56.2461 34.9814 56.0767 35.6523L50.71 56.914C50.5471 57.5598 49.9684 58.0001 49.2826 58.0001H43.5802C43.0359 58.0001 42.5688 57.736 42.301 57.2766L28.5405 33.6789C28.236 33.1565 27.6614 32.8838 27.0489 32.9703C26.4366 33.0571 25.9666 33.4778 25.8286 34.0627Z" fill="black"/>
</svg>
