<svg width="33" height="33" viewBox="0 0 33 33" fill="none" xmlns="http://www.w3.org/2000/svg">
<g clip-path="url(#clip0_10616_74219)">
<path d="M25.0826 13.29C24.0251 13.52 23.1126 14.11 22.6851 15.1275C22.4276 15.745 22.0676 17.34 21.0801 16.9275C20.6076 16.7325 20.6151 16.055 20.6701 15.6325C20.7876 14.765 21.1776 13.9725 21.4451 13.1475C21.7201 12.2925 21.9576 11.4325 22.1276 10.5475C22.6976 7.61748 22.5401 4.24248 20.4676 1.89998C20.1176 1.49998 19.2351 0.574983 18.6526 0.554983C18.2926 0.544983 18.6476 0.969983 18.7476 1.11248C18.9501 1.40498 19.1201 1.72248 19.2501 2.05498C20.7826 5.96498 17.0051 8.94248 14.5226 11.26C13.3326 12.3725 12.3826 13.5525 11.5276 14.93C11.4426 15.0625 11.2551 15.5075 11.0126 15.415C10.7251 15.305 10.6951 14.6475 10.6051 14.4025C10.4351 13.9325 10.1726 13.42 9.83507 13.0525C9.18257 12.3375 8.27007 11.855 7.28257 11.92C7.24507 11.9225 7.13757 11.94 7.00507 11.97C6.79757 12.015 6.24257 12.0875 6.39257 12.4225C6.47007 12.595 6.69757 12.58 6.86007 12.6275C8.94507 13.2675 8.89757 15.4525 8.56007 17.2075C7.95007 20.4025 6.26007 23.4225 7.46007 26.7075C8.87507 30.58 13.3051 32.9975 17.3251 32.3325C18.4226 32.1525 19.6876 31.7975 20.6726 31.2675C21.7201 30.7025 22.8676 29.93 23.6851 29.06C24.7376 27.9425 25.4076 26.51 25.6051 24.9925C25.8376 23.2375 25.2776 21.5825 24.7676 19.925C24.1526 17.925 23.4451 14.66 26.0001 13.6825C26.1251 13.6325 26.3751 13.595 26.4626 13.4625C26.7876 12.9775 25.2276 13.26 25.0826 13.29Z" fill="#ED6C30"/>
<path d="M17.467 27.0175C17.997 27.4625 18.7395 27.245 19.2395 26.865C19.507 26.6625 19.737 26.4025 19.887 26.1C19.9495 25.97 20.022 25.805 20.022 25.6575C20.022 25.46 19.9045 25.265 19.9545 25.0625C20.3745 24.98 20.8945 26.1875 20.947 26.4675C21.367 28.675 19.287 30.495 17.2795 30.8475C13.892 31.44 11.9445 28.4725 12.3345 25.8375C12.577 24.1975 13.677 23.07 14.797 21.945C15.7245 21.0125 16.5845 20.2125 16.8845 19C16.937 18.785 16.9245 18.455 16.862 18.2425C16.8095 18.06 16.7095 17.8925 16.7045 17.695C16.6895 17.28 17.092 17.8225 17.1845 17.9275C18.2995 19.185 18.617 21.0425 18.3195 22.6675C18.127 23.7175 17.377 24.4675 17.1145 25.4725C16.962 26.045 16.977 26.6025 17.467 27.0175Z" fill="#FCC21B"/>
</g>
<defs>
<clipPath id="clip0_10616_74219">
<rect width="32" height="32" fill="white" transform="translate(0.433594 0.5)"/>
</clipPath>
</defs>
</svg>
