<svg width="333" height="93" viewBox="0 0 333 93" fill="none" xmlns="http://www.w3.org/2000/svg">
<g clip-path="url(#clip0_10670_79207)">
<path fill-rule="evenodd" clip-rule="evenodd" d="M0 13.4367V61.4168V87.2541C0 89.0959 0.739601 90.6804 2.12112 91.8018C3.50264 92.9224 5.14145 93.2673 6.82386 92.7905L47.1635 81.3608C49.5672 80.6802 51.1816 78.4557 51.1816 75.8245V28.9465C51.1816 26.4904 49.7957 24.3987 47.6135 23.5595L7.27303 8.04968C5.55834 7.39118 3.80528 7.63558 2.31125 8.74231C0.817224 9.84903 0 11.5073 0 13.4367Z" fill="white"/>
<path fill-rule="evenodd" clip-rule="evenodd" d="M11.6289 5.75035V56.5083C11.6289 58.3492 12.3685 59.9346 13.75 61.0561C15.1315 62.1766 16.7704 62.5215 18.4528 62.0447L58.7924 50.615C61.1952 49.9344 62.8096 47.709 62.8096 45.0787V21.2592C62.8096 18.8032 61.4246 16.7124 59.2416 15.8723L18.9019 0.363376C17.1873 -0.296047 15.4342 -0.0516453 13.9393 1.056C12.4461 2.1618 11.6289 3.82096 11.6289 5.75035Z" fill="#666666" fill-opacity="0.501961"/>
<path d="M90.6315 17.3812V61.2019H83.375V17.3812H90.6315ZM99.7579 46.0961H88.874V39.2621H98.2272C100.722 39.2621 102.592 38.6026 103.896 37.2838C105.2 35.905 105.88 34.0466 105.88 31.6487C105.88 29.2508 105.2 27.3925 103.953 26.1336C102.649 24.8747 100.778 24.2152 98.3406 24.2152H88.1937V17.3812H99.7579C102.536 17.3812 104.973 17.9807 107.014 19.1797C109.055 20.3786 110.643 22.0571 111.776 24.2152C112.91 26.3134 113.477 28.8312 113.477 31.7087C113.477 34.5262 112.91 36.9841 111.776 39.1422C110.643 41.3602 109.055 43.0387 107.014 44.2377C104.973 45.4966 102.536 46.0961 99.7579 46.0961Z" fill="white"/>
<path d="M124.167 61.9812C121.219 61.9812 118.838 61.142 117.137 59.4634C115.436 57.725 114.586 55.5069 114.586 52.7493C114.586 50.0517 115.493 47.8336 117.307 46.216C119.065 44.5974 121.672 43.6382 124.96 43.3385L133.35 42.6791V42.0196C133.35 40.6409 133.123 39.5618 132.613 38.7225C132.159 37.9432 131.479 37.3437 130.629 36.9241C129.778 36.5644 128.758 36.3846 127.567 36.3846C125.527 36.3846 123.94 36.8042 122.863 37.6435C121.729 38.4827 121.219 39.7416 121.219 41.3003H115.323C115.323 39.1422 115.89 37.2838 116.91 35.7252C117.931 34.1066 119.405 32.9076 121.275 32.0084C123.203 31.1092 125.414 30.6896 127.907 30.6896C130.459 30.6896 132.613 31.1692 134.427 32.1283C136.241 33.0275 137.602 34.4663 138.622 36.3246C139.586 38.183 140.096 40.461 140.096 43.2186V61.2019H134.03L133.52 56.8258C132.896 58.3244 131.762 59.5833 130.005 60.5425C128.304 61.5017 126.321 61.9812 124.167 61.9812ZM126.434 56.4661C128.531 56.4661 130.232 55.8066 131.479 54.5478C132.726 53.2889 133.407 51.4904 133.407 49.2124V47.6538L127.567 48.1334C125.414 48.3732 123.883 48.7928 122.976 49.5122C122.069 50.2915 121.616 51.2506 121.616 52.4496C121.616 53.7684 122.012 54.7875 122.863 55.447C123.657 56.1064 124.847 56.4661 126.434 56.4661Z" fill="white"/>
<path d="M145.312 74.9299V31.5888H151.719L152.172 36.0848C153.022 34.3464 154.326 33.0275 156.026 32.1283C157.784 31.1692 159.654 30.6896 161.809 30.6896C164.417 30.6896 166.741 31.349 168.725 32.6079C170.653 33.8668 172.183 35.6652 173.26 37.9432C174.337 40.2212 174.904 42.9189 174.904 46.0361C174.904 49.0925 174.394 51.8501 173.374 54.248C172.353 56.6459 170.879 58.5642 168.895 59.943C166.968 61.3218 164.587 61.9812 161.809 61.9812C159.711 61.9812 157.84 61.5616 156.083 60.7223C154.383 59.8831 153.079 58.6841 152.229 57.2454V74.9299H145.312ZM152.286 46.3949C152.286 48.1334 152.626 49.692 153.249 51.0708C153.93 52.4496 154.837 53.5286 156.026 54.248C157.217 55.0273 158.577 55.387 160.165 55.387C161.809 55.387 163.226 55.0273 164.36 54.248C165.494 53.4687 166.401 52.3896 167.024 51.0708C167.648 49.692 167.931 48.1334 167.931 46.3949C167.931 44.6573 167.648 43.0987 167.024 41.7199C166.401 40.3411 165.494 39.322 164.36 38.5427C163.226 37.7634 161.809 37.3437 160.165 37.3437C158.577 37.3437 157.217 37.7634 156.026 38.4827C154.837 39.2621 153.93 40.3411 153.249 41.66C152.626 43.0388 152.286 44.5974 152.286 46.3949Z" fill="white"/>
<path d="M191.316 61.9812C188.539 61.9812 186.102 61.3218 184.004 59.943C181.85 58.6242 180.149 56.8258 178.959 54.4878C177.711 52.1498 177.145 49.4522 177.145 46.3949C177.145 43.2785 177.711 40.5809 178.902 38.243C180.092 35.905 181.737 34.0466 183.834 32.7278C185.932 31.349 188.369 30.6896 191.09 30.6896C193.924 30.6896 196.362 31.349 198.403 32.5479C200.444 33.8068 202.031 35.5453 203.165 37.8233C204.242 40.1013 204.809 42.739 204.809 45.8563V48.0734L180.773 48.1334L180.886 43.4584H197.949C197.949 41.4202 197.326 39.7416 196.135 38.5427C194.888 37.3437 193.244 36.6843 191.146 36.6843C189.502 36.6843 188.143 37.044 187.065 37.7634C185.932 38.4827 185.081 39.5618 184.514 41.0005C183.947 42.4393 183.664 44.1778 183.664 46.275C183.664 49.4522 184.344 51.9101 185.648 53.5286C186.952 55.1472 188.88 55.9865 191.43 55.9865C193.357 55.9865 194.888 55.5669 196.135 54.8475C197.326 54.0682 198.119 52.9891 198.516 51.6103H204.922C204.299 54.8475 202.825 57.3653 200.387 59.2237C198.006 61.0221 195.001 61.9812 191.316 61.9812Z" fill="white"/>
<path d="M226.362 31.4689V38.243H223.811C221.317 38.243 219.334 38.9623 217.86 40.4011C216.442 41.7799 215.705 43.938 215.705 46.8145V61.2019H208.789V31.6487H215.309L215.875 37.7634H215.195C215.592 35.7851 216.499 34.2265 217.86 32.9676C219.277 31.7087 221.09 31.0493 223.301 31.0493C223.811 31.0493 224.265 31.1092 224.775 31.1691C225.285 31.2291 225.796 31.289 226.362 31.4689Z" fill="white"/>
<path d="M253.018 17.3812V61.2019H245.762V17.3812H253.018ZM262.145 46.0961H251.261V39.2621H260.614C263.108 39.2621 264.979 38.6026 266.283 37.2838C267.587 35.905 268.267 34.0466 268.267 31.6487C268.267 29.2508 267.587 27.3925 266.34 26.1336C265.036 24.8747 263.165 24.2152 260.727 24.2152H250.58V17.3812H262.145C264.922 17.3812 267.36 17.9807 269.401 19.1797C271.442 20.3786 273.029 22.0571 274.163 24.2152C275.297 26.3134 275.864 28.8312 275.864 31.7087C275.864 34.5262 275.297 36.9841 274.163 39.1422C273.029 41.3602 271.442 43.0387 269.401 44.2377C267.36 45.4966 264.922 46.0961 262.145 46.0961Z" fill="white"/>
<path d="M286.553 61.9812C283.606 61.9812 281.224 61.142 279.524 59.4634C277.823 57.725 276.973 55.5069 276.973 52.7493C276.973 50.0517 277.88 47.8336 279.694 46.216C281.451 44.5974 284.059 43.6382 287.347 43.3385L295.737 42.6791V42.0196C295.737 40.6409 295.51 39.5618 295 38.7225C294.546 37.9432 293.866 37.3437 293.015 36.9241C292.165 36.5644 291.145 36.3846 289.954 36.3846C287.914 36.3846 286.327 36.8042 285.25 37.6435C284.116 38.4827 283.606 39.7416 283.606 41.3003H277.71C277.71 39.1422 278.277 37.2838 279.297 35.7252C280.317 34.1066 281.791 32.9076 283.662 32.0084C285.59 31.1092 287.801 30.6896 290.294 30.6896C292.845 30.6896 295 31.1692 296.814 32.1283C298.628 33.0275 299.988 34.4663 301.009 36.3246C301.973 38.183 302.483 40.461 302.483 43.2186V61.2019H296.417L295.907 56.8258C295.283 58.3244 294.149 59.5833 292.392 60.5425C290.691 61.5017 288.708 61.9812 286.553 61.9812ZM288.82 56.4661C290.918 56.4661 292.619 55.8066 293.866 54.5478C295.113 53.2889 295.793 51.4904 295.793 49.2124V47.6538L289.954 48.1334C287.801 48.3732 286.27 48.7928 285.363 49.5122C284.456 50.2915 284.002 51.2506 284.002 52.4496C284.002 53.7684 284.399 54.7875 285.25 55.447C286.043 56.1064 287.234 56.4661 288.82 56.4661Z" fill="white"/>
<path d="M311.071 31.5887L320.197 58.9239L316.457 66.4173L303.758 31.5887H311.071ZM304.495 74.9299V68.8752H308.633C309.54 68.8752 310.334 68.7553 311.014 68.5155C311.695 68.2757 312.318 67.916 312.885 67.3165C313.395 66.717 313.849 65.8778 314.246 64.6788L325.866 31.5887H333.01L319.29 67.7961C318.27 70.4937 316.967 72.532 315.436 73.7309C313.849 74.9898 311.921 75.6492 309.654 75.6492C308.69 75.6492 307.783 75.5893 306.933 75.4694C306.082 75.3495 305.288 75.1696 304.495 74.9299Z" fill="white"/>
</g>
<defs>
<clipPath id="clip0_10670_79207">
<rect width="333" height="93" fill="white"/>
</clipPath>
</defs>
</svg>
