<svg width="84" height="41" viewBox="0 0 84 41" fill="none" xmlns="http://www.w3.org/2000/svg">
<path d="M8.91534 3.80835C7.71863 4.60694 6.62058 5.5194 5.62878 6.55564C4.83381 7.38623 4.12186 8.27564 3.48438 9.21729L8.91534 3.80835Z" fill="white"/>
<path d="M10.8393 14.1095C11.1595 13.4921 11.5309 12.9091 11.9563 12.3613C12.8334 11.2319 13.9167 10.3246 15.2045 9.63895C15.2837 9.59706 15.3662 9.56035 15.4469 9.52082L24.0719 0.931179C23.4586 0.799416 22.8306 0.700115 22.1903 0.629057L0.121094 22.6074C0.189396 23.2399 0.288056 23.8672 0.416122 24.4902L10.8393 14.1095Z" fill="white"/>
<path d="M19.8788 0.499912C19.2944 0.499912 18.7214 0.528614 18.1551 0.57379L0.0891713 18.5658C0.0308299 19.1865 0 19.8124 0 20.4444C0 20.571 0.00664234 20.6961 0.00901394 20.8223L20.4015 0.513083C20.2274 0.508846 20.0552 0.499912 19.8788 0.499912Z" fill="white"/>
<path d="M15.954 0.870948C14.9005 1.07565 13.8812 1.36224 12.8984 1.7373L1.38572 13.2032C0.981127 14.2262 0.666178 15.2658 0.439453 16.3218L15.954 0.870948Z" fill="white"/>
<path d="M34.3818 34.0002C36.0239 32.1861 37.2937 30.1301 38.1896 27.8336C39.0852 25.5376 39.5334 23.1301 39.5334 20.6111C39.5334 18.1301 39.0662 15.6859 38.1332 13.2779C37.1997 10.8703 35.8745 8.72211 34.1575 6.83364C32.5666 5.084 30.6679 3.64823 28.4694 2.51835L22.1069 8.85482C22.861 9.02141 23.5654 9.27318 24.2185 9.61106C25.5063 10.2779 26.5982 11.1579 27.4942 12.2501C28.3902 13.3428 29.0618 14.6026 29.5101 16.028C29.9578 17.4539 30.1822 18.9263 30.1822 20.4445C30.1822 21.6671 30.0323 22.8708 29.7339 24.0558C29.4346 25.2416 28.9869 26.3522 28.3902 27.3889L27.7921 26.7282C26.6044 25.4162 24.911 24.6666 23.1338 24.6666H20.2945C19.1433 24.6666 18.5376 26.0209 19.3098 26.868L23.6863 31.6666C22.5665 32.1485 21.2593 32.3889 19.7666 32.3889C18.087 32.3889 16.5934 32.0558 15.2871 31.3889C13.9799 30.7221 12.888 29.8431 12.0114 28.7503C11.1335 27.6581 10.4713 26.3983 10.0231 24.9725C9.67113 23.8525 9.45958 22.7033 9.38416 21.5254L1.89844 28.9805C2.80344 30.9475 3.97881 32.724 5.43165 34.3056C7.14822 36.1762 9.22005 37.6765 11.6471 38.8059C14.0733 39.9358 16.7613 40.5 19.7106 40.5C21.5026 40.5 23.2106 40.2779 24.8342 39.8336C26.4583 39.3889 27.979 38.7776 29.3981 37.9998C30.7191 39.4167 32.5761 40.2224 34.5213 40.2224H37.0883C38.2418 40.2224 38.8466 38.8642 38.0701 38.0181L34.3818 34.0002Z" fill="white"/>
<path d="M9.38233 19.6323C9.4345 18.772 9.56067 17.9207 9.76036 17.0793L0.789062 26.0139C0.947011 26.5612 1.132 27.1038 1.33785 27.6436L9.38233 19.6323Z" fill="white"/>
<path d="M25.5755 1.33011L18.1543 8.7207C18.6689 8.65059 19.2054 8.61106 19.7684 8.61106C19.9928 8.61106 20.2133 8.61812 20.431 8.62989L27.1787 1.90988C26.656 1.68965 26.121 1.49811 25.5755 1.33011Z" fill="white"/>
<path d="M83.9045 5.62518C83.4074 2.71694 80.8627 0.5 77.7901 0.5H77.7896C75.4355 0.5 73.284 1.82093 72.2334 3.91129L63.4428 21.4016L54.7054 3.92305C53.6571 1.82658 51.5018 0.5 49.143 0.5H49.0956C45.6662 0.5 42.8867 3.25812 42.8867 6.66V37.2882C42.8867 39.0619 44.3362 40.5 46.124 40.5H48.9623C50.75 40.5 52.1995 39.0619 52.1995 37.2882V16.5565L59.1113 30.3165L83.9045 5.62518Z" fill="white"/>
<path d="M74.6855 20.8579V23.0649L83.9984 13.7906V11.5831L74.6855 20.8579Z" fill="white"/>
<path d="M84.0012 37.2882V36.3616L79.8457 40.5H80.7635C81.503 40.5 82.1817 40.2515 82.7267 39.8379L83.341 39.2266C83.7536 38.6873 84.0012 38.0172 84.0012 37.2882Z" fill="white"/>
<path d="M70.3615 25.1648L61.7578 33.7333C62.1311 33.8801 62.5319 33.9648 62.9474 33.9648H63.7419L68.1426 29.5818L70.3615 25.1648Z" fill="white"/>
<path d="M74.6855 16.7285V18.9355L83.9984 9.66119V7.45413L74.6855 16.7285Z" fill="white"/>
<path d="M74.5134 16.9012L59.7559 31.5986L60.0509 32.1859C60.196 32.4753 60.3848 32.7346 60.6025 32.9619L72.295 21.3177L74.5134 16.9012Z" fill="white"/>
<path d="M83.998 30.3092V28.1021L74.6895 37.3727C74.7056 37.992 74.8972 38.568 75.2188 39.0522L83.998 30.3092Z" fill="white"/>
<path d="M83.9984 17.9205V15.7134L74.6855 24.9883V27.1953L83.9984 17.9205Z" fill="white"/>
<path d="M83.9994 34.4388V32.2318L76.1973 40.0021C76.6948 40.3141 77.282 40.4976 77.9138 40.4995L83.9994 34.4388Z" fill="white"/>
<path d="M83.9984 26.1798V23.9727L74.6855 33.2475V35.4546L83.9984 26.1798Z" fill="white"/>
<path d="M83.9984 22.0499V19.8428L74.6855 29.1172V31.3242L83.9984 22.0499Z" fill="white"/>
</svg>
