<svg width="86" height="57" viewBox="0 0 86 57" fill="none" xmlns="http://www.w3.org/2000/svg">
<path d="M8.49071 3.55826C7.35099 4.35685 6.30522 5.26931 5.36065 6.30555C4.60354 7.13614 3.92549 8.02555 3.31836 8.96719L8.49071 3.55826Z" fill="#17478B"/>
<path d="M10.3231 13.8595C10.628 13.2421 10.9817 12.659 11.3869 12.1112C12.2222 10.9818 13.2539 10.0745 14.4804 9.38889C14.5558 9.347 14.6344 9.31029 14.7112 9.27076L22.9255 0.681118C22.3414 0.549355 21.7433 0.450054 21.1335 0.378996L0.115234 22.3574C0.180284 22.9898 0.274246 23.6171 0.396214 24.2402L10.3231 13.8595Z" fill="#17478B"/>
<path d="M18.9322 0.250065C18.3756 0.250065 17.8299 0.278767 17.2906 0.323942L0.0849251 18.3159C0.0293618 18.9367 0 19.5625 0 20.1945C0 20.3211 0.00632604 20.4463 0.00858471 20.5724L19.43 0.263235C19.2642 0.258999 19.1002 0.250065 18.9322 0.250065Z" fill="#17478B"/>
<path d="M15.1937 0.620826C14.1904 0.825532 13.2197 1.11212 12.2837 1.48718L1.31918 12.9531C0.933849 13.9761 0.633898 15.0157 0.417969 16.0717L15.1937 0.620826Z" fill="#17478B"/>
<path d="M32.7451 33.7502C34.309 31.9361 35.5183 29.8801 36.3717 27.5836C37.2245 25.2876 37.6514 22.8801 37.6514 20.3611C37.6514 17.8801 37.2065 15.4359 36.3179 13.0279C35.4289 10.6203 34.1667 8.47211 32.5315 6.58364C31.0163 4.834 29.2081 3.39823 27.1143 2.26835L21.0547 8.60482C21.773 8.77141 22.4438 9.02318 23.0658 9.36106C24.2923 10.0279 25.3322 10.9079 26.1855 12.0001C27.0388 13.0928 27.6785 14.3526 28.1054 15.778C28.5318 17.2039 28.7455 18.6763 28.7455 20.1945C28.7455 21.4171 28.6027 22.6208 28.3186 23.8058C28.0336 24.9916 27.6071 26.1022 27.0388 27.1389L26.4692 26.4782C25.3381 25.1662 23.7254 24.4166 22.0327 24.4166H19.3286C18.2323 24.4166 17.6554 25.7709 18.3908 26.618L22.559 31.4166C21.4924 31.8985 20.2475 32.1389 18.8259 32.1389C17.2263 32.1389 15.8038 31.8058 14.5597 31.1389C13.3147 30.4721 12.2748 29.5931 11.44 28.5003C10.6039 27.4081 9.97323 26.1483 9.54634 24.7225C9.21116 23.6025 9.00968 22.4533 8.93786 21.2754L1.80859 28.7305C2.6705 30.6975 3.7899 32.474 5.17356 34.0556C6.80839 35.9262 8.78156 37.4265 11.0931 38.5559C13.4037 39.6858 15.9637 40.25 18.7726 40.25C20.4792 40.25 22.1059 40.0279 23.6522 39.5836C25.1989 39.1389 26.6472 38.5276 27.9988 37.7498C29.2568 39.1667 31.0254 39.9724 32.8779 39.9724H35.3227C36.4213 39.9724 36.9973 38.6142 36.2578 37.7681L32.7451 33.7502Z" fill="#17478B"/>
<path d="M8.93602 19.3823C8.98571 18.522 9.10587 17.6707 9.29605 16.8293L0.751953 25.7639C0.90238 26.3112 1.07856 26.8538 1.27461 27.3936L8.93602 19.3823Z" fill="#17478B"/>
<path d="M24.3569 1.08011L17.2891 8.4707C17.7792 8.40059 18.2901 8.36106 18.8263 8.36106C19.04 8.36106 19.25 8.36812 19.4574 8.37989L25.8837 1.65988C25.3859 1.43965 24.8764 1.24811 24.3569 1.08011Z" fill="#17478B"/>
<path d="M79.9083 5.37518C79.4349 2.46694 77.0114 0.25 74.085 0.25H74.0846C71.8426 0.25 69.7936 1.57093 68.793 3.66129L60.421 21.1516L52.0996 3.67305C51.1013 1.57658 49.0486 0.25 46.8021 0.25H46.7569C43.4909 0.25 40.8438 3.00812 40.8438 6.41V37.0382C40.8438 38.8119 42.2242 40.25 43.9268 40.25H46.63C48.3326 40.25 49.7131 38.8119 49.7131 37.0382V16.3065L56.2958 30.0665L79.9083 5.37518Z" fill="#17478B"/>
<path d="M71.1289 20.6081V22.8152L79.9983 13.5408V11.3333L71.1289 20.6081Z" fill="#17478B"/>
<path d="M80.0006 37.0382V36.1116L76.043 40.25H76.9171C77.6213 40.25 78.2678 40.0015 78.7868 39.5879L79.3718 38.9766C79.7648 38.4373 80.0006 37.7672 80.0006 37.0382Z" fill="#17478B"/>
<path d="M67.0104 24.915L58.8164 33.4834C59.1719 33.6303 59.5536 33.715 59.9493 33.715H60.706L64.8972 29.3319L67.0104 24.915Z" fill="#17478B"/>
<path d="M71.1289 16.4783V18.6854L79.9983 9.41101V7.20395L71.1289 16.4783Z" fill="#17478B"/>
<path d="M70.965 16.651L56.9102 31.3484L57.1911 31.9357C57.3294 32.2251 57.5092 32.4844 57.7165 32.7117L68.8522 21.0675L70.965 16.651Z" fill="#17478B"/>
<path d="M79.9981 30.0593V27.8523L71.1328 37.1229C71.1482 37.7422 71.3307 38.3182 71.6369 38.8024L79.9981 30.0593Z" fill="#17478B"/>
<path d="M79.9983 17.6703V15.4632L71.1289 24.738V26.9451L79.9983 17.6703Z" fill="#17478B"/>
<path d="M79.9989 34.1888V31.9818L72.5684 39.7521C73.0422 40.0641 73.6015 40.2476 74.2032 40.2495L79.9989 34.1888Z" fill="#17478B"/>
<path d="M79.9983 25.9296V23.7225L71.1289 32.9973V35.2044L79.9983 25.9296Z" fill="#17478B"/>
<path d="M79.9983 21.8001V19.593L71.1289 28.8674V31.0744L79.9983 21.8001Z" fill="#17478B"/>
<path d="M3.8717 53.3541C3.66354 53.3541 3.49701 53.2986 3.37212 53.1876C3.24722 53.0765 3.18477 52.9239 3.18477 52.7296V47.0364H1.17603C0.974807 47.0364 0.815217 46.9913 0.69726 46.9011C0.586241 46.804 0.530732 46.6721 0.530732 46.5056C0.530732 46.3322 0.586241 46.2003 0.69726 46.1101C0.808279 46.013 0.967868 45.9644 1.17603 45.9644H6.57778C6.78594 45.9644 6.94553 46.013 7.05655 46.1101C7.16757 46.2003 7.22308 46.3322 7.22308 46.5056C7.22308 46.6721 7.1641 46.804 7.04614 46.9011C6.93512 46.9913 6.779 47.0364 6.57778 47.0364H4.56904V52.7296C4.56904 52.9169 4.50312 53.0696 4.37128 53.1876C4.24639 53.2986 4.07986 53.3541 3.8717 53.3541ZM9.74506 53.25C9.21772 53.25 8.80834 53.1112 8.51692 52.8337C8.2255 52.5561 8.07978 52.1676 8.07978 51.668V47.5048C8.07978 47.0191 8.21856 46.6409 8.4961 46.3703C8.78059 46.0997 9.17262 45.9644 9.67221 45.9644H12.9091C13.1173 45.9644 13.2768 46.013 13.3879 46.1101C13.4989 46.2003 13.5544 46.3322 13.5544 46.5056C13.5544 46.6721 13.4954 46.804 13.3775 46.9011C13.2664 46.9913 13.1103 47.0364 12.9091 47.0364H9.91159C9.77282 47.0364 9.6618 47.0815 9.57854 47.1717C9.50221 47.2619 9.46405 47.3868 9.46405 47.5464V48.9931H12.1181C12.3262 48.9931 12.4858 49.0417 12.5969 49.1388C12.7079 49.229 12.7634 49.3609 12.7634 49.5343C12.7634 49.7009 12.7044 49.8327 12.5864 49.9298C12.4754 50.0201 12.3193 50.0652 12.1181 50.0652H9.46405V51.668C9.46405 51.8276 9.50221 51.9525 9.57854 52.0427C9.6618 52.1329 9.77282 52.178 9.91159 52.178H13.1381C13.3462 52.178 13.5058 52.2265 13.6168 52.3237C13.7279 52.4139 13.7834 52.5457 13.7834 52.7192C13.7834 52.8857 13.7244 53.0176 13.6064 53.1147C13.4954 53.2049 13.3393 53.25 13.1381 53.25H9.74506ZM18.0972 53.3541C17.3131 53.3541 16.6331 53.2049 16.0572 52.9065C15.4813 52.6082 15.0407 52.178 14.7354 51.6159C14.4301 51.0539 14.2774 50.3878 14.2774 49.6176C14.2774 48.8474 14.4301 48.1813 14.7354 47.6193C15.0407 47.0503 15.4778 46.6166 16.0468 46.3183C16.6227 46.013 17.2992 45.8603 18.0763 45.8603C18.7216 45.8603 19.3184 45.9713 19.8665 46.1934C20.4147 46.4154 20.8206 46.7103 21.0843 47.0781C21.1675 47.1891 21.2091 47.3036 21.2091 47.4215C21.2091 47.595 21.1155 47.7511 20.9281 47.8899C20.8449 47.9523 20.7408 47.9836 20.6159 47.9836C20.5118 47.9836 20.4077 47.9627 20.3037 47.9211C20.1996 47.8725 20.1128 47.8066 20.0435 47.7234C19.8075 47.4527 19.5335 47.2585 19.2212 47.1405C18.909 47.0156 18.5274 46.9532 18.0763 46.9532C17.32 46.9532 16.7302 47.1891 16.307 47.6609C15.8837 48.1258 15.6721 48.778 15.6721 49.6176C15.6721 50.4502 15.8837 51.099 16.307 51.5639C16.7372 52.0288 17.3339 52.2612 18.0972 52.2612C18.9714 52.2612 19.6688 52.0045 20.1892 51.491C20.4043 51.2898 20.602 51.1892 20.7824 51.1892C20.9073 51.1892 21.0218 51.2308 21.1259 51.3141C21.2855 51.4529 21.3653 51.6055 21.3653 51.7721C21.3653 51.897 21.3202 52.0184 21.23 52.1363C20.9316 52.518 20.5049 52.8163 19.9498 53.0314C19.4016 53.2465 18.7841 53.3541 18.0972 53.3541ZM23.1184 53.3541C22.9102 53.3541 22.7437 53.2986 22.6188 53.1876C22.4939 53.0765 22.4314 52.9239 22.4314 52.7296V46.4848C22.4314 46.2905 22.4939 46.1379 22.6188 46.0268C22.7437 45.9158 22.9102 45.8603 23.1184 45.8603C23.3265 45.8603 23.4931 45.9193 23.6179 46.0373C23.7498 46.1483 23.8157 46.2975 23.8157 46.4848V48.9723H27.5522V46.4848C27.5522 46.2975 27.6146 46.1483 27.7395 46.0373C27.8714 45.9193 28.0413 45.8603 28.2495 45.8603C28.4577 45.8603 28.6242 45.9158 28.7491 46.0268C28.874 46.1379 28.9364 46.2905 28.9364 46.4848V52.7296C28.9364 52.9239 28.874 53.0765 28.7491 53.1876C28.6242 53.2986 28.4577 53.3541 28.2495 53.3541C28.0413 53.3541 27.8714 53.2986 27.7395 53.1876C27.6146 53.0696 27.5522 52.9169 27.5522 52.7296V50.0443H23.8157V52.7296C23.8157 52.9169 23.7498 53.0696 23.6179 53.1876C23.4931 53.2986 23.3265 53.3541 23.1184 53.3541ZM30.7402 53.3541C30.532 53.3541 30.3655 53.2986 30.2406 53.1876C30.1157 53.0765 30.0533 52.9239 30.0533 52.7296V48.8058C30.0533 47.8829 30.3412 47.1613 30.9171 46.6409C31.493 46.1205 32.291 45.8603 33.311 45.8603C34.331 45.8603 35.1289 46.1205 35.7048 46.6409C36.2807 47.1613 36.5687 47.8829 36.5687 48.8058V52.7296C36.5687 52.9239 36.5062 53.0765 36.3813 53.1876C36.2564 53.2986 36.0899 53.3541 35.8817 53.3541C35.6736 53.3541 35.5036 53.2986 35.3718 53.1876C35.2469 53.0696 35.1844 52.9169 35.1844 52.7296V48.7746C35.1844 48.1848 35.0248 47.7338 34.7056 47.4215C34.3865 47.1093 33.9216 46.9532 33.311 46.9532C32.7004 46.9532 32.2355 47.1093 31.9163 47.4215C31.5971 47.7338 31.4375 48.1848 31.4375 48.7746V52.7296C31.4375 52.9169 31.3716 53.0696 31.2398 53.1876C31.1149 53.2986 30.9484 53.3541 30.7402 53.3541ZM41.2018 53.3541C40.3899 53.3541 39.6891 53.198 39.0994 52.8857C38.5165 52.5665 38.0724 52.1259 37.7671 51.5639C37.4618 50.9949 37.3092 50.3427 37.3092 49.6072C37.3092 48.8717 37.4618 48.2229 37.7671 47.6609C38.0724 47.0919 38.5165 46.6513 39.0994 46.3391C39.6891 46.0199 40.3899 45.8603 41.2018 45.8603C42.0136 45.8603 42.7109 46.0199 43.2938 46.3391C43.8836 46.6513 44.3311 47.0919 44.6364 47.6609C44.9417 48.2229 45.0944 48.8717 45.0944 49.6072C45.0944 50.3427 44.9417 50.9949 44.6364 51.5639C44.3311 52.1259 43.8836 52.5665 43.2938 52.8857C42.7109 53.198 42.0136 53.3541 41.2018 53.3541ZM41.2018 52.2612C41.9928 52.2612 42.6069 52.0253 43.044 51.5535C43.4811 51.0747 43.6997 50.426 43.6997 49.6072C43.6997 48.7815 43.4707 48.1327 43.0128 47.6609C42.5618 47.1891 41.9234 46.9532 41.0977 46.9532C40.3414 46.9532 39.7516 47.196 39.3283 47.6817C38.912 48.1605 38.7039 48.8023 38.7039 49.6072C38.7039 50.426 38.9224 51.0747 39.3596 51.5535C39.7967 52.0253 40.4108 52.2612 41.2018 52.2612ZM47.8196 53.25C47.2923 53.25 46.8829 53.1112 46.5915 52.8337C46.3001 52.5561 46.1544 52.1676 46.1544 51.668V46.4848C46.1544 46.2905 46.2168 46.1379 46.3417 46.0268C46.4666 45.9158 46.6331 45.8603 46.8413 45.8603C47.0494 45.8603 47.216 45.9193 47.3409 46.0373C47.4727 46.1483 47.5386 46.2975 47.5386 46.4848V51.668C47.5386 51.8276 47.5768 51.9525 47.6531 52.0427C47.7364 52.1329 47.8474 52.178 47.9862 52.178H51.3167C51.5249 52.178 51.6845 52.2265 51.7955 52.3237C51.9065 52.4139 51.962 52.5457 51.962 52.7192C51.962 52.8857 51.903 53.0176 51.7851 53.1147C51.6741 53.2049 51.5179 53.25 51.3167 53.25H47.8196ZM55.8177 53.3541C55.0059 53.3541 54.3051 53.198 53.7153 52.8857C53.1324 52.5665 52.6884 52.1259 52.3831 51.5639C52.0778 50.9949 51.9251 50.3427 51.9251 49.6072C51.9251 48.8717 52.0778 48.2229 52.3831 47.6609C52.6884 47.0919 53.1324 46.6513 53.7153 46.3391C54.3051 46.0199 55.0059 45.8603 55.8177 45.8603C56.6295 45.8603 57.3269 46.0199 57.9097 46.3391C58.4995 46.6513 58.947 47.0919 59.2523 47.6609C59.5576 48.2229 59.7103 48.8717 59.7103 49.6072C59.7103 50.3427 59.5576 50.9949 59.2523 51.5639C58.947 52.1259 58.4995 52.5665 57.9097 52.8857C57.3269 53.198 56.6295 53.3541 55.8177 53.3541ZM55.8177 52.2612C56.6087 52.2612 57.2228 52.0253 57.6599 51.5535C58.097 51.0747 58.3156 50.426 58.3156 49.6072C58.3156 48.7815 58.0866 48.1327 57.6287 47.6609C57.1777 47.1891 56.5393 46.9532 55.7136 46.9532C54.9573 46.9532 54.3675 47.196 53.9443 47.6817C53.5279 48.1605 53.3198 48.8023 53.3198 49.6072C53.3198 50.426 53.5383 51.0747 53.9755 51.5535C54.4126 52.0253 55.0267 52.2612 55.8177 52.2612ZM64.4859 53.3541C63.7019 53.3541 63.0219 53.2049 62.446 52.9065C61.8701 52.6082 61.4294 52.178 61.1241 51.6159C60.8188 51.0539 60.6662 50.3878 60.6662 49.6176C60.6662 48.8474 60.8188 48.1813 61.1241 47.6193C61.4294 47.0503 61.8666 46.6166 62.4356 46.3183C63.0115 46.013 63.688 45.8603 64.4651 45.8603C65.1104 45.8603 65.7071 45.9713 66.2553 46.1934C66.8034 46.4154 67.2094 46.7103 67.473 47.0781C67.5563 47.1891 67.5979 47.3036 67.5979 47.4215C67.5979 47.595 67.5042 47.7511 67.3169 47.8899C67.2336 47.9523 67.1296 47.9836 67.0047 47.9836C66.9006 47.9836 66.7965 47.9627 66.6924 47.9211C66.5883 47.8725 66.5016 47.8066 66.4322 47.7234C66.1963 47.4527 65.9222 47.2585 65.61 47.1405C65.2978 47.0156 64.9161 46.9532 64.4651 46.9532C63.7088 46.9532 63.119 47.1891 62.6958 47.6609C62.2725 48.1258 62.0609 48.778 62.0609 49.6176C62.0609 50.4502 62.2725 51.099 62.6958 51.5639C63.1259 52.0288 63.7227 52.2612 64.4859 52.2612C65.1173 52.2612 65.61 52.1398 65.9639 51.897C66.3247 51.6541 66.5051 51.3176 66.5051 50.8874V50.6584C66.5051 50.5127 66.4704 50.4121 66.401 50.3566C66.3386 50.3011 66.2275 50.2733 66.0679 50.2733H64.7045C64.5102 50.2733 64.3576 50.2282 64.2465 50.138C64.1355 50.0409 64.08 49.909 64.08 49.7425C64.08 49.569 64.1321 49.4372 64.2361 49.347C64.3472 49.2499 64.5033 49.2013 64.7045 49.2013H66.7236C67.1261 49.2013 67.421 49.288 67.6083 49.4615C67.7957 49.628 67.8893 49.8952 67.8893 50.2629V50.6688C67.8893 51.1962 67.7471 51.6645 67.4626 52.0739C67.1781 52.4763 66.7757 52.792 66.2553 53.021C65.7418 53.2431 65.152 53.3541 64.4859 53.3541ZM69.9515 53.3541C69.7433 53.3541 69.5768 53.2986 69.4519 53.1876C69.327 53.0765 69.2646 52.9239 69.2646 52.7296V46.4848C69.2646 46.2905 69.327 46.1379 69.4519 46.0268C69.5768 45.9158 69.7433 45.8603 69.9515 45.8603C70.1527 45.8603 70.3193 45.9158 70.4511 46.0268C70.5829 46.1379 70.6488 46.2905 70.6488 46.4848V52.7296C70.6488 52.9239 70.5829 53.0765 70.4511 53.1876C70.3193 53.2986 70.1527 53.3541 69.9515 53.3541ZM73.7888 53.25C73.2615 53.25 72.8521 53.1112 72.5607 52.8337C72.2692 52.5561 72.1235 52.1676 72.1235 51.668V47.5048C72.1235 47.0191 72.2623 46.6409 72.5398 46.3703C72.8243 46.0997 73.2164 45.9644 73.716 45.9644H76.9528C77.161 45.9644 77.3206 46.013 77.4316 46.1101C77.5426 46.2003 77.5981 46.3322 77.5981 46.5056C77.5981 46.6721 77.5392 46.804 77.4212 46.9011C77.3102 46.9913 77.1541 47.0364 76.9528 47.0364H73.9553C73.8166 47.0364 73.7055 47.0815 73.6223 47.1717C73.546 47.2619 73.5078 47.3868 73.5078 47.5464V48.9931H76.1618C76.37 48.9931 76.5296 49.0417 76.6406 49.1388C76.7516 49.229 76.8071 49.3609 76.8071 49.5343C76.8071 49.7009 76.7481 49.8327 76.6302 49.9298C76.5192 50.0201 76.3631 50.0652 76.1618 50.0652H73.5078V51.668C73.5078 51.8276 73.546 51.9525 73.6223 52.0427C73.7055 52.1329 73.8166 52.178 73.9553 52.178H77.1818C77.39 52.178 77.5496 52.2265 77.6606 52.3237C77.7716 52.4139 77.8271 52.5457 77.8271 52.7192C77.8271 52.8857 77.7681 53.0176 77.6502 53.1147C77.5392 53.2049 77.383 53.25 77.1818 53.25H73.7888ZM82.4107 53.3541C81.7307 53.3541 81.0923 53.2431 80.4956 53.021C79.8989 52.792 79.382 52.4659 78.9448 52.0427C78.8408 51.9386 78.7887 51.8206 78.7887 51.6888C78.7887 51.5361 78.8581 51.3904 78.9969 51.2517C79.1079 51.1406 79.2293 51.0851 79.3612 51.0851C79.4999 51.0851 79.6665 51.1649 79.8607 51.3245C80.1869 51.6229 80.5719 51.8553 81.016 52.0219C81.467 52.1814 81.9319 52.2612 82.4107 52.2612C82.8686 52.2612 83.226 52.1849 83.4827 52.0323C83.7395 51.8727 83.8678 51.6506 83.8678 51.3662C83.8678 51.0678 83.729 50.8284 83.4515 50.648C83.1739 50.4607 82.7021 50.2941 82.036 50.1484C80.9883 49.9194 80.225 49.6176 79.7462 49.2429C79.2744 48.8682 79.0385 48.386 79.0385 47.7962C79.0385 47.4215 79.1634 47.0885 79.4132 46.797C79.663 46.4987 80.0099 46.2697 80.454 46.1101C80.905 45.9436 81.4185 45.8603 81.9944 45.8603C82.6397 45.8603 83.2121 45.9679 83.7117 46.183C84.2182 46.3911 84.6033 46.686 84.867 47.0676C84.9572 47.2134 85.0023 47.3383 85.0023 47.4423C84.9953 47.6158 84.9086 47.765 84.7421 47.8899C84.6519 47.9523 84.5478 47.9836 84.4298 47.9836C84.2147 47.9836 84.0378 47.9003 83.899 47.7338C83.6978 47.4909 83.4272 47.3001 83.0872 47.1613C82.7542 47.0225 82.3899 46.9532 81.9944 46.9532C81.5017 46.9532 81.1166 47.0295 80.8391 47.1821C80.5685 47.3278 80.4332 47.5325 80.4332 47.7962C80.4332 48.0599 80.565 48.2784 80.8287 48.4519C81.0993 48.6184 81.5642 48.778 82.2234 48.9307C82.9519 49.1041 83.5382 49.3019 83.9823 49.5239C84.4264 49.739 84.749 49.9958 84.9502 50.2941C85.1584 50.5925 85.2625 50.9498 85.2625 51.3662C85.2625 51.7617 85.1445 52.1121 84.9086 52.4174C84.6727 52.7157 84.3396 52.9482 83.9094 53.1147C83.4793 53.2743 82.9797 53.3541 82.4107 53.3541Z" fill="#17478B"/>
</svg>
