<svg width="180" height="100" viewBox="0 0 180 100" fill="none" xmlns="http://www.w3.org/2000/svg">
<path fill-rule="evenodd" clip-rule="evenodd" d="M71.077 48.5386C75.9703 54.5746 82.8849 56.4459 89.3251 54.9801C94.6093 53.7775 99.5884 50.3039 102.966 45.051C103.311 46.3374 103.868 48.8753 104.462 49.8448C105.948 50.8061 107.758 50.9157 109.581 50.5009C113.711 49.5605 117.562 45.8888 116.932 43.8869C113.519 33.5488 110.612 23.4857 109.293 12.8016C108.527 10.1809 104.753 9.54469 101.471 10.2916C98.9207 10.8719 96.6673 12.2306 96.2705 14.2057C96.1688 20.1438 95.6223 40.9376 87.4832 42.7904C86.755 42.957 85.9981 42.999 85.2012 42.8545C77.8899 41.7894 76.7489 23.1991 76.9924 17.0337C76.343 15.1647 71.8545 14.8023 68.1891 15.4781C68.9665 17.6933 69.4399 20.0879 69.5565 22.6502C69.9246 28.8622 68.6636 35.3619 67.1899 41.6007C68.324 44.2738 69.6411 46.6707 71.0782 48.5409L71.077 48.5386ZM63.026 20.8825C62.954 22.6129 63.0329 24.4937 63.2467 26.4455C63.2981 25.2837 63.297 24.1418 63.2318 23.0278V22.9777C63.2009 22.261 63.1323 21.5631 63.0271 20.8825H63.026Z" fill="white"/>
<path d="M143.191 31.5473C145.509 32.5204 151.674 32.5539 158.268 32.1425C151.199 38.4133 142.97 46.4015 141.409 50.3887C140.386 52.7948 140.436 60.5334 142.871 61.0015C146.241 61.5169 153.843 61.9087 161.127 61.8C168.099 61.6972 174.879 61.1552 177.539 59.9209C180.793 56.7265 181.088 47.0314 176.786 46.7182C170.951 47.9374 165.297 48.7765 159.51 49.0504C165.323 41.9798 171.628 34.5244 178.406 29.5792C180.82 28.6627 180.038 17.5992 177.307 18.2059C173.397 19.082 168.856 19.4645 164.125 19.5338C156.716 19.6436 148.861 19.0057 142.565 18.5318C138.95 18.2707 140.348 28.7586 143.19 31.5473H143.191Z" fill="white"/>
<path d="M78.274 79.1489C78.6623 79.4836 79.18 79.6138 79.7162 79.6138C80.992 79.6138 82.3615 78.87 82.2863 78.3122C81.6947 76.4155 81.4173 73.588 81.3988 70.872C81.5467 71.1137 83.2478 73.4392 84.7836 74.6293C85.2643 75.0011 85.6723 75.1499 86.0224 75.1499C86.7805 75.1499 87.2982 74.4247 87.8356 73.624C88.5197 72.6199 89.2408 71.6716 90.0359 70.7407C89.9804 74.2004 90.2393 77.9205 90.9234 79.1477C91.3117 79.4824 91.8294 79.6126 92.3656 79.6126C93.6229 79.6126 95.0108 78.8688 94.9368 78.311C93.8644 74.8326 93.698 68.342 94.604 64.7892C94.53 64.064 93.4576 63.655 92.4407 63.655C91.923 63.655 91.4053 63.7665 91.0724 63.9897C90.2034 64.5847 86.5228 70.1084 86.0606 70.7046C84.6368 69.1241 82.9901 66.4267 81.8622 64.5103C81.5849 63.9153 80.7528 63.6364 79.9208 63.6364C79.1072 63.6364 78.311 63.9153 78.0903 64.3987C77.1843 66.687 77.0907 76.8978 78.2752 79.1489H78.274ZM95.8625 73.5682C95.8625 76.8606 98.6001 79.5766 101.948 79.5766C105.277 79.5766 107.958 76.8606 107.958 73.5682C107.958 70.22 105.277 67.5052 101.948 67.5052C98.6001 67.5052 95.8625 70.2212 95.8625 73.5682ZM99.9129 73.438C99.9129 71.9121 100.893 70.6663 102.151 70.6663C103.409 70.6663 104.352 71.9121 104.352 73.438C104.352 74.9628 103.409 76.247 102.151 76.247C100.894 76.247 99.9129 74.964 99.9129 73.438ZM110.16 79.1477C110.529 79.4824 111.047 79.6126 111.583 79.6126C112.841 79.6126 114.229 78.8688 114.173 78.311C112.62 73.3079 113.914 71.4112 115.264 71.4112C116.152 71.4112 117.076 72.248 117.205 73.5682C117.298 74.6572 116.651 77.7938 117.131 78.7201C117.686 79.3523 118.518 79.6126 119.314 79.6126C120.424 79.6126 121.422 79.1106 121.386 78.4598C120.684 75.6043 123.107 69.2159 117.521 68.3408C117.096 68.285 116.707 68.2478 116.319 68.2478C115.247 68.2478 114.247 68.471 113.304 68.8243C113.341 68.1363 113.766 67.5784 113.452 67.1693C113.119 66.7417 112.324 66.5185 111.548 66.5185C110.771 66.5185 109.994 66.7603 109.734 67.2623C108.847 69.4937 108.939 76.9338 110.16 79.1477ZM128.876 79.5196C129.911 79.2779 130.891 78.8688 131.688 78.218C132.723 77.2511 131.983 74.6467 130.282 74.7583C129.95 74.7769 129.044 75.602 128.303 75.7659C128.062 75.8216 127.841 75.8553 127.637 75.8553C127.045 75.8553 126.602 75.5822 126.361 74.907C128.211 74.9593 130.264 74.7583 131.632 73.4009C132.908 72.0063 133.074 70.0155 132.002 68.5279C131.077 67.3006 129.616 66.7614 128.118 66.7614C124.771 66.7614 122.81 69.0683 122.422 72.341C122.108 76.154 123.864 79.6138 127.748 79.6138C128.099 79.6138 128.488 79.5766 128.876 79.5208V79.5196ZM127.859 69.6238C129.246 69.2519 130.042 70.9626 128.321 71.4101C128.081 71.4844 127.822 71.5216 127.508 71.5216C127.193 71.5216 126.805 71.4844 126.36 71.3915C126.545 70.5175 127.211 69.8109 127.858 69.625L127.859 69.6238ZM138.401 79.4255C138.789 79.4999 139.196 79.5557 139.621 79.5557C140.786 79.5557 141.97 79.221 143.024 78.5144V78.7561C142.95 80.8956 141.673 82.5878 140.231 82.5878C139.528 82.5878 138.789 82.1973 138.122 81.2489C137.9 80.8027 137.567 80.6167 137.161 80.6167C135.791 80.6167 133.85 82.9422 135.31 84.3182C136.772 85.6942 138.566 86.3636 140.304 86.3636C142.894 86.3636 145.353 84.8761 146.426 82.0299C147.517 79.0908 146.999 73.065 147.48 68.7685C147.554 68.1363 147.831 67.8387 147.147 67.4854C146.574 67.2251 145.613 66.9834 144.781 66.9834C143.856 66.9834 143.135 67.2623 143.301 68.0805C143.228 70.0155 143.043 75.8553 140.25 75.8553C139.935 75.8553 139.602 75.781 139.214 75.6136C137.124 74.7769 137.846 69.6622 138.29 67.8015C138.216 67.1879 136.903 66.816 135.812 66.816C135.091 66.816 134.462 66.9834 134.333 67.3553C132.909 71.1125 133.39 78.2924 138.402 79.4267L138.401 79.4255Z" fill="white"/>
<path d="M23.9352 45.751C23.0114 37.9341 22.5241 30.6814 30.0206 25.1691C34.5902 22.0918 39.2335 22.3307 42.0061 26.7019C45.7762 32.6665 34.4082 56.7232 34.1041 63.7451C33.8806 75.5589 45.9052 78.1432 55.5938 72.7556C57.8377 71.5083 60.0147 69.8939 61.8105 67.8214C60.7519 64.6485 59.6991 57.5741 60.669 53.0048C62.4521 43.8171 66.448 32.5931 65.8606 22.7084C64.9817 2.50653 38.3223 -5.51197 21.2904 3.95893C7.18669 10.9948 -2.29684 25.8079 0.484979 42.6678C2.20936 53.668 14.5208 52.8672 20.6408 49.4647C22.5783 48.3877 23.8834 47.1241 23.9352 45.7521V45.751ZM49.9472 93.9005C53.085 99.6797 60.1403 101.668 65.8514 98.4931C71.5624 95.3179 73.6865 88.2249 70.5488 82.4456C67.5228 76.8726 60.2992 74.574 54.5882 77.7492C48.8771 80.9244 46.9212 88.3275 49.9472 93.9005Z" fill="white"/>
<path d="M120.703 54.764C121.925 55.9158 123.633 56.3636 125.404 56.3636C129.616 56.3636 134.133 53.8037 134.011 51.8844C132.423 37.7438 132.302 32.1127 133.217 22.1951C132.973 19.6352 129.493 18.2918 126.136 18.2918C123.633 18.2918 121.131 19.1239 120.337 20.787C118.566 27.4418 117.895 45.9336 120.702 54.7628L120.703 54.764ZM127.846 3.63635C131.3 3.63635 134.101 6.57118 134.101 10.1924C134.101 13.8125 131.301 16.7485 127.846 16.7485C124.393 16.7485 121.592 13.8137 121.592 10.1924C121.592 6.57236 124.391 3.63635 127.846 3.63635ZM125.42 13.4576C125.586 13.6056 125.814 13.6644 126.042 13.6644C126.586 13.6644 127.169 13.3341 127.136 13.0861C127.042 12.7559 126.963 12.3704 126.901 11.9508L127.259 11.9519L127.807 11.9496C128.318 12.6677 128.873 13.3706 129.169 13.541C129.311 13.6327 129.484 13.6656 129.657 13.6656C130.193 13.6656 130.783 13.3271 130.759 13.0873C130.654 12.7371 130.57 12.3151 130.506 11.8532C130.89 11.8238 131.232 11.7886 131.513 11.7439C132.43 11.5171 131.829 10.4734 131.244 10.4992L130.386 10.5533C130.371 10.2724 130.365 9.98676 130.363 9.70467C130.805 9.67411 131.198 9.63533 131.512 9.58596C132.429 9.35912 131.828 8.3154 131.243 8.34126L130.412 8.39416C130.451 7.92167 130.514 7.48678 130.599 7.1236C130.568 6.80155 130.126 6.62056 129.701 6.62056C129.37 6.62056 129.055 6.72752 128.961 6.95906C128.856 7.23762 128.773 7.79826 128.722 8.48584C128.366 8.50229 128.027 8.51522 127.698 8.5258C127.435 8.00747 127.22 7.51265 127.086 7.0907C126.992 6.78511 126.526 6.60293 126.101 6.60293C125.771 6.60293 125.456 6.70989 125.346 6.95789C125.232 7.24937 125.148 7.84175 125.098 8.55753C124.796 8.55518 124.493 8.5493 124.186 8.54225C123.221 8.59867 123.048 9.50486 123.886 9.66119C124.104 9.6988 124.518 9.73052 125.047 9.75285C125.042 10.0714 125.043 10.3958 125.05 10.7143C124.764 10.7108 124.477 10.7061 124.186 10.699C123.221 10.7554 123.048 11.6616 123.886 11.8179C124.113 11.8567 124.552 11.8896 125.111 11.912C125.171 12.6054 125.271 13.1755 125.416 13.4564L125.42 13.4576ZM128.668 9.77872L128.665 10.1795C128.579 10.049 128.494 9.91858 128.411 9.78459L128.668 9.77872ZM126.776 10.7072C126.77 10.5932 126.764 10.4769 126.76 10.3617C126.809 10.4487 126.881 10.565 126.968 10.7037L126.776 10.7072Z" fill="white"/>
</svg>
