<svg width="798" height="323" viewBox="0 0 798 323" fill="none" xmlns="http://www.w3.org/2000/svg">
<g opacity="0.1">
<g clip-path="url(#clip0_10580_69541)">
<path d="M177.847 145.211C177.847 155.427 176.056 164.588 172.457 172.729C171.902 173.985 170.767 174.768 169.397 174.842C168.026 174.915 166.814 174.256 166.128 173.067L156.438 156.26C156.021 155.537 155.878 154.791 156 153.965C156.408 151.196 156.614 148.279 156.614 145.211C156.614 136.961 155.165 129.845 152.32 123.835C149.475 117.826 145.47 113.188 140.28 109.893C135.117 106.6 128.978 104.965 121.866 104.965C114.779 104.965 108.641 106.6 103.424 109.893C98.208 113.188 94.1777 117.826 91.3334 123.835C88.4879 129.845 87.0649 136.961 87.0649 145.211C87.0649 153.408 88.4879 160.55 91.3334 166.612C94.1777 172.673 98.2086 177.338 103.424 180.633C108.641 183.928 114.779 185.561 121.866 185.561C124.638 185.561 127.262 185.309 129.738 184.804C131.258 184.494 132.741 185.16 133.52 186.501L140.043 197.735C140.617 198.722 140.691 199.816 140.257 200.872C139.823 201.928 139.002 202.653 137.901 202.952C132.842 204.325 127.421 205.012 121.629 205.012C110.642 205.012 100.948 202.482 92.5435 197.422C84.1136 192.361 77.5535 185.35 72.8651 176.389C68.1497 167.428 65.8047 157.071 65.8047 145.315C65.8047 133.561 68.1756 123.176 72.9445 114.189C77.6864 105.202 84.2717 98.1647 92.6758 93.1042C101.053 88.0438 110.748 85.5142 121.76 85.5142C132.852 85.5142 142.598 88.0438 151.002 93.1042C159.379 98.1647 165.967 105.176 170.708 114.137C175.476 123.098 177.847 133.456 177.847 145.211Z" fill="white"/>
<path fill-rule="evenodd" clip-rule="evenodd" d="M128.26 170.511L128.218 170.694C127.785 172.59 125.899 173.789 124 173.377L114.507 171.317C113.543 171.108 112.789 170.582 112.26 169.75C111.731 168.918 111.576 168.012 111.796 167.05L117.868 140.478L118.085 140.526L117.924 140.249H135.495C136.816 140.249 137.948 140.913 138.594 142.065L170.471 198.902C171.197 200.197 172.567 200.882 174.038 200.687C175.51 200.491 176.653 199.473 177.016 198.032L197.38 117.332C197.783 115.733 199.176 114.647 200.826 114.647H214.922C216.691 114.647 218.168 115.916 218.435 117.665L235.033 226.15C235.195 227.211 234.916 228.189 234.216 229.003C233.518 229.818 232.593 230.243 231.52 230.243H219.104C217.317 230.243 215.828 228.943 215.583 227.173L208.379 174.838C208.145 173.131 206.762 171.861 205.042 171.772C203.321 171.684 201.816 172.804 201.406 174.479L188.429 227.533C188.035 229.144 186.635 230.244 184.977 230.244H171.187C169.871 230.244 168.741 229.584 168.093 228.438L134.818 169.555C134.082 168.251 132.692 167.57 131.211 167.786C129.73 168.003 128.594 169.053 128.26 170.512L128.26 170.511Z" fill="white"/>
<path d="M16.9155 173.211H14.3768V172.358H20.4675V173.211H17.9288V179.974H16.9155V173.211Z" fill="white"/>
<path d="M13.914 162.608H19.1727V163.462H14.9274V165.883H18.8847V166.736H14.9274V169.371H19.2047V170.224H13.914V162.608Z" fill="white"/>
<path d="M18.3898 154.48C18.276 153.94 18.0236 153.534 17.6324 153.264C17.2484 152.994 16.7898 152.859 16.2565 152.859C15.8013 152.859 15.4102 152.944 15.0831 153.115C14.7631 153.285 14.4965 153.517 14.2831 153.808C14.0769 154.093 13.924 154.42 13.8245 154.789C13.7249 155.159 13.6751 155.543 13.6751 155.941C13.6751 156.375 13.7249 156.788 13.8245 157.179C13.924 157.563 14.0769 157.901 14.2831 158.192C14.4965 158.477 14.7667 158.704 15.0938 158.875C15.4209 159.045 15.812 159.131 16.2671 159.131C16.6013 159.131 16.8964 159.077 17.1524 158.971C17.4156 158.857 17.6396 158.704 17.8244 158.512C18.0164 158.313 18.1658 158.078 18.2724 157.808C18.3791 157.538 18.4431 157.246 18.4644 156.933H19.4778C19.3782 157.893 19.0476 158.64 18.4858 159.173C17.924 159.707 17.156 159.973 16.1818 159.973C15.5916 159.973 15.076 159.874 14.6351 159.675C14.1942 159.469 13.828 159.188 13.5365 158.832C13.2449 158.477 13.0245 158.057 12.8751 157.573C12.7329 157.09 12.6618 156.571 12.6618 156.016C12.6618 155.461 12.74 154.942 12.8965 154.459C13.0529 153.968 13.2805 153.541 13.5791 153.179C13.8849 152.816 14.2618 152.532 14.7098 152.325C15.1649 152.112 15.684 152.005 16.2671 152.005C16.6653 152.005 17.0422 152.059 17.3978 152.165C17.7533 152.272 18.0698 152.429 18.3471 152.635C18.6244 152.841 18.8556 153.101 19.0404 153.413C19.2253 153.719 19.3462 154.075 19.4031 154.48H18.3898Z" fill="white"/>
<path d="M13.3632 140.222H14.3766V143.496H18.3872V140.222H19.4006V147.838H18.3872V144.35H14.3766V147.838H13.3632V140.222Z" fill="white"/>
<path d="M14.4502 128.301H15.5276L19.5382 134.477H19.5596V128.301H20.5196V135.917H19.4102L15.4316 129.805H15.4102V135.917H14.4502V128.301Z" fill="white"/>
<path d="M17.1648 120.319C17.1648 120.703 17.2145 121.083 17.3141 121.46C17.4136 121.83 17.5701 122.164 17.7834 122.463C17.9968 122.761 18.2705 123.003 18.6048 123.188C18.939 123.366 19.3372 123.455 19.7994 123.455C20.2616 123.455 20.6599 123.366 20.9941 123.188C21.3283 123.003 21.6021 122.761 21.8154 122.463C22.0287 122.164 22.1852 121.83 22.2847 121.46C22.3843 121.083 22.4341 120.703 22.4341 120.319C22.4341 119.935 22.3843 119.558 22.2847 119.188C22.1852 118.811 22.0287 118.473 21.8154 118.175C21.6021 117.876 21.3283 117.638 20.9941 117.46C20.6599 117.275 20.2616 117.183 19.7994 117.183C19.3372 117.183 18.939 117.275 18.6048 117.46C18.2705 117.638 17.9968 117.876 17.7834 118.175C17.5701 118.473 17.4136 118.811 17.3141 119.188C17.2145 119.558 17.1648 119.935 17.1648 120.319ZM16.1514 120.319C16.1514 119.8 16.2261 119.302 16.3754 118.825C16.5319 118.342 16.763 117.915 17.0688 117.545C17.3745 117.176 17.755 116.881 18.2101 116.66C18.6652 116.44 19.195 116.329 19.7994 116.329C20.4039 116.329 20.9336 116.44 21.3887 116.66C21.8439 116.881 22.2243 117.176 22.5301 117.545C22.8359 117.915 23.0634 118.342 23.2127 118.825C23.3692 119.302 23.4474 119.8 23.4474 120.319C23.4474 120.838 23.3692 121.339 23.2127 121.823C23.0634 122.299 22.8359 122.722 22.5301 123.092C22.2243 123.462 21.8439 123.757 21.3887 123.977C20.9336 124.191 20.4039 124.297 19.7994 124.297C19.195 124.297 18.6652 124.191 18.2101 123.977C17.755 123.757 17.3745 123.462 17.0688 123.092C16.763 122.722 16.5319 122.299 16.3754 121.823C16.2261 121.339 16.1514 120.838 16.1514 120.319Z" fill="white"/>
<path d="M19.9336 104.353H20.9469V111.115H24.9789V111.969H19.9336V104.353Z" fill="white"/>
<path d="M23.9382 99.2779C23.9382 99.6619 23.988 100.042 24.0875 100.419C24.1871 100.789 24.3435 101.123 24.5569 101.422C24.7702 101.721 25.044 101.962 25.3782 102.147C25.7124 102.325 26.1106 102.414 26.5729 102.414C27.0351 102.414 27.4333 102.325 27.7675 102.147C28.1017 101.962 28.3755 101.721 28.5889 101.422C28.8022 101.123 28.9586 100.789 29.0582 100.419C29.1577 100.042 29.2075 99.6619 29.2075 99.2779C29.2075 98.8939 29.1577 98.5171 29.0582 98.1473C28.9586 97.7704 28.8022 97.4326 28.5889 97.1339C28.3755 96.8353 28.1017 96.5971 27.7675 96.4193C27.4333 96.2344 27.0351 96.142 26.5729 96.142C26.1106 96.142 25.7124 96.2344 25.3782 96.4193C25.044 96.5971 24.7702 96.8353 24.5569 97.1339C24.3435 97.4326 24.1871 97.7704 24.0875 98.1473C23.988 98.5171 23.9382 98.8939 23.9382 99.2779ZM22.9249 99.2779C22.9249 98.7588 22.9995 98.2611 23.1489 97.7846C23.3053 97.3011 23.5364 96.8744 23.8422 96.5046C24.148 96.1348 24.5284 95.8397 24.9835 95.6193C25.4386 95.3988 25.9684 95.2886 26.5729 95.2886C27.1773 95.2886 27.7071 95.3988 28.1622 95.6193C28.6173 95.8397 28.9977 96.1348 29.3035 96.5046C29.6093 96.8744 29.8368 97.3011 29.9862 97.7846C30.1426 98.2611 30.2208 98.7588 30.2208 99.2779C30.2208 99.7971 30.1426 100.298 29.9862 100.782C29.8368 101.258 29.6093 101.681 29.3035 102.051C28.9977 102.421 28.6173 102.716 28.1622 102.937C27.7071 103.15 27.1773 103.257 26.5729 103.257C25.9684 103.257 25.4386 103.15 24.9835 102.937C24.5284 102.716 24.148 102.421 23.8422 102.051C23.5364 101.681 23.3053 101.258 23.1489 100.782C22.9995 100.298 22.9249 99.7971 22.9249 99.2779Z" fill="white"/>
<path d="M34.3288 90.6926C34.0301 91.0909 33.6603 91.3789 33.2194 91.5566C32.7785 91.7273 32.3341 91.8126 31.8861 91.8126C31.3172 91.8126 30.8088 91.7095 30.3608 91.5033C29.9128 91.29 29.5323 91.0055 29.2194 90.65C28.9066 90.2944 28.6683 89.8855 28.5048 89.4233C28.3412 88.9611 28.2594 88.4811 28.2594 87.9833C28.2594 87.4286 28.3341 86.9024 28.4834 86.4046C28.6399 85.8998 28.8674 85.4589 29.1661 85.082C29.4719 84.7051 29.8488 84.4064 30.2968 84.186C30.7519 83.9584 31.2817 83.8447 31.8861 83.8447C32.2985 83.8447 32.6861 83.8944 33.0488 83.994C33.4185 84.0864 33.7457 84.2358 34.0301 84.442C34.3217 84.6482 34.5634 84.9113 34.7554 85.2313C34.9545 85.5442 35.0897 85.9246 35.1608 86.3726H34.1474C34.0977 86.0811 34.0052 85.8322 33.8701 85.626C33.735 85.4126 33.5679 85.2384 33.3688 85.1033C33.1697 84.9682 32.9421 84.8686 32.6861 84.8046C32.4372 84.7335 32.1705 84.698 31.8861 84.698C31.4239 84.698 31.0257 84.7904 30.6914 84.9753C30.3643 85.1602 30.0941 85.4055 29.8808 85.7113C29.6746 86.01 29.5217 86.3549 29.4221 86.746C29.3226 87.13 29.2728 87.5246 29.2728 87.93C29.2728 88.3282 29.3297 88.7122 29.4434 89.082C29.5572 89.4446 29.7243 89.7682 29.9448 90.0526C30.1652 90.33 30.4354 90.554 30.7554 90.7246C31.0826 90.8882 31.4594 90.97 31.8861 90.97C32.2843 90.97 32.6363 90.906 32.9421 90.778C33.2479 90.65 33.5039 90.4757 33.7101 90.2553C33.9234 90.0277 34.0834 89.7646 34.1901 89.466C34.2968 89.1602 34.343 88.8331 34.3288 88.4846H31.8968V87.6313H35.2354V91.642H34.5954L34.3288 90.6926Z" fill="white"/>
<path d="M35.0934 73.2074H36.1067V80.8234H35.0934V73.2074Z" fill="white"/>
<path d="M37.4023 69.2218H42.661V70.0751H38.4156V72.4964H42.373V73.3498H38.4156V75.9844H42.693V76.8378H37.4023V69.2218Z" fill="white"/>
<path d="M48.21 63.198C48.1531 62.6504 47.954 62.2558 47.6126 62.014C47.2784 61.7651 46.8482 61.6407 46.322 61.6407C46.1086 61.6407 45.8989 61.662 45.6927 61.7047C45.4864 61.7473 45.3015 61.8184 45.138 61.918C44.9815 62.0176 44.8535 62.1527 44.754 62.3233C44.6615 62.4869 44.6153 62.6931 44.6153 62.942C44.6153 63.1767 44.6829 63.3687 44.818 63.518C44.9602 63.6602 45.1451 63.7776 45.3727 63.87C45.6073 63.9624 45.8704 64.0407 46.162 64.1047C46.4535 64.1616 46.7486 64.2256 47.0473 64.2967C47.3531 64.3678 47.6518 64.4531 47.9433 64.5527C48.2349 64.6451 48.4944 64.7731 48.722 64.9367C48.9566 65.1002 49.1415 65.3064 49.2766 65.5553C49.4189 65.8042 49.49 66.1171 49.49 66.494C49.49 66.8993 49.3975 67.2478 49.2126 67.5393C49.0349 67.8238 48.8038 68.0584 48.5193 68.2433C48.2349 68.4211 47.9149 68.5491 47.5593 68.6273C47.2109 68.7127 46.8624 68.7553 46.514 68.7553C46.0873 68.7553 45.682 68.702 45.298 68.5953C44.9211 68.4887 44.5869 68.3287 44.2953 68.1153C44.0109 67.8949 43.7833 67.6175 43.6127 67.2833C43.4491 66.942 43.3673 66.5402 43.3673 66.078H44.3273C44.3273 66.398 44.3878 66.6753 44.5087 66.91C44.6367 67.1375 44.8002 67.326 44.9993 67.4753C45.2055 67.6247 45.4438 67.7349 45.714 67.806C45.9842 67.8771 46.2615 67.9127 46.546 67.9127C46.7735 67.9127 47.0011 67.8913 47.2286 67.8487C47.4633 67.806 47.6731 67.7349 47.858 67.6353C48.0429 67.5287 48.1922 67.3864 48.306 67.2087C48.4198 67.0309 48.4766 66.8033 48.4766 66.526C48.4766 66.2629 48.4055 66.0495 48.2633 65.886C48.1282 65.7224 47.9433 65.5909 47.7086 65.4913C47.4811 65.3847 47.2215 65.2993 46.93 65.2353C46.6384 65.1713 46.3398 65.1073 46.034 65.0433C45.7353 64.9722 45.4402 64.894 45.1487 64.8087C44.8571 64.7162 44.594 64.5989 44.3593 64.4567C44.1318 64.3073 43.9469 64.1189 43.8047 63.8913C43.6695 63.6567 43.602 63.3651 43.602 63.0167C43.602 62.6327 43.6802 62.302 43.8367 62.0247C43.9931 61.7402 44.1993 61.5091 44.4553 61.3313C44.7184 61.1464 45.0135 61.0113 45.3407 60.926C45.6749 60.8336 46.0162 60.7873 46.3646 60.7873C46.7558 60.7873 47.1184 60.8336 47.4526 60.926C47.7869 61.0184 48.0784 61.1642 48.3273 61.3633C48.5833 61.5624 48.7824 61.8149 48.9246 62.1207C49.074 62.4193 49.1558 62.7784 49.17 63.198H48.21Z" fill="white"/>
<path d="M54.1445 49.6311H55.1578V56.3938H59.1898V57.2471H54.1445V49.6311Z" fill="white"/>
<path d="M61.1911 43.1947H62.2044V50.8107H61.1911V43.1947Z" fill="white"/>
<path d="M64.5604 40.0509H65.947L68.347 46.4509L70.7577 40.0509H72.1443V47.6669H71.1843V41.3309H71.163L68.7844 47.6669H67.9204L65.5417 41.3309H65.5204V47.6669H64.5604V40.0509Z" fill="white"/>
<path d="M76.6754 31.6349H77.6888V39.2509H76.6754V31.6349Z" fill="white"/>
<path d="M82.267 30.0473H79.7284V29.194H85.819V30.0473H83.2804V36.81H82.267V30.0473Z" fill="white"/>
<path d="M89.1054 24.3695H94.3641V25.2228H90.1188V27.6441H94.0761V28.4975H90.1188V31.1321H94.3961V31.9855H89.1054V24.3695Z" fill="white"/>
<path d="M99.568 26.6406H101.253C101.367 26.6406 101.509 26.6335 101.68 26.6192C101.851 26.5979 102.032 26.5552 102.224 26.4912C102.416 26.4201 102.604 26.3206 102.789 26.1926C102.981 26.0646 103.152 25.8903 103.301 25.6699C103.451 25.4495 103.572 25.1757 103.664 24.8486C103.764 24.5143 103.813 24.1126 103.813 23.6432C103.813 23.1881 103.767 22.7828 103.675 22.4272C103.589 22.0646 103.444 21.7588 103.237 21.5099C103.038 21.2539 102.779 21.0619 102.459 20.9339C102.139 20.7988 101.744 20.7312 101.275 20.7312H99.568V26.6406ZM98.5547 19.8779H101.168C102.341 19.8779 103.244 20.1766 103.877 20.7739C104.51 21.3712 104.827 22.2815 104.827 23.5046C104.827 24.1446 104.756 24.7135 104.613 25.2112C104.471 25.7019 104.251 26.1179 103.952 26.4592C103.653 26.7935 103.273 27.0495 102.811 27.2272C102.348 27.405 101.801 27.4939 101.168 27.4939H98.5547V19.8779Z" fill="white"/>
<path d="M124.994 13.4347H122.455V12.5813H128.546V13.4347H126.007V20.1973H124.994V13.4347Z" fill="white"/>
<path d="M132.941 10.7924H138.2V11.6457H133.955V14.0671H137.912V14.9204H133.955V17.5551H138.232V18.4084H132.941V10.7924Z" fill="white"/>
<path d="M148.706 12.261C148.592 11.7205 148.34 11.3152 147.949 11.045C147.565 10.7747 147.106 10.6396 146.573 10.6396C146.118 10.6396 145.727 10.725 145.4 10.8956C145.08 11.0663 144.813 11.2974 144.6 11.589C144.393 11.8734 144.24 12.2005 144.141 12.5703C144.041 12.9401 143.992 13.3241 143.992 13.7223C143.992 14.1561 144.041 14.5685 144.141 14.9596C144.24 15.3436 144.393 15.6814 144.6 15.973C144.813 16.2574 145.083 16.485 145.41 16.6556C145.737 16.8263 146.128 16.9116 146.584 16.9116C146.918 16.9116 147.213 16.8583 147.469 16.7516C147.732 16.6378 147.956 16.485 148.141 16.293C148.333 16.0938 148.482 15.8592 148.589 15.589C148.696 15.3187 148.76 15.0272 148.781 14.7143H149.794C149.695 15.6743 149.364 16.421 148.802 16.9543C148.24 17.4876 147.472 17.7543 146.498 17.7543C145.908 17.7543 145.392 17.6547 144.952 17.4556C144.511 17.2494 144.144 16.9685 143.853 16.613C143.561 16.2574 143.341 15.8378 143.192 15.3543C143.049 14.8707 142.978 14.3516 142.978 13.797C142.978 13.2423 143.056 12.7232 143.213 12.2396C143.369 11.749 143.597 11.3223 143.896 10.9596C144.201 10.597 144.578 10.3125 145.026 10.1063C145.481 9.89297 146 9.7863 146.584 9.7863C146.982 9.7863 147.359 9.83963 147.714 9.9463C148.07 10.053 148.386 10.2094 148.664 10.4156C148.941 10.6219 149.172 10.8814 149.357 11.1943C149.542 11.5001 149.663 11.8556 149.72 12.261H148.706Z" fill="white"/>
<path d="M155.316 9.73167H156.33V13.0063H160.34V9.73167H161.354V17.3477H160.34V13.8597H156.33V17.3477H155.316V9.73167Z" fill="white"/>
<path d="M167.267 10.4971H168.344L172.355 16.673H172.376V10.4971H173.336V18.113H172.227L168.248 12.001H168.227V18.113H167.267V10.4971Z" fill="white"/>
<path d="M179.641 16.417C179.641 16.801 179.691 17.1814 179.791 17.5583C179.89 17.9281 180.047 18.2623 180.26 18.561C180.473 18.8596 180.747 19.1014 181.081 19.2863C181.416 19.4641 181.814 19.553 182.276 19.553C182.738 19.553 183.136 19.4641 183.471 19.2863C183.805 19.1014 184.079 18.8596 184.292 18.561C184.505 18.2623 184.662 17.9281 184.761 17.5583C184.861 17.1814 184.911 16.801 184.911 16.417C184.911 16.033 184.861 15.6561 184.761 15.2863C184.662 14.9094 184.505 14.5717 184.292 14.273C184.079 13.9743 183.805 13.7361 183.471 13.5583C183.136 13.3734 182.738 13.281 182.276 13.281C181.814 13.281 181.416 13.3734 181.081 13.5583C180.747 13.7361 180.473 13.9743 180.26 14.273C180.047 14.5717 179.89 14.9094 179.791 15.2863C179.691 15.6561 179.641 16.033 179.641 16.417ZM178.628 16.417C178.628 15.8979 178.703 15.4001 178.852 14.9237C179.008 14.4401 179.24 14.0134 179.545 13.6437C179.851 13.2739 180.232 12.9788 180.687 12.7583C181.142 12.5379 181.672 12.4277 182.276 12.4277C182.88 12.4277 183.41 12.5379 183.865 12.7583C184.32 12.9788 184.701 13.2739 185.007 13.6437C185.312 14.0134 185.54 14.4401 185.689 14.9237C185.846 15.4001 185.924 15.8979 185.924 16.417C185.924 16.9361 185.846 17.4374 185.689 17.921C185.54 18.3974 185.312 18.8205 185.007 19.1903C184.701 19.5601 184.32 19.8552 183.865 20.0756C183.41 20.289 182.88 20.3956 182.276 20.3956C181.672 20.3956 181.142 20.289 180.687 20.0756C180.232 19.8552 179.851 19.5601 179.545 19.1903C179.24 18.8205 179.008 18.3974 178.852 17.921C178.703 17.4374 178.628 16.9361 178.628 16.417Z" fill="white"/>
<path d="M191.266 15.684H192.279V22.4467H196.311V23.3H191.266V15.684Z" fill="white"/>
<path d="M200.926 22.4064C200.926 22.7904 200.976 23.1708 201.076 23.5477C201.175 23.9175 201.332 24.2517 201.545 24.5504C201.758 24.849 202.032 25.0908 202.366 25.2757C202.701 25.4535 203.099 25.5424 203.561 25.5424C204.023 25.5424 204.422 25.4535 204.756 25.2757C205.09 25.0908 205.364 24.849 205.577 24.5504C205.79 24.2517 205.947 23.9175 206.046 23.5477C206.146 23.1708 206.196 22.7904 206.196 22.4064C206.196 22.0224 206.146 21.6455 206.046 21.2757C205.947 20.8988 205.79 20.561 205.577 20.2624C205.364 19.9637 205.09 19.7255 204.756 19.5477C204.422 19.3628 204.023 19.2704 203.561 19.2704C203.099 19.2704 202.701 19.3628 202.366 19.5477C202.032 19.7255 201.758 19.9637 201.545 20.2624C201.332 20.561 201.175 20.8988 201.076 21.2757C200.976 21.6455 200.926 22.0224 200.926 22.4064ZM199.913 22.4064C199.913 21.8873 199.988 21.3895 200.137 20.913C200.294 20.4295 200.525 20.0028 200.83 19.633C201.136 19.2633 201.517 18.9681 201.972 18.7477C202.427 18.5273 202.957 18.417 203.561 18.417C204.166 18.417 204.695 18.5273 205.15 18.7477C205.606 18.9681 205.986 19.2633 206.292 19.633C206.598 20.0028 206.825 20.4295 206.974 20.913C207.131 21.3895 207.209 21.8873 207.209 22.4064C207.209 22.9255 207.131 23.4268 206.974 23.9104C206.825 24.3868 206.598 24.8099 206.292 25.1797C205.986 25.5495 205.606 25.8446 205.15 26.065C204.695 26.2784 204.166 26.385 203.561 26.385C202.957 26.385 202.427 26.2784 201.972 26.065C201.517 25.8446 201.136 25.5495 200.83 25.1797C200.525 24.8099 200.294 24.3868 200.137 23.9104C199.988 23.4268 199.913 22.9255 199.913 22.4064Z" fill="white"/>
<path d="M217.622 30.2572C217.323 30.6554 216.953 30.9434 216.512 31.1212C216.072 31.2919 215.627 31.3772 215.179 31.3772C214.61 31.3772 214.102 31.2741 213.654 31.0679C213.206 30.8545 212.825 30.5701 212.512 30.2145C212.2 29.859 211.961 29.4501 211.798 28.9879C211.634 28.5257 211.552 28.0457 211.552 27.5479C211.552 26.9932 211.627 26.467 211.776 25.9692C211.933 25.4643 212.16 25.0234 212.459 24.6466C212.765 24.2697 213.142 23.971 213.59 23.7506C214.045 23.523 214.575 23.4092 215.179 23.4092C215.592 23.4092 215.979 23.459 216.342 23.5586C216.712 23.651 217.039 23.8003 217.323 24.0066C217.615 24.2128 217.856 24.4759 218.048 24.7959C218.248 25.1088 218.383 25.4892 218.454 25.9372H217.44C217.391 25.6457 217.298 25.3968 217.163 25.1906C217.028 24.9772 216.861 24.803 216.662 24.6679C216.463 24.5328 216.235 24.4332 215.979 24.3692C215.73 24.2981 215.464 24.2626 215.179 24.2626C214.717 24.2626 214.319 24.355 213.984 24.5399C213.657 24.7248 213.387 24.9701 213.174 25.2759C212.968 25.5746 212.815 25.9194 212.715 26.3106C212.616 26.6946 212.566 27.0892 212.566 27.4946C212.566 27.8928 212.623 28.2768 212.736 28.6465C212.85 29.0092 213.017 29.3328 213.238 29.6172C213.458 29.8945 213.728 30.1185 214.048 30.2892C214.376 30.4528 214.752 30.5345 215.179 30.5345C215.577 30.5345 215.929 30.4705 216.235 30.3425C216.541 30.2145 216.797 30.0403 217.003 29.8199C217.216 29.5923 217.376 29.3292 217.483 29.0305C217.59 28.7248 217.636 28.3977 217.622 28.0492H215.19V27.1959H218.528V31.2065H217.888L217.622 30.2572Z" fill="white"/>
<path d="M222.867 29.8717H223.88V37.4877H222.867V29.8717Z" fill="white"/>
<path d="M226.754 32.2867H232.013V33.14H227.767V35.5613H231.725V36.4147H227.767V39.0493H232.045V39.9026H226.754V32.2867Z" fill="white"/>
<path d="M239.749 40.4747C239.692 39.9272 239.493 39.5325 239.152 39.2907C238.817 39.0418 238.387 38.9174 237.861 38.9174C237.648 38.9174 237.438 38.9387 237.232 38.9814C237.025 39.0241 236.841 39.0952 236.677 39.1947C236.521 39.2943 236.393 39.4294 236.293 39.6001C236.201 39.7636 236.154 39.9698 236.154 40.2187C236.154 40.4534 236.222 40.6454 236.357 40.7947C236.499 40.937 236.684 41.0543 236.912 41.1467C237.146 41.2392 237.409 41.3174 237.701 41.3814C237.993 41.4383 238.288 41.5023 238.586 41.5734C238.892 41.6445 239.191 41.7298 239.482 41.8294C239.774 41.9218 240.033 42.0498 240.261 42.2134C240.496 42.377 240.681 42.5832 240.816 42.8321C240.958 43.081 241.029 43.3938 241.029 43.7707C241.029 44.1761 240.937 44.5245 240.752 44.8161C240.574 45.1005 240.343 45.3352 240.058 45.5201C239.774 45.6978 239.454 45.8258 239.098 45.9041C238.75 45.9894 238.401 46.0321 238.053 46.0321C237.626 46.0321 237.221 45.9787 236.837 45.8721C236.46 45.7654 236.126 45.6054 235.834 45.3921C235.55 45.1716 235.322 44.8943 235.152 44.5601C234.988 44.2187 234.906 43.8169 234.906 43.3547H235.866C235.866 43.6747 235.927 43.9521 236.048 44.1867C236.176 44.4143 236.339 44.6027 236.538 44.7521C236.745 44.9014 236.983 45.0116 237.253 45.0827C237.523 45.1538 237.801 45.1894 238.085 45.1894C238.313 45.1894 238.54 45.1681 238.768 45.1254C239.002 45.0827 239.212 45.0116 239.397 44.9121C239.582 44.8054 239.731 44.6632 239.845 44.4854C239.959 44.3076 240.016 44.0801 240.016 43.8027C240.016 43.5396 239.945 43.3263 239.802 43.1627C239.667 42.9992 239.482 42.8676 239.248 42.7681C239.02 42.6614 238.761 42.5761 238.469 42.5121C238.177 42.4481 237.879 42.3841 237.573 42.3201C237.274 42.249 236.979 42.1707 236.688 42.0854C236.396 41.993 236.133 41.8756 235.898 41.7334C235.671 41.5841 235.486 41.3956 235.344 41.1681C235.209 40.9334 235.141 40.6418 235.141 40.2934C235.141 39.9094 235.219 39.5787 235.376 39.3014C235.532 39.017 235.738 38.7858 235.994 38.6081C236.257 38.4232 236.553 38.2881 236.88 38.2027C237.214 38.1103 237.555 38.0641 237.904 38.0641C238.295 38.0641 238.657 38.1103 238.992 38.2027C239.326 38.2952 239.617 38.441 239.866 38.6401C240.122 38.8392 240.321 39.0916 240.464 39.3974C240.613 39.6961 240.695 40.0552 240.709 40.4747H239.749Z" fill="white"/>
<path d="M246.898 48.3558H247.912V55.1184H251.944V55.9717H246.898V48.3558Z" fill="white"/>
<path d="M253.492 55.2552H254.505V62.8712H253.492V55.2552Z" fill="white"/>
<path d="M256.549 58.6885H257.935L260.335 65.0884L262.746 58.6885H264.133V66.3044H263.173V59.9685H263.151L260.773 66.3044H259.909L257.53 59.9685H257.509V66.3044H256.549V58.6885Z" fill="white"/>
<path d="M265.433 70.4565H266.447V78.0725H265.433V70.4565Z" fill="white"/>
<path d="M269.697 75.1349H267.158V74.2816H273.249V75.1349H270.71V81.8976H269.697V75.1349Z" fill="white"/>
<path d="M272.832 82.8259H278.091V83.6792H273.845V86.1006H277.803V86.9539H273.845V89.5886H278.123V90.4419H272.832V82.8259Z" fill="white"/>
<path d="M278.49 98.9465H280.175C280.289 98.9465 280.431 98.9394 280.602 98.9251C280.773 98.9038 280.954 98.8611 281.146 98.7971C281.338 98.726 281.526 98.6265 281.711 98.4985C281.903 98.3705 282.074 98.1963 282.223 97.9758C282.373 97.7554 282.493 97.4816 282.586 97.1545C282.685 96.8203 282.735 96.4185 282.735 95.9491C282.735 95.494 282.689 95.0887 282.597 94.7331C282.511 94.3705 282.365 94.0647 282.159 93.8158C281.96 93.5598 281.701 93.3678 281.381 93.2398C281.061 93.1047 280.666 93.0372 280.197 93.0372H278.49V98.9465ZM277.477 92.1838H280.09C281.263 92.1838 282.166 92.4825 282.799 93.0798C283.432 93.6772 283.749 94.5874 283.749 95.8105C283.749 96.4505 283.677 97.0194 283.535 97.5171C283.393 98.0078 283.173 98.4238 282.874 98.7651C282.575 99.0994 282.195 99.3554 281.733 99.5331C281.27 99.7109 280.723 99.7998 280.09 99.7998H277.477V92.1838Z" fill="white"/>
<path d="M287.388 117.486H284.849V116.632H290.94V117.486H288.401V124.248H287.388V117.486Z" fill="white"/>
<path d="M287.41 126.308H292.669V127.161H288.423V129.583H292.381V130.436H288.423V133.071H292.701V133.924H287.41V126.308Z" fill="white"/>
<path d="M294.132 138.968C294.018 138.428 293.766 138.022 293.375 137.752C292.991 137.482 292.532 137.347 291.999 137.347C291.544 137.347 291.152 137.432 290.825 137.603C290.505 137.773 290.239 138.005 290.025 138.296C289.819 138.581 289.666 138.908 289.567 139.277C289.467 139.647 289.417 140.031 289.417 140.429C289.417 140.863 289.467 141.276 289.567 141.667C289.666 142.051 289.819 142.389 290.025 142.68C290.239 142.965 290.509 143.192 290.836 143.363C291.163 143.533 291.554 143.619 292.009 143.619C292.344 143.619 292.639 143.565 292.895 143.459C293.158 143.345 293.382 143.192 293.567 143C293.759 142.801 293.908 142.566 294.015 142.296C294.121 142.026 294.185 141.734 294.207 141.421H295.22C295.12 142.381 294.79 143.128 294.228 143.661C293.666 144.195 292.898 144.461 291.924 144.461C291.334 144.461 290.818 144.362 290.377 144.163C289.936 143.957 289.57 143.676 289.279 143.32C288.987 142.965 288.767 142.545 288.617 142.061C288.475 141.578 288.404 141.059 288.404 140.504C288.404 139.949 288.482 139.43 288.639 138.947C288.795 138.456 289.023 138.029 289.321 137.667C289.627 137.304 290.004 137.02 290.452 136.813C290.907 136.6 291.426 136.493 292.009 136.493C292.408 136.493 292.784 136.547 293.14 136.653C293.496 136.76 293.812 136.917 294.089 137.123C294.367 137.329 294.598 137.589 294.783 137.901C294.968 138.207 295.088 138.563 295.145 138.968H294.132Z" fill="white"/>
<path d="M289.035 148.641H290.048V151.916H294.059V148.641H295.072V156.257H294.059V152.769H290.048V156.257H289.035V148.641Z" fill="white"/>
<path d="M288.501 160.6H289.578L293.589 166.776H293.61V160.6H294.57V168.216H293.461L289.482 162.104H289.461V168.216H288.501V160.6Z" fill="white"/>
<path d="M287.559 176.287C287.559 176.671 287.609 177.052 287.709 177.429C287.808 177.798 287.965 178.133 288.178 178.431C288.391 178.73 288.665 178.972 288.999 179.157C289.334 179.334 289.732 179.423 290.194 179.423C290.656 179.423 291.054 179.334 291.389 179.157C291.723 178.972 291.997 178.73 292.21 178.431C292.423 178.133 292.58 177.798 292.679 177.429C292.779 177.052 292.829 176.671 292.829 176.287C292.829 175.903 292.779 175.526 292.679 175.157C292.58 174.78 292.423 174.442 292.21 174.143C291.997 173.845 291.723 173.606 291.389 173.429C291.054 173.244 290.656 173.151 290.194 173.151C289.732 173.151 289.334 173.244 288.999 173.429C288.665 173.606 288.391 173.845 288.178 174.143C287.965 174.442 287.808 174.78 287.709 175.157C287.609 175.526 287.559 175.903 287.559 176.287ZM286.546 176.287C286.546 175.768 286.621 175.27 286.77 174.794C286.926 174.31 287.158 173.884 287.463 173.514C287.769 173.144 288.15 172.849 288.605 172.629C289.06 172.408 289.59 172.298 290.194 172.298C290.798 172.298 291.328 172.408 291.783 172.629C292.238 172.849 292.619 173.144 292.925 173.514C293.23 173.884 293.458 174.31 293.607 174.794C293.764 175.27 293.842 175.768 293.842 176.287C293.842 176.806 293.764 177.308 293.607 177.791C293.458 178.268 293.23 178.691 292.925 179.061C292.619 179.43 292.238 179.725 291.783 179.946C291.328 180.159 290.798 180.266 290.194 180.266C289.59 180.266 289.06 180.159 288.605 179.946C288.15 179.725 287.769 179.43 287.463 179.061C287.158 178.691 286.926 178.268 286.77 177.791C286.621 177.308 286.546 176.806 286.546 176.287Z" fill="white"/>
<path d="M284.223 184.788H285.236V191.551H289.268V192.404H284.223V184.788Z" fill="white"/>
<path d="M281.829 197.636C281.829 198.02 281.879 198.401 281.978 198.778C282.078 199.147 282.234 199.482 282.447 199.78C282.661 200.079 282.935 200.321 283.269 200.506C283.603 200.683 284.001 200.772 284.463 200.772C284.926 200.772 285.324 200.683 285.658 200.506C285.992 200.321 286.266 200.079 286.479 199.78C286.693 199.482 286.849 199.147 286.949 198.778C287.048 198.401 287.098 198.02 287.098 197.636C287.098 197.252 287.048 196.875 286.949 196.506C286.849 196.129 286.693 195.791 286.479 195.492C286.266 195.194 285.992 194.955 285.658 194.778C285.324 194.593 284.926 194.5 284.463 194.5C284.001 194.5 283.603 194.593 283.269 194.778C282.935 194.955 282.661 195.194 282.447 195.492C282.234 195.791 282.078 196.129 281.978 196.506C281.879 196.875 281.829 197.252 281.829 197.636ZM280.815 197.636C280.815 197.117 280.89 196.619 281.039 196.143C281.196 195.659 281.427 195.233 281.733 194.863C282.039 194.493 282.419 194.198 282.874 193.978C283.329 193.757 283.859 193.647 284.463 193.647C285.068 193.647 285.598 193.757 286.053 193.978C286.508 194.198 286.888 194.493 287.194 194.863C287.5 195.233 287.727 195.659 287.877 196.143C288.033 196.619 288.111 197.117 288.111 197.636C288.111 198.155 288.033 198.657 287.877 199.14C287.727 199.617 287.5 200.04 287.194 200.41C286.888 200.779 286.508 201.074 286.053 201.295C285.598 201.508 285.068 201.615 284.463 201.615C283.859 201.615 283.329 201.508 282.874 201.295C282.419 201.074 282.039 200.779 281.733 200.41C281.427 200.04 281.196 199.617 281.039 199.14C280.89 198.657 280.815 198.155 280.815 197.636Z" fill="white"/>
<path d="M282.227 212.184C281.929 212.582 281.559 212.87 281.118 213.048C280.677 213.219 280.233 213.304 279.785 213.304C279.216 213.304 278.707 213.201 278.259 212.995C277.811 212.781 277.431 212.497 277.118 212.141C276.805 211.786 276.567 211.377 276.403 210.915C276.24 210.453 276.158 209.973 276.158 209.475C276.158 208.92 276.233 208.394 276.382 207.896C276.538 207.391 276.766 206.95 277.065 206.573C277.37 206.197 277.747 205.898 278.195 205.677C278.65 205.45 279.18 205.336 279.785 205.336C280.197 205.336 280.585 205.386 280.947 205.485C281.317 205.578 281.644 205.727 281.929 205.933C282.22 206.14 282.462 206.403 282.654 206.723C282.853 207.036 282.988 207.416 283.059 207.864H282.046C281.996 207.573 281.904 207.324 281.769 207.117C281.633 206.904 281.466 206.73 281.267 206.595C281.068 206.46 280.841 206.36 280.585 206.296C280.336 206.225 280.069 206.189 279.785 206.189C279.322 206.189 278.924 206.282 278.59 206.467C278.263 206.652 277.993 206.897 277.779 207.203C277.573 207.501 277.42 207.846 277.321 208.237C277.221 208.621 277.171 209.016 277.171 209.421C277.171 209.82 277.228 210.204 277.342 210.573C277.456 210.936 277.623 211.26 277.843 211.544C278.064 211.821 278.334 212.045 278.654 212.216C278.981 212.38 279.358 212.461 279.785 212.461C280.183 212.461 280.535 212.397 280.841 212.269C281.146 212.141 281.402 211.967 281.609 211.747C281.822 211.519 281.982 211.256 282.089 210.957C282.195 210.652 282.241 210.325 282.227 209.976H279.795V209.123H283.134V213.133H282.494L282.227 212.184Z" fill="white"/>
<path d="M270.691 216.636H271.704V224.252H270.691V216.636Z" fill="white"/>
<path d="M268.496 220.734H273.755V221.587H269.509V224.009H273.467V224.862H269.509V227.497H273.787V228.35H268.496V220.734Z" fill="white"/>
<path d="M266.901 231.515C266.844 230.967 266.645 230.573 266.304 230.331C265.97 230.082 265.54 229.958 265.013 229.958C264.8 229.958 264.59 229.979 264.384 230.022C264.178 230.064 263.993 230.135 263.829 230.235C263.673 230.334 263.545 230.47 263.445 230.64C263.353 230.804 263.307 231.01 263.307 231.259C263.307 231.494 263.374 231.686 263.509 231.835C263.652 231.977 263.837 232.094 264.064 232.187C264.299 232.279 264.562 232.357 264.853 232.421C265.145 232.478 265.44 232.542 265.739 232.613C266.044 232.685 266.343 232.77 266.635 232.869C266.926 232.962 267.186 233.09 267.413 233.253C267.648 233.417 267.833 233.623 267.968 233.872C268.11 234.121 268.181 234.434 268.181 234.811C268.181 235.216 268.089 235.565 267.904 235.856C267.726 236.141 267.495 236.375 267.211 236.56C266.926 236.738 266.606 236.866 266.251 236.944C265.902 237.029 265.554 237.072 265.205 237.072C264.779 237.072 264.373 237.019 263.989 236.912C263.613 236.805 263.278 236.645 262.987 236.432C262.702 236.212 262.475 235.934 262.304 235.6C262.141 235.259 262.059 234.857 262.059 234.395H263.019C263.019 234.715 263.079 234.992 263.2 235.227C263.328 235.454 263.492 235.643 263.691 235.792C263.897 235.941 264.135 236.052 264.405 236.123C264.676 236.194 264.953 236.229 265.237 236.229C265.465 236.229 265.692 236.208 265.92 236.165C266.155 236.123 266.364 236.052 266.549 235.952C266.734 235.845 266.884 235.703 266.997 235.525C267.111 235.348 267.168 235.12 267.168 234.843C267.168 234.58 267.097 234.366 266.955 234.203C266.82 234.039 266.635 233.908 266.4 233.808C266.172 233.701 265.913 233.616 265.621 233.552C265.33 233.488 265.031 233.424 264.725 233.36C264.427 233.289 264.132 233.211 263.84 233.125C263.549 233.033 263.285 232.916 263.051 232.773C262.823 232.624 262.638 232.436 262.496 232.208C262.361 231.973 262.293 231.682 262.293 231.334C262.293 230.95 262.372 230.619 262.528 230.342C262.685 230.057 262.891 229.826 263.147 229.648C263.41 229.463 263.705 229.328 264.032 229.243C264.366 229.15 264.708 229.104 265.056 229.104C265.447 229.104 265.81 229.15 266.144 229.243C266.478 229.335 266.77 229.481 267.019 229.68C267.275 229.879 267.474 230.132 267.616 230.438C267.765 230.736 267.847 231.095 267.861 231.515H266.901Z" fill="white"/>
<path d="M252.719 241.11H253.732V247.873H257.764V248.726H252.719V241.11Z" fill="white"/>
<path d="M246.074 247.876H247.087V255.492H246.074V247.876Z" fill="white"/>
<path d="M242.822 251.185H244.209L246.609 257.585L249.019 251.185H250.406V258.801H249.446V252.465H249.425L247.046 258.801H246.182L243.803 252.465H243.782V258.801H242.822V251.185Z" fill="white"/>
<path d="M231.168 260.173H232.181V267.789H231.168V260.173Z" fill="white"/>
<path d="M229.072 263.656H226.533V262.803H232.624V263.656H230.085V270.419H229.072V263.656Z" fill="white"/>
<path d="M219.019 268.037H224.278V268.89H220.033V271.311H223.99V272.165H220.033V274.799H224.31V275.653H219.019V268.037Z" fill="white"/>
<path d="M210.814 279.746H212.499C212.613 279.746 212.755 279.739 212.926 279.725C213.097 279.703 213.278 279.661 213.47 279.597C213.662 279.526 213.851 279.426 214.035 279.298C214.227 279.17 214.398 278.996 214.547 278.775C214.697 278.555 214.818 278.281 214.91 277.954C215.01 277.62 215.059 277.218 215.059 276.749C215.059 276.294 215.013 275.888 214.921 275.533C214.835 275.17 214.69 274.864 214.483 274.615C214.284 274.36 214.025 274.168 213.705 274.04C213.385 273.904 212.99 273.837 212.521 273.837H210.814V279.746ZM209.801 272.984H212.414C213.587 272.984 214.491 273.282 215.123 273.88C215.756 274.477 216.073 275.387 216.073 276.61C216.073 277.25 216.002 277.819 215.859 278.317C215.717 278.807 215.497 279.223 215.198 279.565C214.899 279.899 214.519 280.155 214.057 280.333C213.595 280.511 213.047 280.599 212.414 280.599H209.801V272.984Z" fill="white"/>
<path d="M187.205 282.334H184.666V281.48H190.757V282.334H188.218V289.096H187.205V282.334Z" fill="white"/>
<path d="M175.898 283.73H181.157V284.583H176.912V287.004H180.869V287.858H176.912V290.492H181.189V291.346H175.898V283.73Z" fill="white"/>
<path d="M170.898 287.357C170.784 286.816 170.531 286.411 170.14 286.141C169.756 285.871 169.298 285.735 168.764 285.735C168.309 285.735 167.918 285.821 167.591 285.991C167.271 286.162 167.004 286.393 166.791 286.685C166.585 286.969 166.432 287.296 166.332 287.666C166.233 288.036 166.183 288.42 166.183 288.818C166.183 289.252 166.233 289.664 166.332 290.055C166.432 290.439 166.585 290.777 166.791 291.069C167.004 291.353 167.274 291.581 167.602 291.751C167.929 291.922 168.32 292.007 168.775 292.007C169.109 292.007 169.404 291.954 169.66 291.847C169.923 291.734 170.147 291.581 170.332 291.389C170.524 291.19 170.674 290.955 170.78 290.685C170.887 290.415 170.951 290.123 170.972 289.81H171.986C171.886 290.77 171.555 291.517 170.994 292.05C170.432 292.583 169.664 292.85 168.69 292.85C168.099 292.85 167.584 292.751 167.143 292.551C166.702 292.345 166.336 292.064 166.044 291.709C165.753 291.353 165.532 290.934 165.383 290.45C165.241 289.967 165.17 289.447 165.17 288.893C165.17 288.338 165.248 287.819 165.404 287.335C165.561 286.845 165.788 286.418 166.087 286.055C166.393 285.693 166.77 285.408 167.218 285.202C167.673 284.989 168.192 284.882 168.775 284.882C169.173 284.882 169.55 284.935 169.906 285.042C170.261 285.149 170.578 285.305 170.855 285.511C171.132 285.718 171.363 285.977 171.548 286.29C171.733 286.596 171.854 286.951 171.911 287.357H170.898Z" fill="white"/>
<path d="M153.602 285.865H154.615V289.14H158.626V285.865H159.639V293.481H158.626V289.993H154.615V293.481H153.602V285.865Z" fill="white"/>
<path d="M141.614 285.678H142.692L146.702 291.854H146.724V285.678H147.684V293.294H146.574L142.596 287.182H142.574V293.294H141.614V285.678Z" fill="white"/>
<path d="M130.341 287.96C130.341 288.344 130.39 288.724 130.49 289.101C130.589 289.471 130.746 289.805 130.959 290.104C131.173 290.402 131.446 290.644 131.781 290.829C132.115 291.007 132.513 291.096 132.975 291.096C133.437 291.096 133.836 291.007 134.17 290.829C134.504 290.644 134.778 290.402 134.991 290.104C135.205 289.805 135.361 289.471 135.461 289.101C135.56 288.724 135.61 288.344 135.61 287.96C135.61 287.576 135.56 287.199 135.461 286.829C135.361 286.452 135.205 286.114 134.991 285.816C134.778 285.517 134.504 285.279 134.17 285.101C133.836 284.916 133.437 284.824 132.975 284.824C132.513 284.824 132.115 284.916 131.781 285.101C131.446 285.279 131.173 285.517 130.959 285.816C130.746 286.114 130.589 286.452 130.49 286.829C130.39 287.199 130.341 287.576 130.341 287.96ZM129.327 287.96C129.327 287.44 129.402 286.943 129.551 286.466C129.708 285.983 129.939 285.556 130.245 285.186C130.55 284.816 130.931 284.521 131.386 284.301C131.841 284.08 132.371 283.97 132.975 283.97C133.58 283.97 134.109 284.08 134.565 284.301C135.02 284.521 135.4 284.816 135.706 285.186C136.012 285.556 136.239 285.983 136.389 286.466C136.545 286.943 136.623 287.44 136.623 287.96C136.623 288.479 136.545 288.98 136.389 289.464C136.239 289.94 136.012 290.363 135.706 290.733C135.4 291.103 135.02 291.398 134.565 291.618C134.109 291.832 133.58 291.938 132.975 291.938C132.371 291.938 131.841 291.832 131.386 291.618C130.931 291.398 130.55 291.103 130.245 290.733C129.939 290.363 129.708 289.94 129.551 289.464C129.402 288.98 129.327 288.479 129.327 287.96Z" fill="white"/>
<path d="M117.406 281.68H118.42V288.442H122.452V289.296H117.406V281.68Z" fill="white"/>
<path d="M108.79 283.023C108.79 283.407 108.84 283.788 108.939 284.165C109.039 284.534 109.195 284.869 109.408 285.167C109.622 285.466 109.896 285.708 110.23 285.893C110.564 286.07 110.962 286.159 111.424 286.159C111.887 286.159 112.285 286.07 112.619 285.893C112.953 285.708 113.227 285.466 113.44 285.167C113.654 284.869 113.81 284.534 113.91 284.165C114.009 283.788 114.059 283.407 114.059 283.023C114.059 282.639 114.009 282.262 113.91 281.893C113.81 281.516 113.654 281.178 113.44 280.879C113.227 280.581 112.953 280.342 112.619 280.165C112.285 279.98 111.887 279.887 111.424 279.887C110.962 279.887 110.564 279.98 110.23 280.165C109.896 280.342 109.622 280.581 109.408 280.879C109.195 281.178 109.039 281.516 108.939 281.893C108.84 282.262 108.79 282.639 108.79 283.023ZM107.776 283.023C107.776 282.504 107.851 282.006 108 281.53C108.157 281.046 108.388 280.62 108.694 280.25C109 279.88 109.38 279.585 109.835 279.365C110.29 279.144 110.82 279.034 111.424 279.034C112.029 279.034 112.559 279.144 113.014 279.365C113.469 279.585 113.849 279.88 114.155 280.25C114.461 280.62 114.688 281.046 114.838 281.53C114.994 282.006 115.072 282.504 115.072 283.023C115.072 283.542 114.994 284.044 114.838 284.527C114.688 285.004 114.461 285.427 114.155 285.797C113.849 286.166 113.469 286.462 113.014 286.682C112.559 286.895 112.029 287.002 111.424 287.002C110.82 287.002 110.29 286.895 109.835 286.682C109.38 286.462 109 286.166 108.694 285.797C108.388 285.427 108.157 285.004 108 284.527C107.851 284.044 107.776 283.542 107.776 283.023Z" fill="white"/>
<path d="M102.079 281.466C101.78 281.864 101.41 282.152 100.969 282.33C100.529 282.501 100.084 282.586 99.6361 282.586C99.0672 282.586 98.5588 282.483 98.1108 282.277C97.6628 282.064 97.2823 281.779 96.9694 281.424C96.6566 281.068 96.4183 280.659 96.2548 280.197C96.0912 279.735 96.0094 279.255 96.0094 278.757C96.0094 278.202 96.0841 277.676 96.2334 277.178C96.3899 276.673 96.6174 276.232 96.9161 275.856C97.2219 275.479 97.5988 275.18 98.0468 274.96C98.5019 274.732 99.0317 274.618 99.6361 274.618C100.049 274.618 100.436 274.668 100.799 274.768C101.169 274.86 101.496 275.009 101.78 275.216C102.072 275.422 102.313 275.685 102.505 276.005C102.705 276.318 102.84 276.698 102.911 277.146H101.897C101.848 276.855 101.755 276.606 101.62 276.4C101.485 276.186 101.318 276.012 101.119 275.877C100.92 275.742 100.692 275.642 100.436 275.578C100.187 275.507 99.9205 275.472 99.6361 275.472C99.1739 275.472 98.7757 275.564 98.4414 275.749C98.1143 275.934 97.8441 276.179 97.6308 276.485C97.4246 276.784 97.2717 277.128 97.1721 277.52C97.0726 277.904 97.0228 278.298 97.0228 278.704C97.0228 279.102 97.0797 279.486 97.1934 279.856C97.3072 280.218 97.4743 280.542 97.6948 280.826C97.9152 281.104 98.1854 281.328 98.5054 281.498C98.8326 281.662 99.2094 281.744 99.6361 281.744C100.034 281.744 100.386 281.68 100.692 281.552C100.998 281.424 101.254 281.249 101.46 281.029C101.673 280.801 101.833 280.538 101.94 280.24C102.047 279.934 102.093 279.607 102.079 279.258H99.6468V278.405H102.985V282.416H102.345L102.079 281.466Z" fill="white"/>
<path d="M85.234 269.056H86.2474V276.672H85.234V269.056Z" fill="white"/>
<path d="M81.1523 266.836H86.411V267.689H82.1656V270.111H86.123V270.964H82.1656V273.599H86.443V274.452H81.1523V266.836Z" fill="white"/>
<path d="M76.6826 263.533C76.6257 262.985 76.4266 262.591 76.0853 262.349C75.7511 262.1 75.3209 261.976 74.7946 261.976C74.5813 261.976 74.3715 261.997 74.1653 262.04C73.9591 262.082 73.7742 262.153 73.6106 262.253C73.4542 262.353 73.3262 262.488 73.2266 262.658C73.1342 262.822 73.088 263.028 73.088 263.277C73.088 263.512 73.1555 263.704 73.2906 263.853C73.4329 263.995 73.6178 264.113 73.8453 264.205C74.08 264.297 74.3431 264.376 74.6346 264.44C74.9262 264.497 75.2213 264.561 75.52 264.632C75.8257 264.703 76.1244 264.788 76.416 264.888C76.7075 264.98 76.9671 265.108 77.1946 265.272C77.4293 265.435 77.6142 265.641 77.7493 265.89C77.8915 266.139 77.9626 266.452 77.9626 266.829C77.9626 267.234 77.8702 267.583 77.6853 267.874C77.5075 268.159 77.2764 268.393 76.992 268.578C76.7075 268.756 76.3875 268.884 76.032 268.962C75.6835 269.048 75.3351 269.09 74.9866 269.09C74.56 269.09 74.1546 269.037 73.7706 268.93C73.3938 268.824 73.0595 268.664 72.768 268.45C72.4835 268.23 72.256 267.953 72.0853 267.618C71.9218 267.277 71.84 266.875 71.84 266.413H72.8C72.8 266.733 72.8604 267.01 72.9813 267.245C73.1093 267.473 73.2729 267.661 73.472 267.81C73.6782 267.96 73.9164 268.07 74.1866 268.141C74.4569 268.212 74.7342 268.248 75.0186 268.248C75.2462 268.248 75.4737 268.226 75.7013 268.184C75.936 268.141 76.1457 268.07 76.3306 267.97C76.5155 267.864 76.6649 267.721 76.7786 267.544C76.8924 267.366 76.9493 267.138 76.9493 266.861C76.9493 266.598 76.8782 266.385 76.736 266.221C76.6009 266.057 76.416 265.926 76.1813 265.826C75.9537 265.72 75.6942 265.634 75.4026 265.57C75.1111 265.506 74.8124 265.442 74.5066 265.378C74.208 265.307 73.9129 265.229 73.6213 265.144C73.3298 265.051 73.0666 264.934 72.832 264.792C72.6044 264.642 72.4195 264.454 72.2773 264.226C72.1422 263.992 72.0746 263.7 72.0746 263.352C72.0746 262.968 72.1529 262.637 72.3093 262.36C72.4658 262.075 72.672 261.844 72.928 261.666C73.1911 261.481 73.4862 261.346 73.8133 261.261C74.1475 261.169 74.4889 261.122 74.8373 261.122C75.2284 261.122 75.5911 261.169 75.9253 261.261C76.2595 261.353 76.5511 261.499 76.8 261.698C77.056 261.897 77.2551 262.15 77.3973 262.456C77.5466 262.754 77.6284 263.113 77.6426 263.533H76.6826Z" fill="white"/>
<path d="M60.2461 251.763H61.2594V258.526H65.2914V259.379H60.2461V251.763Z" fill="white"/>
<path d="M53.4137 245.187H54.4271V252.803H53.4137V245.187Z" fill="white"/>
<path d="M50.1541 241.908H51.5408L53.9408 248.308L56.3514 241.908H57.7381V249.524H56.7781V243.188H56.7568L54.3781 249.524H53.5141L51.1354 243.188H51.1141V249.524H50.1541V241.908Z" fill="white"/>
<path d="M40.7536 230.581H41.7669V238.197H40.7536V230.581Z" fill="white"/>
<path d="M39.6772 227.74H37.1385V226.887H43.2292V227.74H40.6905V234.503H39.6772V227.74Z" fill="white"/>
<path d="M32.6797 218.588H37.9383V219.441H33.693V221.862H37.6503V222.715H33.693V225.35H37.9703V226.203H32.6797V218.588Z" fill="white"/>
<path d="M28.5992 216.23H30.2846C30.3983 216.23 30.5406 216.223 30.7112 216.209C30.8819 216.187 31.0632 216.145 31.2552 216.081C31.4472 216.009 31.6357 215.91 31.8206 215.782C32.0126 215.654 32.1832 215.48 32.3326 215.259C32.4819 215.039 32.6028 214.765 32.6952 214.438C32.7948 214.104 32.8446 213.702 32.8446 213.233C32.8446 212.777 32.7983 212.372 32.7059 212.017C32.6206 211.654 32.4748 211.348 32.2686 211.099C32.0695 210.843 31.8099 210.651 31.4899 210.523C31.1699 210.388 30.7752 210.321 30.3059 210.321H28.5992V216.23ZM27.5859 209.467H30.1992C31.3726 209.467 32.2757 209.766 32.9086 210.363C33.5414 210.961 33.8579 211.871 33.8579 213.094C33.8579 213.734 33.7868 214.303 33.6446 214.801C33.5023 215.291 33.2819 215.707 32.9832 216.049C32.6846 216.383 32.3041 216.639 31.8419 216.817C31.3797 216.994 30.8321 217.083 30.1992 217.083H27.5859V209.467Z" fill="white"/>
</g>
<path d="M339.895 0.743164V323" stroke="white" stroke-width="4.9578"/>
<g clip-path="url(#clip1_10580_69541)">
<path d="M391.895 126.672H379.995V122.672H408.545V126.672H396.645V158.372H391.895V126.672ZM412.505 122.672H437.155V126.672H417.255V138.022H435.805V142.022H417.255V154.372H437.305V158.372H412.505V122.672ZM468.172 133.422C467.639 130.888 466.455 128.988 464.622 127.722C462.822 126.455 460.672 125.822 458.172 125.822C456.039 125.822 454.205 126.222 452.672 127.022C451.172 127.822 449.922 128.905 448.922 130.272C447.955 131.605 447.239 133.138 446.772 134.872C446.305 136.605 446.072 138.405 446.072 140.272C446.072 142.305 446.305 144.238 446.772 146.072C447.239 147.872 447.955 149.455 448.922 150.822C449.922 152.155 451.189 153.222 452.722 154.022C454.255 154.822 456.089 155.222 458.222 155.222C459.789 155.222 461.172 154.972 462.372 154.472C463.605 153.938 464.655 153.222 465.522 152.322C466.422 151.388 467.122 150.288 467.622 149.022C468.122 147.755 468.422 146.388 468.522 144.922H473.272C472.805 149.422 471.255 152.922 468.622 155.422C465.989 157.922 462.389 159.172 457.822 159.172C455.055 159.172 452.639 158.705 450.572 157.772C448.505 156.805 446.789 155.488 445.422 153.822C444.055 152.155 443.022 150.188 442.322 147.922C441.655 145.655 441.322 143.222 441.322 140.622C441.322 138.022 441.689 135.588 442.422 133.322C443.155 131.022 444.222 129.022 445.622 127.322C447.055 125.622 448.822 124.288 450.922 123.322C453.055 122.322 455.489 121.822 458.222 121.822C460.089 121.822 461.855 122.072 463.522 122.572C465.189 123.072 466.672 123.805 467.972 124.772C469.272 125.738 470.355 126.955 471.222 128.422C472.089 129.855 472.655 131.522 472.922 133.422H468.172ZM479.156 122.672H483.906V138.022H502.706V122.672H507.456V158.372H502.706V142.022H483.906V158.372H479.156V122.672ZM515.19 122.672H520.24L539.04 151.622H539.14V122.672H543.64V158.372H538.44L519.79 129.722H519.69V158.372H515.19V122.672ZM554.074 140.522C554.074 142.322 554.307 144.105 554.774 145.872C555.24 147.605 555.974 149.172 556.974 150.572C557.974 151.972 559.257 153.105 560.824 153.972C562.39 154.805 564.257 155.222 566.424 155.222C568.59 155.222 570.457 154.805 572.024 153.972C573.59 153.105 574.874 151.972 575.874 150.572C576.874 149.172 577.607 147.605 578.074 145.872C578.54 144.105 578.774 142.322 578.774 140.522C578.774 138.722 578.54 136.955 578.074 135.222C577.607 133.455 576.874 131.872 575.874 130.472C574.874 129.072 573.59 127.955 572.024 127.122C570.457 126.255 568.59 125.822 566.424 125.822C564.257 125.822 562.39 126.255 560.824 127.122C559.257 127.955 557.974 129.072 556.974 130.472C555.974 131.872 555.24 133.455 554.774 135.222C554.307 136.955 554.074 138.722 554.074 140.522ZM549.324 140.522C549.324 138.088 549.674 135.755 550.374 133.522C551.107 131.255 552.19 129.255 553.624 127.522C555.057 125.788 556.84 124.405 558.974 123.372C561.107 122.338 563.59 121.822 566.424 121.822C569.257 121.822 571.74 122.338 573.874 123.372C576.007 124.405 577.79 125.788 579.224 127.522C580.657 129.255 581.724 131.255 582.424 133.522C583.157 135.755 583.524 138.088 583.524 140.522C583.524 142.955 583.157 145.305 582.424 147.572C581.724 149.805 580.657 151.788 579.224 153.522C577.79 155.255 576.007 156.638 573.874 157.672C571.74 158.672 569.257 159.172 566.424 159.172C563.59 159.172 561.107 158.672 558.974 157.672C556.84 156.638 555.057 155.255 553.624 153.522C552.19 151.788 551.107 149.805 550.374 147.572C549.674 145.305 549.324 142.955 549.324 140.522ZM589.312 122.672H594.062V154.372H612.962V158.372H589.312V122.672ZM619.845 140.522C619.845 142.322 620.079 144.105 620.545 145.872C621.012 147.605 621.745 149.172 622.745 150.572C623.745 151.972 625.029 153.105 626.595 153.972C628.162 154.805 630.029 155.222 632.195 155.222C634.362 155.222 636.229 154.805 637.795 153.972C639.362 153.105 640.645 151.972 641.645 150.572C642.645 149.172 643.379 147.605 643.845 145.872C644.312 144.105 644.545 142.322 644.545 140.522C644.545 138.722 644.312 136.955 643.845 135.222C643.379 133.455 642.645 131.872 641.645 130.472C640.645 129.072 639.362 127.955 637.795 127.122C636.229 126.255 634.362 125.822 632.195 125.822C630.029 125.822 628.162 126.255 626.595 127.122C625.029 127.955 623.745 129.072 622.745 130.472C621.745 131.872 621.012 133.455 620.545 135.222C620.079 136.955 619.845 138.722 619.845 140.522ZM615.095 140.522C615.095 138.088 615.445 135.755 616.145 133.522C616.879 131.255 617.962 129.255 619.395 127.522C620.829 125.788 622.612 124.405 624.745 123.372C626.879 122.338 629.362 121.822 632.195 121.822C635.029 121.822 637.512 122.338 639.645 123.372C641.779 124.405 643.562 125.788 644.995 127.522C646.429 129.255 647.495 131.255 648.195 133.522C648.929 135.755 649.295 138.088 649.295 140.522C649.295 142.955 648.929 145.305 648.195 147.572C647.495 149.805 646.429 151.788 644.995 153.522C643.562 155.255 641.779 156.638 639.645 157.672C637.512 158.672 635.029 159.172 632.195 159.172C629.362 159.172 626.879 158.672 624.745 157.672C622.612 156.638 620.829 155.255 619.395 153.522C617.962 151.788 616.879 149.805 616.145 147.572C615.445 145.305 615.095 142.955 615.095 140.522ZM681.784 153.922C680.384 155.788 678.65 157.138 676.584 157.972C674.517 158.772 672.434 159.172 670.334 159.172C667.667 159.172 665.284 158.688 663.184 157.722C661.084 156.722 659.3 155.388 657.834 153.722C656.367 152.055 655.25 150.138 654.484 147.972C653.717 145.805 653.334 143.555 653.334 141.222C653.334 138.622 653.684 136.155 654.384 133.822C655.117 131.455 656.184 129.388 657.584 127.622C659.017 125.855 660.784 124.455 662.884 123.422C665.017 122.355 667.5 121.822 670.334 121.822C672.267 121.822 674.084 122.055 675.784 122.522C677.517 122.955 679.05 123.655 680.384 124.622C681.75 125.588 682.884 126.822 683.784 128.322C684.717 129.788 685.35 131.572 685.684 133.672H680.934C680.7 132.305 680.267 131.138 679.634 130.172C679 129.172 678.217 128.355 677.284 127.722C676.35 127.088 675.284 126.622 674.084 126.322C672.917 125.988 671.667 125.822 670.334 125.822C668.167 125.822 666.3 126.255 664.734 127.122C663.2 127.988 661.934 129.138 660.934 130.572C659.967 131.972 659.25 133.588 658.784 135.422C658.317 137.222 658.084 139.072 658.084 140.972C658.084 142.838 658.35 144.638 658.884 146.372C659.417 148.072 660.2 149.588 661.234 150.922C662.267 152.222 663.534 153.272 665.034 154.072C666.567 154.838 668.334 155.222 670.334 155.222C672.2 155.222 673.85 154.922 675.284 154.322C676.717 153.722 677.917 152.905 678.884 151.872C679.884 150.805 680.634 149.572 681.134 148.172C681.634 146.738 681.85 145.205 681.784 143.572H670.384V139.572H686.034V158.372H683.034L681.784 153.922ZM693.223 122.672H697.973V158.372H693.223V122.672ZM705.963 122.672H730.613V126.672H710.713V138.022H729.263V142.022H710.713V154.372H730.763V158.372H705.963V122.672ZM757.179 133.122C756.912 130.555 755.979 128.705 754.379 127.572C752.812 126.405 750.796 125.822 748.329 125.822C747.329 125.822 746.346 125.922 745.379 126.122C744.412 126.322 743.546 126.655 742.779 127.122C742.046 127.588 741.446 128.222 740.979 129.022C740.546 129.788 740.329 130.755 740.329 131.922C740.329 133.022 740.646 133.922 741.279 134.622C741.946 135.288 742.812 135.838 743.879 136.272C744.979 136.705 746.212 137.072 747.579 137.372C748.946 137.638 750.329 137.938 751.729 138.272C753.162 138.605 754.562 139.005 755.929 139.472C757.296 139.905 758.512 140.505 759.579 141.272C760.679 142.038 761.546 143.005 762.179 144.172C762.846 145.338 763.179 146.805 763.179 148.572C763.179 150.472 762.746 152.105 761.879 153.472C761.046 154.805 759.962 155.905 758.629 156.772C757.296 157.605 755.796 158.205 754.129 158.572C752.496 158.972 750.862 159.172 749.229 159.172C747.229 159.172 745.329 158.922 743.529 158.422C741.762 157.922 740.196 157.172 738.829 156.172C737.496 155.138 736.429 153.838 735.629 152.272C734.862 150.672 734.479 148.788 734.479 146.622H738.979C738.979 148.122 739.262 149.422 739.829 150.522C740.429 151.588 741.196 152.472 742.129 153.172C743.096 153.872 744.212 154.388 745.479 154.722C746.746 155.055 748.046 155.222 749.379 155.222C750.446 155.222 751.512 155.122 752.579 154.922C753.679 154.722 754.662 154.388 755.529 153.922C756.396 153.422 757.096 152.755 757.629 151.922C758.162 151.088 758.429 150.022 758.429 148.722C758.429 147.488 758.096 146.488 757.429 145.722C756.796 144.955 755.929 144.338 754.829 143.872C753.762 143.372 752.546 142.972 751.179 142.672C749.812 142.372 748.412 142.072 746.979 141.772C745.579 141.438 744.196 141.072 742.829 140.672C741.462 140.238 740.229 139.688 739.129 139.022C738.062 138.322 737.196 137.438 736.529 136.372C735.896 135.272 735.579 133.905 735.579 132.272C735.579 130.472 735.946 128.922 736.679 127.622C737.412 126.288 738.379 125.205 739.579 124.372C740.812 123.505 742.196 122.872 743.729 122.472C745.296 122.038 746.896 121.822 748.529 121.822C750.362 121.822 752.062 122.038 753.629 122.472C755.196 122.905 756.562 123.588 757.729 124.522C758.929 125.455 759.862 126.638 760.529 128.072C761.229 129.472 761.612 131.155 761.679 133.122H757.179Z" fill="white"/>
<path d="M391.459 173.844H396.209V205.544H415.109V209.544H391.459V173.844ZM419.442 173.844H424.192V209.544H419.442V173.844ZM432.281 173.844H438.781L450.031 203.844L461.331 173.844H467.831V209.544H463.331V179.844H463.231L452.081 209.544H448.031L436.881 179.844H436.781V209.544H432.281V173.844ZM475.936 173.844H480.686V209.544H475.936V173.844ZM496.775 177.844H484.875V173.844H513.425V177.844H501.525V209.544H496.775V177.844ZM517.386 173.844H542.036V177.844H522.136V189.194H540.686V193.194H522.136V205.544H542.186V209.544H517.386V173.844ZM552.703 205.544H560.603C561.136 205.544 561.803 205.511 562.603 205.444C563.403 205.344 564.253 205.144 565.153 204.844C566.053 204.511 566.936 204.044 567.803 203.444C568.703 202.844 569.503 202.028 570.203 200.994C570.903 199.961 571.469 198.678 571.903 197.144C572.369 195.578 572.603 193.694 572.603 191.494C572.603 189.361 572.386 187.461 571.953 185.794C571.553 184.094 570.869 182.661 569.903 181.494C568.969 180.294 567.753 179.394 566.253 178.794C564.753 178.161 562.903 177.844 560.703 177.844H552.703V205.544ZM547.953 173.844H560.203C565.703 173.844 569.936 175.244 572.903 178.044C575.869 180.844 577.353 185.111 577.353 190.844C577.353 193.844 577.019 196.511 576.353 198.844C575.686 201.144 574.653 203.094 573.253 204.694C571.853 206.261 570.069 207.461 567.903 208.294C565.736 209.128 563.169 209.544 560.203 209.544H547.953V173.844Z" fill="white"/>
</g>
</g>
<defs>
<clipPath id="clip0_10580_69541">
<rect width="300" height="300" fill="white" transform="translate(0.230469 11.8715)"/>
</clipPath>
<clipPath id="clip1_10580_69541">
<rect width="418" height="113" fill="white" transform="translate(379.555 105.372)"/>
</clipPath>
</defs>
</svg>
