<svg width="512" height="512" viewBox="0 0 512 512" fill="none" xmlns="http://www.w3.org/2000/svg">
<rect width="512" height="512" rx="256" fill="#E4F1FA"/>
<path d="M99.3476 172.001C93.6633 175.984 88.4476 180.535 83.7366 185.703C79.9606 189.846 76.5788 194.282 73.5508 198.978L99.3476 172.001Z" fill="#17478B"/>
<path d="M108.485 223.378C110.006 220.299 111.77 217.391 113.791 214.659C117.957 209.026 123.103 204.501 129.22 201.082C129.596 200.873 129.988 200.69 130.371 200.492L171.34 157.652C168.426 156.995 165.443 156.5 162.402 156.145L57.5742 265.761C57.8987 268.916 58.3673 272.044 58.9756 275.152L108.485 223.378Z" fill="#17478B"/>
<path d="M151.423 155.502C148.648 155.502 145.926 155.645 143.236 155.87L57.4236 245.605C57.1464 248.701 57 251.822 57 254.974C57 255.605 57.0316 256.23 57.0428 256.859L153.906 155.568C153.079 155.547 152.261 155.502 151.423 155.502Z" fill="#17478B"/>
<path d="M132.779 157.351C127.775 158.372 122.934 159.802 118.266 161.672L63.5807 218.858C61.6589 223.96 60.1629 229.145 59.0859 234.412L132.779 157.351Z" fill="#17478B"/>
<path d="M220.316 322.583C228.116 313.535 234.147 303.281 238.403 291.827C242.657 280.376 244.786 268.369 244.786 255.805C244.786 243.431 242.567 231.241 238.135 219.231C233.701 207.223 227.406 196.509 219.25 187.091C211.694 178.364 202.675 171.204 192.232 165.568L162.011 197.171C165.593 198.002 168.939 199.258 172.041 200.943C178.158 204.269 183.344 208.658 187.6 214.105C191.856 219.555 195.046 225.838 197.175 232.947C199.302 240.059 200.368 247.402 200.368 254.974C200.368 261.072 199.656 267.075 198.239 272.985C196.817 278.9 194.69 284.439 191.856 289.609L189.015 286.314C183.374 279.77 175.33 276.032 166.888 276.032H153.402C147.934 276.032 145.057 282.786 148.725 287.011L169.513 310.944C164.194 313.347 157.985 314.546 150.894 314.546C142.916 314.546 135.822 312.885 129.617 309.559C123.408 306.233 118.221 301.849 114.058 296.399C109.887 290.952 106.742 284.669 104.613 277.557C102.941 271.971 101.937 266.24 101.578 260.365L66.0215 297.547C70.3202 307.357 75.9032 316.218 82.8041 324.106C90.9577 333.435 100.799 340.918 112.327 346.551C123.852 352.186 136.619 355 150.628 355C159.14 355 167.253 353.892 174.965 351.677C182.68 349.459 189.903 346.41 196.644 342.53C202.918 349.597 211.739 353.615 220.978 353.615H233.172C238.651 353.615 241.524 346.842 237.835 342.622L220.316 322.583Z" fill="#17478B"/>
<path d="M101.57 250.923C101.817 246.633 102.417 242.387 103.365 238.19L60.752 282.751C61.5022 285.481 62.3809 288.187 63.3587 290.879L101.57 250.923Z" fill="#17478B"/>
<path d="M178.481 159.642L143.23 196.502C145.675 196.152 148.223 195.955 150.897 195.955C151.963 195.955 153.011 195.991 154.045 196.049L186.096 162.534C183.613 161.435 181.072 160.48 178.481 159.642Z" fill="#17478B"/>
<path d="M455.538 181.063C453.177 166.559 441.089 155.502 426.494 155.502H426.492C415.311 155.502 405.091 162.09 400.101 172.515L358.346 259.748L316.843 172.574C311.864 162.118 301.626 155.502 290.422 155.502H290.197C273.908 155.502 260.705 169.258 260.705 186.225V338.981C260.705 347.827 267.59 355 276.082 355H289.564C298.055 355 304.94 347.827 304.94 338.981V235.583L337.771 304.21L455.538 181.063Z" fill="#17478B"/>
<path d="M411.754 257.037V268.045L455.989 221.789V210.779L411.754 257.037Z" fill="#17478B"/>
<path d="M456 338.981V334.36L436.262 355H440.621C444.134 355 447.358 353.761 449.946 351.698L452.864 348.649C454.824 345.959 456 342.617 456 338.981Z" fill="#17478B"/>
<path d="M391.211 278.517L350.344 321.252C352.117 321.984 354.021 322.407 355.994 322.407H359.768L380.671 300.546L391.211 278.517Z" fill="#17478B"/>
<path d="M411.754 236.44V247.447L455.989 201.192V190.184L411.754 236.44Z" fill="#17478B"/>
<path d="M410.934 237.301L340.836 310.604L342.237 313.533C342.927 314.976 343.823 316.269 344.858 317.403L400.396 259.328L410.934 237.301Z" fill="#17478B"/>
<path d="M455.989 304.174V293.167L411.773 339.403C411.85 342.492 412.76 345.365 414.288 347.78L455.989 304.174Z" fill="#17478B"/>
<path d="M455.989 242.385V231.377L411.754 277.635V288.642L455.989 242.385Z" fill="#17478B"/>
<path d="M455.991 324.77V313.763L418.932 352.517C421.295 354.073 424.084 354.988 427.085 354.998L455.991 324.77Z" fill="#17478B"/>
<path d="M455.989 283.577V272.57L411.754 318.827V329.835L455.989 283.577Z" fill="#17478B"/>
<path d="M455.989 262.982V251.974L411.754 298.23V309.237L455.989 262.982Z" fill="#17478B"/>
</svg>
